<?xml version="1.0" encoding="UTF-8" standalone="no"?>
<!DOCTYPE svg PUBLIC "-//W3C//DTD SVG 1.1//EN"
 "http://www.w3.org/Graphics/SVG/1.1/DTD/svg11.dtd">
<!-- Generated by graphviz version 2.40.1 (20161225.0304)
 -->
<!-- Title: G Pages: 1 -->
<svg width="2696pt" height="1619pt"
 viewBox="0.00 0.00 2695.99 1618.93" xmlns="http://www.w3.org/2000/svg" xmlns:xlink="http://www.w3.org/1999/xlink">
<g id="graph0" class="graph" transform="scale(1 1) rotate(0) translate(7.992 1610.9423)">
<title>G</title>
<polygon fill="#eeeeff" stroke="transparent" points="-7.992,7.992 -7.992,-1610.9423 2687.9951,-1610.9423 2687.9951,7.992 -7.992,7.992"/>
<!-- cli/executable.js -->
<g id="node1" class="node">
<title>cli/executable.js</title>
<ellipse fill="none" stroke="#242424" stroke-width="4" cx="1933.607" cy="-1304.7484" rx="88.2923" ry="88.2923"/>
<text text-anchor="middle" x="1933.607" y="-1302.3485" font-family="Fira Code" font-size="12.00" fill="#242424">cli/executable.js</text>
</g>
<!-- Ⓜ commander/index.js -->
<g id="node2" class="node">
<title>Ⓜ commander/index.js</title>
<ellipse fill="none" stroke="#0c821d" stroke-width="4" cx="1933.607" cy="-1023.6762" rx="113.8526" ry="113.8526"/>
<text text-anchor="middle" x="1933.607" y="-1022.4762" font-family="Fira Code" font-size="12.00" fill="#0c821d">Ⓜ commander/index.js</text>
</g>
<!-- cli/executable.js&#45;&gt;Ⓜ commander/index.js -->
<g id="edge1" class="edge">
<title>cli/executable.js&#45;&gt;Ⓜ commander/index.js</title>
<path fill="none" stroke="#242424" d="M1933.607,-1216.2012C1933.607,-1194.4747 1933.607,-1170.8185 1933.607,-1147.7611"/>
<polygon fill="#242424" stroke="#242424" points="1937.1071,-1147.5724 1933.607,-1137.5725 1930.1071,-1147.5725 1937.1071,-1147.5724"/>
</g>
<!-- cli/index.js -->
<g id="node3" class="node">
<title>cli/index.js</title>
<ellipse fill="none" stroke="#242424" stroke-width="4" cx="2028.607" cy="-1537.5474" rx="65.3059" ry="65.3059"/>
<text text-anchor="middle" x="2028.607" y="-1535.1474" font-family="Fira Code" font-size="12.00" fill="#242424">cli/index.js</text>
</g>
<!-- cli/index.js&#45;&gt;cli/executable.js -->
<g id="edge2" class="edge">
<title>cli/index.js&#45;&gt;cli/executable.js</title>
<path fill="none" stroke="#242424" d="M2003.8948,-1476.99C1993.8624,-1452.4054 1982.0527,-1423.4654 1971.0069,-1396.3976"/>
<polygon fill="#242424" stroke="#242424" points="1974.1548,-1394.848 1967.1359,-1386.9117 1967.6737,-1397.4928 1974.1548,-1394.848"/>
</g>
<!-- cli/processor.js -->
<g id="node4" class="node">
<title>cli/processor.js</title>
<ellipse fill="none" stroke="#0c821d" stroke-width="4" cx="2123.607" cy="-1304.7484" rx="83.5954" ry="83.5954"/>
<text text-anchor="middle" x="2123.607" y="-1302.3485" font-family="Fira Code" font-size="12.00" fill="#0c821d">cli/processor.js</text>
</g>
<!-- cli/index.js&#45;&gt;cli/processor.js -->
<g id="edge3" class="edge">
<title>cli/index.js&#45;&gt;cli/processor.js</title>
<path fill="none" stroke="#242424" d="M2053.3191,-1476.99C2063.8892,-1451.0877 2076.4324,-1420.3505 2087.9762,-1392.0621"/>
<polygon fill="#242424" stroke="#242424" points="2091.3107,-1393.1543 2091.8485,-1382.5731 2084.8296,-1390.5094 2091.3107,-1393.1543"/>
</g>
<!-- constants/empty.js -->
<g id="node5" class="node">
<title>constants/empty.js</title>
<ellipse fill="none" stroke="#0c821d" stroke-width="4" cx="1275.607" cy="-1130.7839" rx="92.9895" ry="92.9895"/>
<text text-anchor="middle" x="1275.607" y="-1128.3839" font-family="Fira Code" font-size="12.00" fill="#0c821d">constants/empty.js</text>
</g>
<!-- constants/index.js -->
<g id="node6" class="node">
<title>constants/index.js</title>
<ellipse fill="none" stroke="#242424" stroke-width="4" cx="1395.607" cy="-1432.5625" rx="92.9895" ry="92.9895"/>
<text text-anchor="middle" x="1395.607" y="-1430.1625" font-family="Fira Code" font-size="12.00" fill="#242424">constants/index.js</text>
</g>
<!-- constants/index.js&#45;&gt;constants/empty.js -->
<g id="edge4" class="edge">
<title>constants/index.js&#45;&gt;constants/empty.js</title>
<path fill="none" stroke="#242424" d="M1361.2198,-1346.0848C1346.4074,-1308.8342 1329.0311,-1265.1359 1313.8175,-1226.8766"/>
<polygon fill="#242424" stroke="#242424" points="1316.9466,-1225.2732 1309.9992,-1217.2741 1310.4419,-1227.8597 1316.9466,-1225.2732"/>
</g>
<!-- constants/regex&#45;control.js -->
<g id="node7" class="node">
<title>constants/regex&#45;control.js</title>
<ellipse fill="none" stroke="#0c821d" stroke-width="4" cx="1516.607" cy="-1130.7839" rx="129.5681" ry="129.5681"/>
<text text-anchor="middle" x="1516.607" y="-1128.3839" font-family="Fira Code" font-size="12.00" fill="#0c821d">constants/regex&#45;control.js</text>
</g>
<!-- constants/index.js&#45;&gt;constants/regex&#45;control.js -->
<g id="edge5" class="edge">
<title>constants/index.js&#45;&gt;constants/regex&#45;control.js</title>
<path fill="none" stroke="#242424" d="M1430.2807,-1346.0848C1440.9617,-1319.446 1452.9648,-1289.5098 1464.547,-1260.6234"/>
<polygon fill="#242424" stroke="#242424" points="1467.8174,-1261.8714 1468.2904,-1251.2871 1461.3202,-1259.2663 1467.8174,-1261.8714"/>
</g>
<!-- decode.js -->
<g id="node8" class="node">
<title>decode.js</title>
<ellipse fill="none" stroke="#242424" stroke-width="4" cx="51.607" cy="-485.065" rx="51.7142" ry="51.7142"/>
<text text-anchor="middle" x="51.607" y="-482.665" font-family="Fira Code" font-size="12.00" fill="#242424">decode.js</text>
</g>
<!-- Ⓜ f&#45;utility/f&#45;utility.js -->
<g id="node9" class="node">
<title>Ⓜ f&#45;utility/f&#45;utility.js</title>
<ellipse fill="none" stroke="#0c821d" stroke-width="4" cx="679.607" cy="-133.5419" rx="133.5838" ry="133.5838"/>
<text text-anchor="middle" x="679.607" y="-132.3419" font-family="Fira Code" font-size="12.00" fill="#0c821d">Ⓜ f&#45;utility/f&#45;utility.js</text>
</g>
<!-- decode.js&#45;&gt;Ⓜ f&#45;utility/f&#45;utility.js -->
<g id="edge6" class="edge">
<title>decode.js&#45;&gt;Ⓜ f&#45;utility/f&#45;utility.js</title>
<path fill="none" stroke="#242424" d="M62.8159,-434.6572C71.6565,-405.382 86.7629,-369.7281 111.607,-346.0838 229.1208,-234.2453 410.9328,-180.0387 537.077,-154.6032"/>
<polygon fill="#242424" stroke="#242424" points="538.0704,-157.9746 547.2005,-152.5995 536.7112,-151.1078 538.0704,-157.9746"/>
</g>
<!-- encode.js -->
<g id="node10" class="node">
<title>encode.js</title>
<ellipse fill="none" stroke="#242424" stroke-width="4" cx="172.607" cy="-485.065" rx="51.7142" ry="51.7142"/>
<text text-anchor="middle" x="172.607" y="-482.665" font-family="Fira Code" font-size="12.00" fill="#242424">encode.js</text>
</g>
<!-- encode.js&#45;&gt;Ⓜ f&#45;utility/f&#45;utility.js -->
<g id="edge7" class="edge">
<title>encode.js&#45;&gt;Ⓜ f&#45;utility/f&#45;utility.js</title>
<path fill="none" stroke="#242424" d="M185.1728,-434.744C194.525,-405.8628 209.8561,-370.5856 233.607,-346.0838 317.5988,-259.4366 443.9761,-203.8333 540.7835,-171.3222"/>
<polygon fill="#242424" stroke="#242424" points="541.962,-174.6189 550.3534,-168.1509 539.76,-167.9742 541.962,-174.6189"/>
</g>
<!-- fn/alter&#45;range.js -->
<g id="node11" class="node">
<title>fn/alter&#45;range.js</title>
<ellipse fill="none" stroke="#0c821d" stroke-width="4" cx="330.607" cy="-485.065" rx="88.2923" ry="88.2923"/>
<text text-anchor="middle" x="330.607" y="-482.665" font-family="Fira Code" font-size="12.00" fill="#0c821d">fn/alter&#45;range.js</text>
</g>
<!-- fn/char&#45;code&#45;at.js -->
<g id="node12" class="node">
<title>fn/char&#45;code&#45;at.js</title>
<ellipse fill="none" stroke="#0c821d" stroke-width="4" cx="529.607" cy="-485.065" rx="92.9895" ry="92.9895"/>
<text text-anchor="middle" x="529.607" y="-482.665" font-family="Fira Code" font-size="12.00" fill="#0c821d">fn/char&#45;code&#45;at.js</text>
</g>
<!-- fn/character&#45;edge.js -->
<g id="node13" class="node">
<title>fn/character&#45;edge.js</title>
<ellipse fill="none" stroke="#0c821d" stroke-width="4" cx="742.607" cy="-485.065" rx="102.3844" ry="102.3844"/>
<text text-anchor="middle" x="742.607" y="-482.665" font-family="Fira Code" font-size="12.00" fill="#0c821d">fn/character&#45;edge.js</text>
</g>
<!-- fn/control&#45;split.js -->
<g id="node14" class="node">
<title>fn/control&#45;split.js</title>
<ellipse fill="none" stroke="#0c821d" stroke-width="4" cx="960.607" cy="-485.065" rx="97.6868" ry="97.6868"/>
<text text-anchor="middle" x="960.607" y="-482.665" font-family="Fira Code" font-size="12.00" fill="#0c821d">fn/control&#45;split.js</text>
</g>
<!-- fn/convert&#45;to&#45;ascii.js -->
<g id="node15" class="node">
<title>fn/convert&#45;to&#45;ascii.js</title>
<ellipse fill="none" stroke="#242424" stroke-width="4" cx="1187.607" cy="-485.065" rx="111.2787" ry="111.2787"/>
<text text-anchor="middle" x="1187.607" y="-482.665" font-family="Fira Code" font-size="12.00" fill="#242424">fn/convert&#45;to&#45;ascii.js</text>
</g>
<!-- fn/convert&#45;to&#45;ascii.js&#45;&gt;Ⓜ f&#45;utility/f&#45;utility.js -->
<g id="edge8" class="edge">
<title>fn/convert&#45;to&#45;ascii.js&#45;&gt;Ⓜ f&#45;utility/f&#45;utility.js</title>
<path fill="none" stroke="#242424" d="M1119.7073,-396.6961C1103.7182,-378.7837 1085.952,-360.9143 1067.607,-346.0838 989.6919,-283.0961 890.437,-229.1137 811.8208,-191.3139"/>
<polygon fill="#242424" stroke="#242424" points="812.8707,-187.9366 802.3386,-186.7849 809.8537,-194.2531 812.8707,-187.9366"/>
</g>
<!-- fn/hex&#45;char&#45;code.js -->
<g id="node16" class="node">
<title>fn/hex&#45;char&#45;code.js</title>
<ellipse fill="none" stroke="#0c821d" stroke-width="4" cx="1414.607" cy="-485.065" rx="97.6868" ry="97.6868"/>
<text text-anchor="middle" x="1414.607" y="-482.665" font-family="Fira Code" font-size="12.00" fill="#0c821d">fn/hex&#45;char&#45;code.js</text>
</g>
<!-- fn/index.js -->
<g id="node17" class="node">
<title>fn/index.js</title>
<ellipse fill="none" stroke="#242424" stroke-width="4" cx="1516.607" cy="-763.8504" rx="60.6091" ry="60.6091"/>
<text text-anchor="middle" x="1516.607" y="-761.4504" font-family="Fira Code" font-size="12.00" fill="#242424">fn/index.js</text>
</g>
<!-- fn/index.js&#45;&gt;fn/alter&#45;range.js -->
<g id="edge9" class="edge">
<title>fn/index.js&#45;&gt;fn/alter&#45;range.js</title>
<path fill="none" stroke="#242424" d="M1455.5969,-762.4196C1252.6155,-756.6883 602.979,-730.2613 427.607,-624.0461 407.0163,-611.5753 389.6797,-592.8809 375.6201,-573.2146"/>
<polygon fill="#242424" stroke="#242424" points="378.3447,-570.9996 369.7953,-564.742 372.5764,-574.9653 378.3447,-570.9996"/>
</g>
<!-- fn/index.js&#45;&gt;fn/char&#45;code&#45;at.js -->
<g id="edge10" class="edge">
<title>fn/index.js&#45;&gt;fn/char&#45;code&#45;at.js</title>
<path fill="none" stroke="#242424" d="M1455.6102,-760.2231C1279.07,-748.8018 771.3385,-709.1738 631.607,-624.0461 611.5905,-611.8516 594.2752,-594.112 579.8818,-575.3612"/>
<polygon fill="#242424" stroke="#242424" points="582.6576,-573.2284 573.8926,-567.2764 577.0328,-577.3952 582.6576,-573.2284"/>
</g>
<!-- fn/index.js&#45;&gt;fn/character&#45;edge.js -->
<g id="edge11" class="edge">
<title>fn/index.js&#45;&gt;fn/character&#45;edge.js</title>
<path fill="none" stroke="#242424" d="M1456.1913,-756.4102C1312.5883,-737.8948 955.2517,-686.6934 853.607,-624.0461 834.9139,-612.5249 818.0412,-596.6809 803.4199,-579.8045"/>
<polygon fill="#242424" stroke="#242424" points="805.9712,-577.4 796.8619,-571.9896 800.6091,-581.8997 805.9712,-577.4"/>
</g>
<!-- fn/index.js&#45;&gt;fn/control&#45;split.js -->
<g id="edge12" class="edge">
<title>fn/index.js&#45;&gt;fn/control&#45;split.js</title>
<path fill="none" stroke="#242424" d="M1455.935,-756.7899C1364.5595,-743.7013 1189.3778,-708.8409 1067.607,-624.0461 1049.1871,-611.2194 1032.5037,-594.2569 1018.0839,-576.6036"/>
<polygon fill="#242424" stroke="#242424" points="1020.5771,-574.1148 1011.6198,-568.4564 1015.0934,-578.4657 1020.5771,-574.1148"/>
</g>
<!-- fn/index.js&#45;&gt;fn/convert&#45;to&#45;ascii.js -->
<g id="edge13" class="edge">
<title>fn/index.js&#45;&gt;fn/convert&#45;to&#45;ascii.js</title>
<path fill="none" stroke="#242424" d="M1463.5725,-733.8412C1419.5619,-707.6953 1356.497,-667.2784 1307.607,-624.0461 1292.523,-610.7077 1277.5771,-595.4905 1263.6195,-580.1336"/>
<polygon fill="#242424" stroke="#242424" points="1266.1346,-577.6959 1256.8507,-572.5912 1260.9249,-582.3713 1266.1346,-577.6959"/>
</g>
<!-- fn/index.js&#45;&gt;fn/hex&#45;char&#45;code.js -->
<g id="edge14" class="edge">
<title>fn/index.js&#45;&gt;fn/hex&#45;char&#45;code.js</title>
<path fill="none" stroke="#242424" d="M1495.5962,-706.4239C1482.9624,-671.8935 1466.5207,-626.9551 1451.7552,-586.598"/>
<polygon fill="#242424" stroke="#242424" points="1454.962,-585.1765 1448.2391,-576.988 1448.3882,-587.5817 1454.962,-585.1765"/>
</g>
<!-- fn/magic&#45;range.js -->
<g id="node18" class="node">
<title>fn/magic&#45;range.js</title>
<ellipse fill="none" stroke="#0c821d" stroke-width="4" cx="1618.607" cy="-485.065" rx="88.2923" ry="88.2923"/>
<text text-anchor="middle" x="1618.607" y="-482.665" font-family="Fira Code" font-size="12.00" fill="#0c821d">fn/magic&#45;range.js</text>
</g>
<!-- fn/index.js&#45;&gt;fn/magic&#45;range.js -->
<g id="edge15" class="edge">
<title>fn/index.js&#45;&gt;fn/magic&#45;range.js</title>
<path fill="none" stroke="#242424" d="M1537.6178,-706.4239C1551.1723,-669.3768 1569.1101,-620.3493 1584.6585,-577.8527"/>
<polygon fill="#242424" stroke="#242424" points="1587.9932,-578.9245 1588.1423,-568.3307 1581.4194,-576.5192 1587.9932,-578.9245"/>
</g>
<!-- fn/map&#45;wrap.js -->
<g id="node19" class="node">
<title>fn/map&#45;wrap.js</title>
<ellipse fill="none" stroke="#0c821d" stroke-width="4" cx="1799.607" cy="-485.065" rx="74.7005" ry="74.7005"/>
<text text-anchor="middle" x="1799.607" y="-482.665" font-family="Fira Code" font-size="12.00" fill="#0c821d">fn/map&#45;wrap.js</text>
</g>
<!-- fn/index.js&#45;&gt;fn/map&#45;wrap.js -->
<g id="edge16" class="edge">
<title>fn/index.js&#45;&gt;fn/map&#45;wrap.js</title>
<path fill="none" stroke="#242424" d="M1570.2089,-734.5881C1613.1172,-709.3147 1672.966,-669.7255 1715.607,-624.0461 1732.9385,-605.4796 1748.4743,-582.7693 1761.3319,-561.1309"/>
<polygon fill="#242424" stroke="#242424" points="1764.4883,-562.6654 1766.4915,-552.2617 1758.4377,-559.1455 1764.4883,-562.6654"/>
</g>
<!-- fn/match.js -->
<g id="node20" class="node">
<title>fn/match.js</title>
<ellipse fill="none" stroke="#0c821d" stroke-width="4" cx="1952.607" cy="-485.065" rx="60.6091" ry="60.6091"/>
<text text-anchor="middle" x="1952.607" y="-482.665" font-family="Fira Code" font-size="12.00" fill="#0c821d">fn/match.js</text>
</g>
<!-- fn/index.js&#45;&gt;fn/match.js -->
<g id="edge17" class="edge">
<title>fn/index.js&#45;&gt;fn/match.js</title>
<path fill="none" stroke="#242424" d="M1577.0442,-754.8021C1656.195,-740.1203 1795.2511,-704.2336 1883.607,-624.0461 1904.6563,-604.9427 1920.0761,-577.9752 1930.9309,-552.872"/>
<polygon fill="#242424" stroke="#242424" points="1934.2765,-553.9408 1934.8698,-543.3625 1927.8094,-551.2619 1934.2765,-553.9408"/>
</g>
<!-- fn/ninth&#45;bit.js -->
<g id="node21" class="node">
<title>fn/ninth&#45;bit.js</title>
<ellipse fill="none" stroke="#0c821d" stroke-width="4" cx="2110.607" cy="-485.065" rx="79.3981" ry="79.3981"/>
<text text-anchor="middle" x="2110.607" y="-482.665" font-family="Fira Code" font-size="12.00" fill="#0c821d">fn/ninth&#45;bit.js</text>
</g>
<!-- fn/index.js&#45;&gt;fn/ninth&#45;bit.js -->
<g id="edge18" class="edge">
<title>fn/index.js&#45;&gt;fn/ninth&#45;bit.js</title>
<path fill="none" stroke="#242424" d="M1577.6396,-760.9464C1679.3639,-753.2835 1885.8814,-725.4098 2022.607,-624.0461 2042.8714,-609.0227 2059.6284,-587.8207 2072.8858,-566.4923"/>
<polygon fill="#242424" stroke="#242424" points="2076.0258,-568.0615 2078.1663,-557.6851 2070.0222,-564.4619 2076.0258,-568.0615"/>
</g>
<!-- fn/parse&#45;binary&#45;char&#45;code.js -->
<g id="node22" class="node">
<title>fn/parse&#45;binary&#45;char&#45;code.js</title>
<ellipse fill="none" stroke="#0c821d" stroke-width="4" cx="2346.607" cy="-485.065" rx="138.9623" ry="138.9623"/>
<text text-anchor="middle" x="2346.607" y="-482.665" font-family="Fira Code" font-size="12.00" fill="#0c821d">fn/parse&#45;binary&#45;char&#45;code.js</text>
</g>
<!-- fn/index.js&#45;&gt;fn/parse&#45;binary&#45;char&#45;code.js -->
<g id="edge19" class="edge">
<title>fn/index.js&#45;&gt;fn/parse&#45;binary&#45;char&#45;code.js</title>
<path fill="none" stroke="#242424" d="M1577.1144,-755.7616C1722.8652,-735.5955 2089.4158,-680.6269 2198.607,-624.0461 2214.4504,-615.8364 2229.8153,-605.4386 2244.2716,-594.0392"/>
<polygon fill="#242424" stroke="#242424" points="2246.6397,-596.6251 2252.2065,-587.6106 2242.2332,-591.186 2246.6397,-596.6251"/>
</g>
<!-- fn/string&#45;wrap.js -->
<g id="node23" class="node">
<title>fn/string&#45;wrap.js</title>
<ellipse fill="none" stroke="#242424" stroke-width="4" cx="2591.607" cy="-485.065" rx="88.2923" ry="88.2923"/>
<text text-anchor="middle" x="2591.607" y="-482.665" font-family="Fira Code" font-size="12.00" fill="#242424">fn/string&#45;wrap.js</text>
</g>
<!-- fn/index.js&#45;&gt;fn/string&#45;wrap.js -->
<g id="edge20" class="edge">
<title>fn/index.js&#45;&gt;fn/string&#45;wrap.js</title>
<path fill="none" stroke="#242424" d="M1577.6138,-761.4164C1766.6479,-752.9157 2339.2267,-719.6791 2494.607,-624.0461 2515.1079,-611.4283 2532.4122,-592.6809 2546.4692,-573.0105"/>
<polygon fill="#242424" stroke="#242424" points="2549.5124,-574.7619 2552.2947,-564.5389 2543.7445,-570.7956 2549.5124,-574.7619"/>
</g>
<!-- fn/string&#45;wrap.js&#45;&gt;Ⓜ f&#45;utility/f&#45;utility.js -->
<g id="edge21" class="edge">
<title>fn/string&#45;wrap.js&#45;&gt;Ⓜ f&#45;utility/f&#45;utility.js</title>
<path fill="none" stroke="#242424" d="M2552.754,-405.5936C2537.7276,-382.7903 2518.3442,-360.2808 2494.607,-346.0838 2212.987,-177.6496 1201.3657,-142.6437 823.4068,-135.4109"/>
<polygon fill="#242424" stroke="#242424" points="823.2938,-131.9083 813.2299,-135.22 823.1624,-138.9071 823.2938,-131.9083"/>
</g>
<!-- index.js -->
<g id="node24" class="node">
<title>index.js</title>
<ellipse fill="none" stroke="#0c821d" stroke-width="4" cx="1411.607" cy="-47.0083" rx="47.0167" ry="47.0167"/>
<text text-anchor="middle" x="1411.607" y="-44.6083" font-family="Fira Code" font-size="12.00" fill="#0c821d">index.js</text>
</g>
</g>
</svg>
