<?xml version="1.0" encoding="UTF-8" standalone="no"?>
<!DOCTYPE svg PUBLIC "-//W3C//DTD SVG 1.1//EN"
 "http://www.w3.org/Graphics/SVG/1.1/DTD/svg11.dtd">
<!-- Generated by graphviz version 2.40.1 (20161225.0304)
 -->
<!-- Title: G Pages: 1 -->
<svg width="3139pt" height="1513pt"
 viewBox="0.00 0.00 3139.06 1512.54" xmlns="http://www.w3.org/2000/svg" xmlns:xlink="http://www.w3.org/1999/xlink">
<g id="graph0" class="graph" transform="scale(1 1) rotate(0) translate(7.992 1504.5492)">
<title>G</title>
<polygon fill="#eeeeff" stroke="transparent" points="-7.992,7.992 -7.992,-1504.5492 3131.0643,-1504.5492 3131.0643,7.992 -7.992,7.992"/>
<!-- cli/executable.js -->
<g id="node1" class="node">
<title>cli/executable.js</title>
<ellipse fill="none" stroke="#242424" stroke-width="4" cx="113.6762" cy="-485.065" rx="88.2923" ry="88.2923"/>
<text text-anchor="middle" x="113.6762" y="-482.665" font-family="Fira Code" font-size="12.00" fill="#242424">cli/executable.js</text>
</g>
<!-- Ⓜ commander/index.js -->
<g id="node2" class="node">
<title>Ⓜ commander/index.js</title>
<ellipse fill="none" stroke="#0c821d" stroke-width="4" cx="113.6762" cy="-133.5419" rx="113.8526" ry="113.8526"/>
<text text-anchor="middle" x="113.6762" y="-132.3419" font-family="Fira Code" font-size="12.00" fill="#0c821d">Ⓜ commander/index.js</text>
</g>
<!-- cli/executable.js&#45;&gt;Ⓜ commander/index.js -->
<g id="edge1" class="edge">
<title>cli/executable.js&#45;&gt;Ⓜ commander/index.js</title>
<path fill="none" stroke="#242424" d="M113.6762,-396.3609C113.6762,-354.383 113.6762,-303.5415 113.6762,-257.8035"/>
<polygon fill="#242424" stroke="#242424" points="117.1763,-257.5196 113.6762,-247.5196 110.1763,-257.5197 117.1763,-257.5196"/>
</g>
<!-- cli/index.js -->
<g id="node3" class="node">
<title>cli/index.js</title>
<ellipse fill="none" stroke="#242424" stroke-width="4" cx="229.6762" cy="-768.449" rx="65.3059" ry="65.3059"/>
<text text-anchor="middle" x="229.6762" y="-766.049" font-family="Fira Code" font-size="12.00" fill="#242424">cli/index.js</text>
</g>
<!-- cli/index.js&#45;&gt;cli/executable.js -->
<g id="edge3" class="edge">
<title>cli/index.js&#45;&gt;cli/executable.js</title>
<path fill="none" stroke="#242424" d="M204.7913,-707.656C189.131,-669.3986 168.627,-619.308 151.036,-576.3338"/>
<polygon fill="#242424" stroke="#242424" points="154.2414,-574.9252 147.2139,-566.9965 147.7631,-577.5771 154.2414,-574.9252"/>
</g>
<!-- Ⓜ f&#45;utility/f&#45;utility.js -->
<g id="node4" class="node">
<title>Ⓜ f&#45;utility/f&#45;utility.js</title>
<ellipse fill="none" stroke="#0c821d" stroke-width="4" cx="554.6762" cy="-133.5419" rx="133.5838" ry="133.5838"/>
<text text-anchor="middle" x="554.6762" y="-132.3419" font-family="Fira Code" font-size="12.00" fill="#0c821d">Ⓜ f&#45;utility/f&#45;utility.js</text>
</g>
<!-- cli/index.js&#45;&gt;Ⓜ f&#45;utility/f&#45;utility.js -->
<g id="edge2" class="edge">
<title>cli/index.js&#45;&gt;Ⓜ f&#45;utility/f&#45;utility.js</title>
<path fill="none" stroke="#242424" d="M225.6997,-703.1398C220.5676,-600.1536 215.8226,-405.6071 248.6762,-346.0838 286.8124,-276.9896 358.1057,-225.4772 422.2876,-190.4824"/>
<polygon fill="#242424" stroke="#242424" points="424.1334,-193.4641 431.2925,-185.654 420.8255,-187.295 424.1334,-193.4641"/>
</g>
<!-- cli/processor.js -->
<g id="node5" class="node">
<title>cli/processor.js</title>
<ellipse fill="none" stroke="#242424" stroke-width="4" cx="341.6762" cy="-485.065" rx="83.5954" ry="83.5954"/>
<text text-anchor="middle" x="341.6762" y="-482.665" font-family="Fira Code" font-size="12.00" fill="#242424">cli/processor.js</text>
</g>
<!-- cli/index.js&#45;&gt;cli/processor.js -->
<g id="edge4" class="edge">
<title>cli/index.js&#45;&gt;cli/processor.js</title>
<path fill="none" stroke="#242424" d="M253.8406,-707.3078C269.3874,-667.9711 289.8362,-616.2313 307.0913,-572.5722"/>
<polygon fill="#242424" stroke="#242424" points="310.4141,-573.6868 310.8348,-563.1004 303.9041,-571.1139 310.4141,-573.6868"/>
</g>
<!-- cli/processor.js&#45;&gt;Ⓜ f&#45;utility/f&#45;utility.js -->
<g id="edge5" class="edge">
<title>cli/processor.js&#45;&gt;Ⓜ f&#45;utility/f&#45;utility.js</title>
<path fill="none" stroke="#242424" d="M385.2939,-413.0808C412.5606,-368.0814 448.3949,-308.9425 480.0789,-256.6529"/>
<polygon fill="#242424" stroke="#242424" points="483.1408,-258.3536 485.3297,-247.9874 477.1541,-254.726 483.1408,-258.3536"/>
</g>
<!-- constants/empty.js -->
<g id="node6" class="node">
<title>constants/empty.js</title>
<ellipse fill="none" stroke="#0c821d" stroke-width="4" cx="2252.6762" cy="-1101.7839" rx="92.9895" ry="92.9895"/>
<text text-anchor="middle" x="2252.6762" y="-1099.3839" font-family="Fira Code" font-size="12.00" fill="#0c821d">constants/empty.js</text>
</g>
<!-- constants/index.js -->
<g id="node7" class="node">
<title>constants/index.js</title>
<ellipse fill="none" stroke="#242424" stroke-width="4" cx="2372.6762" cy="-1403.5625" rx="92.9895" ry="92.9895"/>
<text text-anchor="middle" x="2372.6762" y="-1401.1625" font-family="Fira Code" font-size="12.00" fill="#242424">constants/index.js</text>
</g>
<!-- constants/index.js&#45;&gt;constants/empty.js -->
<g id="edge6" class="edge">
<title>constants/index.js&#45;&gt;constants/empty.js</title>
<path fill="none" stroke="#242424" d="M2338.289,-1317.0848C2323.4766,-1279.8342 2306.1003,-1236.1359 2290.8867,-1197.8766"/>
<polygon fill="#242424" stroke="#242424" points="2294.0158,-1196.2732 2287.0684,-1188.2741 2287.5111,-1198.8597 2294.0158,-1196.2732"/>
</g>
<!-- constants/regex&#45;control.js -->
<g id="node8" class="node">
<title>constants/regex&#45;control.js</title>
<ellipse fill="none" stroke="#0c821d" stroke-width="4" cx="2493.6762" cy="-1101.7839" rx="129.5681" ry="129.5681"/>
<text text-anchor="middle" x="2493.6762" y="-1099.3839" font-family="Fira Code" font-size="12.00" fill="#0c821d">constants/regex&#45;control.js</text>
</g>
<!-- constants/index.js&#45;&gt;constants/regex&#45;control.js -->
<g id="edge7" class="edge">
<title>constants/index.js&#45;&gt;constants/regex&#45;control.js</title>
<path fill="none" stroke="#242424" d="M2407.3499,-1317.0848C2418.0309,-1290.446 2430.034,-1260.5098 2441.6162,-1231.6234"/>
<polygon fill="#242424" stroke="#242424" points="2444.8866,-1232.8714 2445.3596,-1222.2871 2438.3894,-1230.2663 2444.8866,-1232.8714"/>
</g>
<!-- decode.js -->
<g id="node9" class="node">
<title>decode.js</title>
<ellipse fill="none" stroke="#242424" stroke-width="4" cx="494.6762" cy="-485.065" rx="51.7142" ry="51.7142"/>
<text text-anchor="middle" x="494.6762" y="-482.665" font-family="Fira Code" font-size="12.00" fill="#242424">decode.js</text>
</g>
<!-- decode.js&#45;&gt;Ⓜ f&#45;utility/f&#45;utility.js -->
<g id="edge8" class="edge">
<title>decode.js&#45;&gt;Ⓜ f&#45;utility/f&#45;utility.js</title>
<path fill="none" stroke="#242424" d="M503.4007,-433.9505C510.4987,-392.3655 520.8703,-331.6009 530.4316,-275.5841"/>
<polygon fill="#242424" stroke="#242424" points="533.9117,-275.997 532.1442,-265.5506 527.0115,-274.8191 533.9117,-275.997"/>
</g>
<!-- encode.js -->
<g id="node10" class="node">
<title>encode.js</title>
<ellipse fill="none" stroke="#242424" stroke-width="4" cx="615.6762" cy="-485.065" rx="51.7142" ry="51.7142"/>
<text text-anchor="middle" x="615.6762" y="-482.665" font-family="Fira Code" font-size="12.00" fill="#242424">encode.js</text>
</g>
<!-- encode.js&#45;&gt;Ⓜ f&#45;utility/f&#45;utility.js -->
<g id="edge9" class="edge">
<title>encode.js&#45;&gt;Ⓜ f&#45;utility/f&#45;utility.js</title>
<path fill="none" stroke="#242424" d="M606.8063,-433.9505C599.5744,-392.2757 588.9999,-331.3383 579.2619,-275.2212"/>
<polygon fill="#242424" stroke="#242424" points="582.6761,-274.4248 577.5178,-265.1705 575.7791,-275.6216 582.6761,-274.4248"/>
</g>
<!-- fn/alter&#45;range.js -->
<g id="node11" class="node">
<title>fn/alter&#45;range.js</title>
<ellipse fill="none" stroke="#0c821d" stroke-width="4" cx="773.6762" cy="-485.065" rx="88.2923" ry="88.2923"/>
<text text-anchor="middle" x="773.6762" y="-482.665" font-family="Fira Code" font-size="12.00" fill="#0c821d">fn/alter&#45;range.js</text>
</g>
<!-- fn/char&#45;code&#45;at.js -->
<g id="node12" class="node">
<title>fn/char&#45;code&#45;at.js</title>
<ellipse fill="none" stroke="#0c821d" stroke-width="4" cx="972.6762" cy="-485.065" rx="92.9895" ry="92.9895"/>
<text text-anchor="middle" x="972.6762" y="-482.665" font-family="Fira Code" font-size="12.00" fill="#0c821d">fn/char&#45;code&#45;at.js</text>
</g>
<!-- fn/character&#45;edge.js -->
<g id="node13" class="node">
<title>fn/character&#45;edge.js</title>
<ellipse fill="none" stroke="#0c821d" stroke-width="4" cx="1185.6762" cy="-485.065" rx="102.3844" ry="102.3844"/>
<text text-anchor="middle" x="1185.6762" y="-482.665" font-family="Fira Code" font-size="12.00" fill="#0c821d">fn/character&#45;edge.js</text>
</g>
<!-- fn/control&#45;split.js -->
<g id="node14" class="node">
<title>fn/control&#45;split.js</title>
<ellipse fill="none" stroke="#0c821d" stroke-width="4" cx="1403.6762" cy="-485.065" rx="97.6868" ry="97.6868"/>
<text text-anchor="middle" x="1403.6762" y="-482.665" font-family="Fira Code" font-size="12.00" fill="#0c821d">fn/control&#45;split.js</text>
</g>
<!-- fn/convert&#45;to&#45;ascii.js -->
<g id="node15" class="node">
<title>fn/convert&#45;to&#45;ascii.js</title>
<ellipse fill="none" stroke="#242424" stroke-width="4" cx="1630.6762" cy="-485.065" rx="111.2787" ry="111.2787"/>
<text text-anchor="middle" x="1630.6762" y="-482.665" font-family="Fira Code" font-size="12.00" fill="#242424">fn/convert&#45;to&#45;ascii.js</text>
</g>
<!-- fn/convert&#45;to&#45;ascii.js&#45;&gt;Ⓜ f&#45;utility/f&#45;utility.js -->
<g id="edge10" class="edge">
<title>fn/convert&#45;to&#45;ascii.js&#45;&gt;Ⓜ f&#45;utility/f&#45;utility.js</title>
<path fill="none" stroke="#242424" d="M1566.6444,-393.6327C1550.2473,-375.5829 1531.3361,-358.4305 1510.6762,-346.0838 1374.5057,-264.7066 928.9151,-189.0371 697.332,-153.991"/>
<polygon fill="#242424" stroke="#242424" points="697.5574,-150.4855 687.1473,-152.4551 696.5135,-157.4073 697.5574,-150.4855"/>
</g>
<!-- fn/hex&#45;char&#45;code.js -->
<g id="node16" class="node">
<title>fn/hex&#45;char&#45;code.js</title>
<ellipse fill="none" stroke="#0c821d" stroke-width="4" cx="1857.6762" cy="-485.065" rx="97.6868" ry="97.6868"/>
<text text-anchor="middle" x="1857.6762" y="-482.665" font-family="Fira Code" font-size="12.00" fill="#0c821d">fn/hex&#45;char&#45;code.js</text>
</g>
<!-- fn/index.js -->
<g id="node17" class="node">
<title>fn/index.js</title>
<ellipse fill="none" stroke="#242424" stroke-width="4" cx="1959.6762" cy="-768.449" rx="60.6091" ry="60.6091"/>
<text text-anchor="middle" x="1959.6762" y="-766.049" font-family="Fira Code" font-size="12.00" fill="#242424">fn/index.js</text>
</g>
<!-- fn/index.js&#45;&gt;fn/alter&#45;range.js -->
<g id="edge11" class="edge">
<title>fn/index.js&#45;&gt;fn/alter&#45;range.js</title>
<path fill="none" stroke="#242424" d="M1898.6565,-766.7362C1695.6445,-760.0703 1045.9222,-730.6829 870.6762,-624.0461 850.1115,-611.5325 832.7842,-592.8228 818.7253,-573.1553"/>
<polygon fill="#242424" stroke="#242424" points="821.45,-570.9403 812.9003,-564.683 815.6817,-574.9062 821.45,-570.9403"/>
</g>
<!-- fn/index.js&#45;&gt;fn/char&#45;code&#45;at.js -->
<g id="edge12" class="edge">
<title>fn/index.js&#45;&gt;fn/char&#45;code&#45;at.js</title>
<path fill="none" stroke="#242424" d="M1898.9841,-764.498C1722.7063,-752.1086 1214.3881,-709.6478 1074.6762,-624.0461 1054.6906,-611.8009 1037.3874,-594.0417 1022.9957,-575.288"/>
<polygon fill="#242424" stroke="#242424" points="1025.7715,-573.1552 1017.0067,-567.2029 1020.1466,-577.3218 1025.7715,-573.1552"/>
</g>
<!-- fn/index.js&#45;&gt;fn/character&#45;edge.js -->
<g id="edge13" class="edge">
<title>fn/index.js&#45;&gt;fn/character&#45;edge.js</title>
<path fill="none" stroke="#242424" d="M1899.2522,-760.554C1755.631,-740.963 1398.2569,-687.1196 1296.6762,-624.0461 1278.0214,-612.463 1261.1657,-596.5914 1246.549,-579.7076"/>
<polygon fill="#242424" stroke="#242424" points="1249.1004,-577.3031 1239.9924,-571.8907 1243.7372,-581.8016 1249.1004,-577.3031"/>
</g>
<!-- fn/index.js&#45;&gt;fn/control&#45;split.js -->
<g id="edge14" class="edge">
<title>fn/index.js&#45;&gt;fn/control&#45;split.js</title>
<path fill="none" stroke="#242424" d="M1898.9946,-760.6587C1807.6068,-746.4936 1632.4091,-709.6587 1510.6762,-624.0461 1492.3162,-611.1338 1475.6582,-594.135 1461.2442,-576.4734"/>
<polygon fill="#242424" stroke="#242424" points="1463.7375,-573.9846 1454.7814,-568.3243 1458.2529,-578.3343 1463.7375,-573.9846"/>
</g>
<!-- fn/index.js&#45;&gt;fn/convert&#45;to&#45;ascii.js -->
<g id="edge15" class="edge">
<title>fn/index.js&#45;&gt;fn/convert&#45;to&#45;ascii.js</title>
<path fill="none" stroke="#242424" d="M1907.1718,-737.4099C1863.1966,-710.2215 1799.903,-668.2406 1750.6762,-624.0461 1735.6929,-610.5946 1720.7981,-595.3201 1706.8602,-579.9411"/>
<polygon fill="#242424" stroke="#242424" points="1709.3772,-577.5052 1700.0987,-572.3905 1704.1625,-582.175 1709.3772,-577.5052"/>
</g>
<!-- fn/index.js&#45;&gt;fn/hex&#45;char&#45;code.js -->
<g id="edge16" class="edge">
<title>fn/index.js&#45;&gt;fn/hex&#45;char&#45;code.js</title>
<path fill="none" stroke="#242424" d="M1939.035,-711.102C1926.1546,-675.3168 1909.2122,-628.2463 1894.1243,-586.328"/>
<polygon fill="#242424" stroke="#242424" points="1897.4153,-585.1363 1890.7354,-576.9126 1890.829,-587.507 1897.4153,-585.1363"/>
</g>
<!-- fn/magic&#45;range.js -->
<g id="node18" class="node">
<title>fn/magic&#45;range.js</title>
<ellipse fill="none" stroke="#0c821d" stroke-width="4" cx="2061.6762" cy="-485.065" rx="88.2923" ry="88.2923"/>
<text text-anchor="middle" x="2061.6762" y="-482.665" font-family="Fira Code" font-size="12.00" fill="#0c821d">fn/magic&#45;range.js</text>
</g>
<!-- fn/index.js&#45;&gt;fn/magic&#45;range.js -->
<g id="edge17" class="edge">
<title>fn/index.js&#45;&gt;fn/magic&#45;range.js</title>
<path fill="none" stroke="#242424" d="M1980.3174,-711.102C1994.0654,-672.9061 2012.4411,-621.8534 2028.2501,-577.9318"/>
<polygon fill="#242424" stroke="#242424" points="2031.5922,-578.981 2031.6857,-568.3866 2025.0059,-576.6103 2031.5922,-578.981"/>
</g>
<!-- fn/map&#45;wrap.js -->
<g id="node19" class="node">
<title>fn/map&#45;wrap.js</title>
<ellipse fill="none" stroke="#0c821d" stroke-width="4" cx="2242.6762" cy="-485.065" rx="74.7005" ry="74.7005"/>
<text text-anchor="middle" x="2242.6762" y="-482.665" font-family="Fira Code" font-size="12.00" fill="#0c821d">fn/map&#45;wrap.js</text>
</g>
<!-- fn/index.js&#45;&gt;fn/map&#45;wrap.js -->
<g id="edge18" class="edge">
<title>fn/index.js&#45;&gt;fn/map&#45;wrap.js</title>
<path fill="none" stroke="#242424" d="M2012.7834,-738.1315C2055.6858,-711.8293 2115.7769,-670.7131 2158.6762,-624.0461 2175.8652,-605.3475 2191.3587,-582.5981 2204.2214,-560.9644"/>
<polygon fill="#242424" stroke="#242424" points="2207.3762,-562.5021 2209.3858,-552.0996 2201.3277,-558.9785 2207.3762,-562.5021"/>
</g>
<!-- fn/match.js -->
<g id="node20" class="node">
<title>fn/match.js</title>
<ellipse fill="none" stroke="#0c821d" stroke-width="4" cx="2395.6762" cy="-485.065" rx="60.6091" ry="60.6091"/>
<text text-anchor="middle" x="2395.6762" y="-482.665" font-family="Fira Code" font-size="12.00" fill="#0c821d">fn/match.js</text>
</g>
<!-- fn/index.js&#45;&gt;fn/match.js -->
<g id="edge19" class="edge">
<title>fn/index.js&#45;&gt;fn/match.js</title>
<path fill="none" stroke="#242424" d="M2019.7944,-758.625C2098.9088,-742.8967 2238.2607,-705.1706 2326.6762,-624.0461 2347.6211,-604.8283 2363.0226,-577.8407 2373.8919,-552.7534"/>
<polygon fill="#242424" stroke="#242424" points="2377.2348,-553.8294 2377.8379,-543.2517 2370.7702,-551.1446 2377.2348,-553.8294"/>
</g>
<!-- fn/ninth&#45;bit.js -->
<g id="node21" class="node">
<title>fn/ninth&#45;bit.js</title>
<ellipse fill="none" stroke="#0c821d" stroke-width="4" cx="2553.6762" cy="-485.065" rx="79.3981" ry="79.3981"/>
<text text-anchor="middle" x="2553.6762" y="-482.665" font-family="Fira Code" font-size="12.00" fill="#0c821d">fn/ninth&#45;bit.js</text>
</g>
<!-- fn/index.js&#45;&gt;fn/ninth&#45;bit.js -->
<g id="edge20" class="edge">
<title>fn/index.js&#45;&gt;fn/ninth&#45;bit.js</title>
<path fill="none" stroke="#242424" d="M2020.7319,-764.8968C2122.4901,-756.1724 2329.0559,-726.2262 2465.6762,-624.0461 2485.8772,-608.9375 2502.6145,-587.709 2515.8734,-566.3826"/>
<polygon fill="#242424" stroke="#242424" points="2519.0123,-567.9536 2521.1556,-557.5778 2513.0097,-564.3525 2519.0123,-567.9536"/>
</g>
<!-- fn/parse&#45;binary&#45;char&#45;code.js -->
<g id="node22" class="node">
<title>fn/parse&#45;binary&#45;char&#45;code.js</title>
<ellipse fill="none" stroke="#0c821d" stroke-width="4" cx="2789.6762" cy="-485.065" rx="138.9623" ry="138.9623"/>
<text text-anchor="middle" x="2789.6762" y="-482.665" font-family="Fira Code" font-size="12.00" fill="#0c821d">fn/parse&#45;binary&#45;char&#45;code.js</text>
</g>
<!-- fn/index.js&#45;&gt;fn/parse&#45;binary&#45;char&#45;code.js -->
<g id="edge21" class="edge">
<title>fn/index.js&#45;&gt;fn/parse&#45;binary&#45;char&#45;code.js</title>
<path fill="none" stroke="#242424" d="M2020.8032,-766.4192C2144.8085,-760.0348 2431.9491,-733.5837 2641.6762,-624.0461 2657.493,-615.7852 2672.8419,-605.3565 2687.2894,-593.9404"/>
<polygon fill="#242424" stroke="#242424" points="2689.6611,-596.5232 2695.2203,-587.504 2685.25,-591.0879 2689.6611,-596.5232"/>
</g>
<!-- fn/string&#45;wrap.js -->
<g id="node23" class="node">
<title>fn/string&#45;wrap.js</title>
<ellipse fill="none" stroke="#242424" stroke-width="4" cx="3034.6762" cy="-485.065" rx="88.2923" ry="88.2923"/>
<text text-anchor="middle" x="3034.6762" y="-482.665" font-family="Fira Code" font-size="12.00" fill="#242424">fn/string&#45;wrap.js</text>
</g>
<!-- fn/index.js&#45;&gt;fn/string&#45;wrap.js -->
<g id="edge22" class="edge">
<title>fn/index.js&#45;&gt;fn/string&#45;wrap.js</title>
<path fill="none" stroke="#242424" d="M2020.693,-765.7017C2209.7565,-756.2342 2782.4126,-720.1009 2937.6762,-624.0461 2958.148,-611.3811 2975.4418,-592.6167 2989.498,-572.945"/>
<polygon fill="#242424" stroke="#242424" points="2992.5411,-574.6967 2995.3237,-564.4738 2986.7733,-570.7301 2992.5411,-574.6967"/>
</g>
<!-- fn/string&#45;wrap.js&#45;&gt;Ⓜ f&#45;utility/f&#45;utility.js -->
<g id="edge23" class="edge">
<title>fn/string&#45;wrap.js&#45;&gt;Ⓜ f&#45;utility/f&#45;utility.js</title>
<path fill="none" stroke="#242424" d="M2996.056,-405.1982C2981.042,-382.3737 2961.6072,-359.9517 2937.6762,-346.0838 2743.8163,-233.7429 1183.8109,-159.7839 698.3404,-139.3148"/>
<polygon fill="#242424" stroke="#242424" points="698.2583,-135.8084 688.1201,-138.8851 697.9642,-142.8022 698.2583,-135.8084"/>
</g>
<!-- index.js -->
<g id="node24" class="node">
<title>index.js</title>
<ellipse fill="none" stroke="#0c821d" stroke-width="4" cx="1666.6762" cy="-47.0083" rx="47.0167" ry="47.0167"/>
<text text-anchor="middle" x="1666.6762" y="-44.6083" font-family="Fira Code" font-size="12.00" fill="#0c821d">index.js</text>
</g>
</g>
</svg>
