<?xml version="1.0" encoding="UTF-8" standalone="no"?>
<!DOCTYPE svg PUBLIC "-//W3C//DTD SVG 1.1//EN"
 "http://www.w3.org/Graphics/SVG/1.1/DTD/svg11.dtd">
<!-- Generated by graphviz version 2.40.1 (20161225.0304)
 -->
<!-- Title: G Pages: 1 -->
<svg width="2552pt" height="2910pt"
 viewBox="0.00 0.00 2552.36 2909.94" xmlns="http://www.w3.org/2000/svg" xmlns:xlink="http://www.w3.org/1999/xlink">
<g id="graph0" class="graph" transform="scale(1 1) rotate(0) translate(7.992 2901.9524)">
<title>G</title>
<polygon fill="#eeeeff" stroke="transparent" points="-7.992,7.992 -7.992,-2901.9524 2544.3673,-2901.9524 2544.3673,7.992 -7.992,7.992"/>
<!-- cli/cmd.js -->
<g id="node1" class="node">
<title>cli/cmd.js</title>
<ellipse fill="none" stroke="#242424" stroke-width="4" cx="171.6762" cy="-2171.5484" rx="56.412" ry="56.412"/>
<text text-anchor="middle" x="171.6762" y="-2169.1484" font-family="Fira Code" font-size="12.00" fill="#242424">cli/cmd.js</text>
</g>
<!-- Ⓜ commander/index.js -->
<g id="node2" class="node">
<title>Ⓜ commander/index.js</title>
<ellipse fill="none" stroke="#0c821d" stroke-width="4" cx="113.6762" cy="-1895.0747" rx="113.8526" ry="113.8526"/>
<text text-anchor="middle" x="113.6762" y="-1893.8747" font-family="Fira Code" font-size="12.00" fill="#0c821d">Ⓜ commander/index.js</text>
</g>
<!-- cli/cmd.js&#45;&gt;Ⓜ commander/index.js -->
<g id="edge1" class="edge">
<title>cli/cmd.js&#45;&gt;Ⓜ commander/index.js</title>
<path fill="none" stroke="#242424" d="M160.0784,-2116.2643C154.0758,-2087.6511 146.4947,-2051.5137 139.2097,-2016.7875"/>
<polygon fill="#242424" stroke="#242424" points="142.5414,-2015.622 137.0628,-2006.5537 135.6906,-2017.0592 142.5414,-2015.622"/>
</g>
<!-- cli/executable.js -->
<g id="node3" class="node">
<title>cli/executable.js</title>
<ellipse fill="none" stroke="#242424" stroke-width="4" cx="294.6762" cy="-2422.7419" rx="88.2923" ry="88.2923"/>
<text text-anchor="middle" x="294.6762" y="-2420.3419" font-family="Fira Code" font-size="12.00" fill="#242424">cli/executable.js</text>
</g>
<!-- cli/executable.js&#45;&gt;cli/cmd.js -->
<g id="edge3" class="edge">
<title>cli/executable.js&#45;&gt;cli/cmd.js</title>
<path fill="none" stroke="#242424" d="M255.7582,-2343.2627C238.0024,-2307.0013 217.3302,-2264.7841 200.9266,-2231.2843"/>
<polygon fill="#242424" stroke="#242424" points="203.9603,-2229.5208 196.4191,-2222.0789 197.6735,-2232.5993 203.9603,-2229.5208"/>
</g>
<!-- Ⓜ f&#45;utility/f&#45;utility.js -->
<g id="node4" class="node">
<title>Ⓜ f&#45;utility/f&#45;utility.js</title>
<ellipse fill="none" stroke="#0c821d" stroke-width="4" cx="617.6762" cy="-133.5419" rx="133.5838" ry="133.5838"/>
<text text-anchor="middle" x="617.6762" y="-132.3419" font-family="Fira Code" font-size="12.00" fill="#0c821d">Ⓜ f&#45;utility/f&#45;utility.js</text>
</g>
<!-- cli/executable.js&#45;&gt;Ⓜ f&#45;utility/f&#45;utility.js -->
<g id="edge2" class="edge">
<title>cli/executable.js&#45;&gt;Ⓜ f&#45;utility/f&#45;utility.js</title>
<path fill="none" stroke="#242424" d="M284.1736,-2334.6604C272.6224,-2230.0178 255.6762,-2050.0864 255.6762,-1895.0747 255.6762,-1895.0747 255.6762,-1895.0747 255.6762,-740.8572 255.6762,-665.0072 316.7261,-378.8774 337.6762,-346.0838 375.5691,-286.7693 436.1476,-237.7612 491.2812,-201.8117"/>
<polygon fill="#242424" stroke="#242424" points="493.2092,-204.7331 499.7252,-196.3789 489.4216,-198.8463 493.2092,-204.7331"/>
</g>
<!-- cli/processor.js -->
<g id="node5" class="node">
<title>cli/processor.js</title>
<ellipse fill="none" stroke="#242424" stroke-width="4" cx="414.6762" cy="-2171.5484" rx="83.5954" ry="83.5954"/>
<text text-anchor="middle" x="414.6762" y="-2169.1484" font-family="Fira Code" font-size="12.00" fill="#242424">cli/processor.js</text>
</g>
<!-- cli/executable.js&#45;&gt;cli/processor.js -->
<g id="edge4" class="edge">
<title>cli/executable.js&#45;&gt;cli/processor.js</title>
<path fill="none" stroke="#242424" d="M332.8098,-2342.9176C345.943,-2315.426 360.6955,-2284.545 374.0221,-2256.6488"/>
<polygon fill="#242424" stroke="#242424" points="377.33,-2257.8439 378.4825,-2247.3119 371.0137,-2254.8265 377.33,-2257.8439"/>
</g>
<!-- cli/processor.js&#45;&gt;Ⓜ f&#45;utility/f&#45;utility.js -->
<g id="edge8" class="edge">
<title>cli/processor.js&#45;&gt;Ⓜ f&#45;utility/f&#45;utility.js</title>
<path fill="none" stroke="#242424" d="M362.6906,-2105.6702C343.365,-2077.4435 323.5173,-2043.1018 312.6762,-2008.7509 263.4985,-1852.9279 293.6762,-1804.9934 293.6762,-1641.5943 293.6762,-1641.5943 293.6762,-1641.5943 293.6762,-740.8572 293.6762,-546.3539 424.6431,-353.6856 520.0441,-239.141"/>
<polygon fill="#242424" stroke="#242424" points="522.8173,-241.2811 526.5619,-231.37 517.454,-236.7827 522.8173,-241.2811"/>
</g>
<!-- Ⓜ fluture/index.js -->
<g id="node7" class="node">
<title>Ⓜ fluture/index.js</title>
<ellipse fill="none" stroke="#0c821d" stroke-width="4" cx="425.6762" cy="-1895.0747" rx="103.9872" ry="103.9872"/>
<text text-anchor="middle" x="425.6762" y="-1893.8747" font-family="Fira Code" font-size="12.00" fill="#0c821d">Ⓜ fluture/index.js</text>
</g>
<!-- cli/processor.js&#45;&gt;Ⓜ fluture/index.js -->
<g id="edge9" class="edge">
<title>cli/processor.js&#45;&gt;Ⓜ fluture/index.js</title>
<path fill="none" stroke="#242424" d="M418.0213,-2087.4711C419.0078,-2062.6779 420.1041,-2035.1237 421.1516,-2008.7953"/>
<polygon fill="#242424" stroke="#242424" points="424.6499,-2008.9043 421.5504,-1998.773 417.6555,-2008.6259 424.6499,-2008.9043"/>
</g>
<!-- decode.js -->
<g id="node8" class="node">
<title>decode.js</title>
<ellipse fill="none" stroke="#242424" stroke-width="4" cx="598.6762" cy="-1895.0747" rx="51.7142" ry="51.7142"/>
<text text-anchor="middle" x="598.6762" y="-1892.6747" font-family="Fira Code" font-size="12.00" fill="#242424">decode.js</text>
</g>
<!-- cli/processor.js&#45;&gt;decode.js -->
<g id="edge10" class="edge">
<title>cli/processor.js&#45;&gt;decode.js</title>
<path fill="none" stroke="#242424" d="M467.9124,-2106.8011C490.8491,-2077.6409 517.2604,-2042.2883 538.6762,-2008.7509 550.3909,-1990.4055 561.8889,-1969.5374 571.6347,-1950.7321"/>
<polygon fill="#242424" stroke="#242424" points="574.8246,-1952.1818 576.2716,-1941.6862 568.5953,-1948.9887 574.8246,-1952.1818"/>
</g>
<!-- encode.js -->
<g id="node9" class="node">
<title>encode.js</title>
<ellipse fill="none" stroke="#242424" stroke-width="4" cx="719.6762" cy="-1895.0747" rx="51.7142" ry="51.7142"/>
<text text-anchor="middle" x="719.6762" y="-1892.6747" font-family="Fira Code" font-size="12.00" fill="#242424">encode.js</text>
</g>
<!-- cli/processor.js&#45;&gt;encode.js -->
<g id="edge11" class="edge">
<title>cli/processor.js&#45;&gt;encode.js</title>
<path fill="none" stroke="#242424" d="M489.9068,-2134.5404C542.4631,-2105.818 611.5614,-2061.9795 659.6762,-2008.7509 674.5324,-1992.3157 686.8895,-1971.5319 696.4516,-1952.244"/>
<polygon fill="#242424" stroke="#242424" points="699.613,-1953.7458 700.7832,-1943.2158 693.3018,-1950.7178 699.613,-1953.7458"/>
</g>
<!-- cli/index.js -->
<g id="node6" class="node">
<title>cli/index.js</title>
<ellipse fill="none" stroke="#242424" stroke-width="4" cx="354.6762" cy="-2655.5409" rx="65.3059" ry="65.3059"/>
<text text-anchor="middle" x="354.6762" y="-2653.1409" font-family="Fira Code" font-size="12.00" fill="#242424">cli/index.js</text>
</g>
<!-- cli/index.js&#45;&gt;cli/cmd.js -->
<g id="edge5" class="edge">
<title>cli/index.js&#45;&gt;cli/cmd.js</title>
<path fill="none" stroke="#242424" d="M299.1894,-2620.8104C263.5493,-2595.2076 219.9069,-2556.9494 197.6762,-2511.138 155.2951,-2423.8023 156.5797,-2308.8188 162.9538,-2237.5686"/>
<polygon fill="#242424" stroke="#242424" points="166.46,-2237.6696 163.9266,-2227.3821 159.4917,-2237.0041 166.46,-2237.6696"/>
</g>
<!-- cli/index.js&#45;&gt;cli/executable.js -->
<g id="edge6" class="edge">
<title>cli/index.js&#45;&gt;cli/executable.js</title>
<path fill="none" stroke="#242424" d="M338.2809,-2591.9275C332.4304,-2569.2276 325.7041,-2543.1296 319.3134,-2518.3337"/>
<polygon fill="#242424" stroke="#242424" points="322.674,-2517.3491 316.7889,-2508.5391 315.8955,-2519.0962 322.674,-2517.3491"/>
</g>
<!-- cli/index.js&#45;&gt;cli/processor.js -->
<g id="edge7" class="edge">
<title>cli/index.js&#45;&gt;cli/processor.js</title>
<path fill="none" stroke="#242424" d="M373.4188,-2592.8056C380.2354,-2567.6365 387.3266,-2538.2236 391.6762,-2511.138 404.888,-2428.8663 410.5234,-2334.1949 412.9204,-2265.7459"/>
<polygon fill="#242424" stroke="#242424" points="416.4295,-2265.528 413.2645,-2255.417 409.4334,-2265.2948 416.4295,-2265.528"/>
</g>
<!-- decode.js&#45;&gt;Ⓜ f&#45;utility/f&#45;utility.js -->
<g id="edge14" class="edge">
<title>decode.js&#45;&gt;Ⓜ f&#45;utility/f&#45;utility.js</title>
<path fill="none" stroke="#242424" d="M592.5708,-1843.7795C581.8291,-1748.9538 560.6762,-1539.756 560.6762,-1362.8089 560.6762,-1362.8089 560.6762,-1362.8089 560.6762,-740.8572 560.6762,-581.2004 580.4448,-398.9634 596.6981,-276.1136"/>
<polygon fill="#242424" stroke="#242424" points="600.2081,-276.2702 598.06,-265.8954 593.2695,-275.3453 600.2081,-276.2702"/>
</g>
<!-- constants/empty.js -->
<g id="node10" class="node">
<title>constants/empty.js</title>
<ellipse fill="none" stroke="#0c821d" stroke-width="4" cx="931.6762" cy="-439.0786" rx="92.9895" ry="92.9895"/>
<text text-anchor="middle" x="931.6762" y="-436.6786" font-family="Fira Code" font-size="12.00" fill="#0c821d">constants/empty.js</text>
</g>
<!-- decode.js&#45;&gt;constants/empty.js -->
<g id="edge15" class="edge">
<title>decode.js&#45;&gt;constants/empty.js</title>
<path fill="none" stroke="#242424" d="M593.6488,-1843.5C578.3565,-1662.6858 545.9625,-1045.0202 765.6762,-611.0733 786.1545,-570.6273 819.3835,-533.3806 850.752,-503.9677"/>
<polygon fill="#242424" stroke="#242424" points="853.2766,-506.4006 858.2529,-497.0472 848.5299,-501.2558 853.2766,-506.4006"/>
</g>
<!-- fn/index.js -->
<g id="node13" class="node">
<title>fn/index.js</title>
<ellipse fill="none" stroke="#242424" stroke-width="4" cx="1592.6762" cy="-1641.5943" rx="60.6091" ry="60.6091"/>
<text text-anchor="middle" x="1592.6762" y="-1639.1943" font-family="Fira Code" font-size="12.00" fill="#242424">fn/index.js</text>
</g>
<!-- decode.js&#45;&gt;fn/index.js -->
<g id="edge16" class="edge">
<title>decode.js&#45;&gt;fn/index.js</title>
<path fill="none" stroke="#242424" d="M613.224,-1845.4505C622.5268,-1822.4038 637.0147,-1796.7605 658.6762,-1781.3986 797.8677,-1682.6863 1328.1885,-1652.0712 1521.5719,-1644.0752"/>
<polygon fill="#242424" stroke="#242424" points="1521.7747,-1647.57 1531.6246,-1643.6675 1521.4909,-1640.5757 1521.7747,-1647.57"/>
</g>
<!-- encode.js&#45;&gt;Ⓜ f&#45;utility/f&#45;utility.js -->
<g id="edge17" class="edge">
<title>encode.js&#45;&gt;Ⓜ f&#45;utility/f&#45;utility.js</title>
<path fill="none" stroke="#242424" d="M710.0656,-1844.0834C696.4205,-1769.3132 671.8505,-1625.3901 660.6762,-1501.7901 620.442,-1056.7589 616.1129,-527.3797 616.6509,-277.6073"/>
<polygon fill="#242424" stroke="#242424" points="620.1513,-277.3915 616.6759,-267.3829 613.1513,-277.3742 620.1513,-277.3915"/>
</g>
<!-- encode.js&#45;&gt;fn/index.js -->
<g id="edge18" class="edge">
<title>encode.js&#45;&gt;fn/index.js</title>
<path fill="none" stroke="#242424" d="M766.9518,-1873.5507C822.509,-1848.8538 917.8917,-1808.3061 1002.6762,-1781.3986 1187.2986,-1722.8059 1411.3317,-1676.2153 1522.7389,-1654.6441"/>
<polygon fill="#242424" stroke="#242424" points="1523.682,-1658.0268 1532.8389,-1652.6974 1522.3572,-1651.1533 1523.682,-1658.0268"/>
</g>
<!-- constants/index.js -->
<g id="node11" class="node">
<title>constants/index.js</title>
<ellipse fill="none" stroke="#242424" stroke-width="4" cx="814.6762" cy="-1047.2344" rx="92.9895" ry="92.9895"/>
<text text-anchor="middle" x="814.6762" y="-1044.8344" font-family="Fira Code" font-size="12.00" fill="#242424">constants/index.js</text>
</g>
<!-- constants/index.js&#45;&gt;constants/empty.js -->
<g id="edge12" class="edge">
<title>constants/index.js&#45;&gt;constants/empty.js</title>
<path fill="none" stroke="#242424" d="M790.563,-957.0573C770.8831,-866.7844 752.3013,-725.2661 792.6762,-611.0733 805.8928,-573.6925 831.0663,-538.4813 856.399,-509.7724"/>
<polygon fill="#242424" stroke="#242424" points="859.0955,-512.0083 863.1857,-502.2348 853.8934,-507.3244 859.0955,-512.0083"/>
</g>
<!-- constants/regex&#45;control.js -->
<g id="node12" class="node">
<title>constants/regex&#45;control.js</title>
<ellipse fill="none" stroke="#0c821d" stroke-width="4" cx="931.6762" cy="-740.8572" rx="129.5681" ry="129.5681"/>
<text text-anchor="middle" x="931.6762" y="-738.4572" font-family="Fira Code" font-size="12.00" fill="#0c821d">constants/regex&#45;control.js</text>
</g>
<!-- constants/index.js&#45;&gt;constants/regex&#45;control.js -->
<g id="edge13" class="edge">
<title>constants/index.js&#45;&gt;constants/regex&#45;control.js</title>
<path fill="none" stroke="#242424" d="M847.8907,-960.2585C858.3761,-932.8013 870.2035,-901.8299 881.5959,-871.9979"/>
<polygon fill="#242424" stroke="#242424" points="884.9792,-872.9487 885.2771,-862.3581 878.4398,-870.4514 884.9792,-872.9487"/>
</g>
<!-- fn/alter&#45;range.js -->
<g id="node14" class="node">
<title>fn/alter&#45;range.js</title>
<ellipse fill="none" stroke="#0c821d" stroke-width="4" cx="1989.6762" cy="-1362.8089" rx="88.2923" ry="88.2923"/>
<text text-anchor="middle" x="1989.6762" y="-1360.4089" font-family="Fira Code" font-size="12.00" fill="#0c821d">fn/alter&#45;range.js</text>
</g>
<!-- fn/index.js&#45;&gt;fn/alter&#45;range.js -->
<g id="edge25" class="edge">
<title>fn/index.js&#45;&gt;fn/alter&#45;range.js</title>
<path fill="none" stroke="#242424" d="M1650.9526,-1623.6269C1714.1654,-1602.0686 1815.6696,-1561.2337 1887.6762,-1501.7901 1906.4406,-1486.2994 1923.5739,-1466.631 1938.2196,-1447.0005"/>
<polygon fill="#242424" stroke="#242424" points="1941.0631,-1449.0412 1944.1292,-1438.8997 1935.408,-1444.9157 1941.0631,-1449.0412"/>
</g>
<!-- fn/char&#45;code&#45;at.js -->
<g id="node15" class="node">
<title>fn/char&#45;code&#45;at.js</title>
<ellipse fill="none" stroke="#0c821d" stroke-width="4" cx="2188.6762" cy="-1362.8089" rx="92.9895" ry="92.9895"/>
<text text-anchor="middle" x="2188.6762" y="-1360.4089" font-family="Fira Code" font-size="12.00" fill="#0c821d">fn/char&#45;code&#45;at.js</text>
</g>
<!-- fn/index.js&#45;&gt;fn/char&#45;code&#45;at.js -->
<g id="edge26" class="edge">
<title>fn/index.js&#45;&gt;fn/char&#45;code&#45;at.js</title>
<path fill="none" stroke="#242424" d="M1653.5321,-1637.0752C1752.4847,-1627.1202 1950.8465,-1596.0647 2086.6762,-1501.7901 2105.5462,-1488.693 2122.2693,-1470.958 2136.4367,-1452.5428"/>
<polygon fill="#242424" stroke="#242424" points="2139.5975,-1454.1585 2142.7648,-1444.0481 2133.9839,-1449.9766 2139.5975,-1454.1585"/>
</g>
<!-- fn/character&#45;edge.js -->
<g id="node16" class="node">
<title>fn/character&#45;edge.js</title>
<ellipse fill="none" stroke="#0c821d" stroke-width="4" cx="2401.6762" cy="-1362.8089" rx="102.3844" ry="102.3844"/>
<text text-anchor="middle" x="2401.6762" y="-1360.4089" font-family="Fira Code" font-size="12.00" fill="#0c821d">fn/character&#45;edge.js</text>
</g>
<!-- fn/index.js&#45;&gt;fn/character&#45;edge.js -->
<g id="edge27" class="edge">
<title>fn/index.js&#45;&gt;fn/character&#45;edge.js</title>
<path fill="none" stroke="#242424" d="M1653.2268,-1634.8486C1802.3119,-1617.3987 2182.8305,-1567.5067 2290.6762,-1501.7901 2309.4275,-1490.3638 2326.326,-1474.562 2340.9543,-1457.697"/>
<polygon fill="#242424" stroke="#242424" points="2343.7637,-1459.7941 2347.5142,-1449.8853 2338.4031,-1455.2926 2343.7637,-1459.7941"/>
</g>
<!-- fn/control&#45;split.js -->
<g id="node17" class="node">
<title>fn/control&#45;split.js</title>
<ellipse fill="none" stroke="#242424" stroke-width="4" cx="1296.6762" cy="-1047.2344" rx="97.6868" ry="97.6868"/>
<text text-anchor="middle" x="1296.6762" y="-1044.8344" font-family="Fira Code" font-size="12.00" fill="#242424">fn/control&#45;split.js</text>
</g>
<!-- fn/index.js&#45;&gt;fn/control&#45;split.js -->
<g id="edge28" class="edge">
<title>fn/index.js&#45;&gt;fn/control&#45;split.js</title>
<path fill="none" stroke="#242424" d="M1644.6056,-1609.2196C1678.9669,-1584.516 1721.1606,-1547.0707 1740.6762,-1501.7901 1765.1242,-1445.0648 1775.3559,-1274.9431 1740.6762,-1223.8278 1665.7778,-1113.4331 1509.7744,-1072.0483 1404.1171,-1056.5351"/>
<polygon fill="#242424" stroke="#242424" points="1404.4452,-1053.0467 1394.0538,-1055.1131 1403.4657,-1059.9779 1404.4452,-1053.0467"/>
</g>
<!-- fn/hex&#45;char&#45;code.js -->
<g id="node18" class="node">
<title>fn/hex&#45;char&#45;code.js</title>
<ellipse fill="none" stroke="#0c821d" stroke-width="4" cx="1567.6762" cy="-740.8572" rx="97.6868" ry="97.6868"/>
<text text-anchor="middle" x="1567.6762" y="-738.4572" font-family="Fira Code" font-size="12.00" fill="#0c821d">fn/hex&#45;char&#45;code.js</text>
</g>
<!-- fn/index.js&#45;&gt;fn/hex&#45;char&#45;code.js -->
<g id="edge30" class="edge">
<title>fn/index.js&#45;&gt;fn/hex&#45;char&#45;code.js</title>
<path fill="none" stroke="#242424" d="M1650.5821,-1622.8069C1703.2215,-1602.2837 1777.6961,-1563.7958 1811.6762,-1501.7901 1870.6435,-1394.1885 1862.9944,-1061.0936 1811.6762,-949.641 1780.9101,-882.8235 1717.043,-829.421 1662.3676,-793.3544"/>
<polygon fill="#242424" stroke="#242424" points="1663.9717,-790.2231 1653.6779,-787.7154 1660.1612,-796.0951 1663.9717,-790.2231"/>
</g>
<!-- fn/map&#45;wrap.js -->
<g id="node19" class="node">
<title>fn/map&#45;wrap.js</title>
<ellipse fill="none" stroke="#242424" stroke-width="4" cx="1296.6762" cy="-740.8572" rx="74.7005" ry="74.7005"/>
<text text-anchor="middle" x="1296.6762" y="-738.4572" font-family="Fira Code" font-size="12.00" fill="#242424">fn/map&#45;wrap.js</text>
</g>
<!-- fn/index.js&#45;&gt;fn/map&#45;wrap.js -->
<g id="edge32" class="edge">
<title>fn/index.js&#45;&gt;fn/map&#45;wrap.js</title>
<path fill="none" stroke="#242424" d="M1647.5921,-1614.5193C1688.5261,-1590.9829 1741.3786,-1552.665 1765.6762,-1501.7901 1818.9172,-1390.3126 1812.1137,-1338.3065 1765.6762,-1223.8278 1723.3848,-1119.5704 1479.4517,-898.9721 1361.082,-795.9843"/>
<polygon fill="#242424" stroke="#242424" points="1363.3152,-793.2882 1353.4702,-789.3733 1358.7251,-798.5731 1363.3152,-793.2882"/>
</g>
<!-- fn/convert&#45;to&#45;ascii.js -->
<g id="node20" class="node">
<title>fn/convert&#45;to&#45;ascii.js</title>
<ellipse fill="none" stroke="#242424" stroke-width="4" cx="813.6762" cy="-1362.8089" rx="111.2787" ry="111.2787"/>
<text text-anchor="middle" x="813.6762" y="-1360.4089" font-family="Fira Code" font-size="12.00" fill="#242424">fn/convert&#45;to&#45;ascii.js</text>
</g>
<!-- fn/index.js&#45;&gt;fn/convert&#45;to&#45;ascii.js -->
<g id="edge29" class="edge">
<title>fn/index.js&#45;&gt;fn/convert&#45;to&#45;ascii.js</title>
<path fill="none" stroke="#242424" d="M1532.3549,-1633.7579C1389.856,-1614.4623 1036.7115,-1561.8354 934.6762,-1501.7901 916.6682,-1491.1928 899.973,-1476.9565 885.0928,-1461.6279"/>
<polygon fill="#242424" stroke="#242424" points="887.3393,-1458.9081 877.9361,-1454.0264 882.2426,-1463.7065 887.3393,-1458.9081"/>
</g>
<!-- fn/magic&#45;range.js -->
<g id="node21" class="node">
<title>fn/magic&#45;range.js</title>
<ellipse fill="none" stroke="#0c821d" stroke-width="4" cx="1031.6762" cy="-1362.8089" rx="88.2923" ry="88.2923"/>
<text text-anchor="middle" x="1031.6762" y="-1360.4089" font-family="Fira Code" font-size="12.00" fill="#0c821d">fn/magic&#45;range.js</text>
</g>
<!-- fn/index.js&#45;&gt;fn/magic&#45;range.js -->
<g id="edge31" class="edge">
<title>fn/index.js&#45;&gt;fn/magic&#45;range.js</title>
<path fill="none" stroke="#242424" d="M1531.8046,-1636.0571C1437.385,-1624.841 1253.5194,-1592.2529 1128.6762,-1501.7901 1109.4958,-1487.8917 1092.7866,-1468.9915 1078.8911,-1449.6095"/>
<polygon fill="#242424" stroke="#242424" points="1081.689,-1447.5024 1073.1091,-1441.2866 1075.9401,-1451.4963 1081.689,-1447.5024"/>
</g>
<!-- fn/match.js -->
<g id="node22" class="node">
<title>fn/match.js</title>
<ellipse fill="none" stroke="#0c821d" stroke-width="4" cx="1198.6762" cy="-1362.8089" rx="60.6091" ry="60.6091"/>
<text text-anchor="middle" x="1198.6762" y="-1360.4089" font-family="Fira Code" font-size="12.00" fill="#0c821d">fn/match.js</text>
</g>
<!-- fn/index.js&#45;&gt;fn/match.js -->
<g id="edge33" class="edge">
<title>fn/index.js&#45;&gt;fn/match.js</title>
<path fill="none" stroke="#242424" d="M1532.8966,-1628.9683C1462.1286,-1611.3209 1344.3559,-1573.1159 1268.6762,-1501.7901 1248.0176,-1482.3199 1232.5247,-1455.4185 1221.4374,-1430.4664"/>
<polygon fill="#242424" stroke="#242424" points="1224.5487,-1428.8399 1217.4022,-1421.0182 1218.1112,-1431.5893 1224.5487,-1428.8399"/>
</g>
<!-- fn/ninth&#45;bit.js -->
<g id="node23" class="node">
<title>fn/ninth&#45;bit.js</title>
<ellipse fill="none" stroke="#0c821d" stroke-width="4" cx="1356.6762" cy="-1362.8089" rx="79.3981" ry="79.3981"/>
<text text-anchor="middle" x="1356.6762" y="-1360.4089" font-family="Fira Code" font-size="12.00" fill="#0c821d">fn/ninth&#45;bit.js</text>
</g>
<!-- fn/index.js&#45;&gt;fn/ninth&#45;bit.js -->
<g id="edge34" class="edge">
<title>fn/index.js&#45;&gt;fn/ninth&#45;bit.js</title>
<path fill="none" stroke="#242424" d="M1545.754,-1602.6922C1515.1026,-1576.0272 1475.2435,-1538.8895 1444.6762,-1501.7901 1429.1832,-1482.9863 1414.2433,-1461.2805 1401.2085,-1440.6952"/>
<polygon fill="#242424" stroke="#242424" points="1404.0119,-1438.5768 1395.7428,-1431.9532 1398.0766,-1442.2879 1404.0119,-1438.5768"/>
</g>
<!-- fn/parse&#45;binary&#45;char&#45;code.js -->
<g id="node24" class="node">
<title>fn/parse&#45;binary&#45;char&#45;code.js</title>
<ellipse fill="none" stroke="#0c821d" stroke-width="4" cx="1592.6762" cy="-1362.8089" rx="138.9623" ry="138.9623"/>
<text text-anchor="middle" x="1592.6762" y="-1360.4089" font-family="Fira Code" font-size="12.00" fill="#0c821d">fn/parse&#45;binary&#45;char&#45;code.js</text>
</g>
<!-- fn/index.js&#45;&gt;fn/parse&#45;binary&#45;char&#45;code.js -->
<g id="edge35" class="edge">
<title>fn/index.js&#45;&gt;fn/parse&#45;binary&#45;char&#45;code.js</title>
<path fill="none" stroke="#242424" d="M1592.6762,-1580.7582C1592.6762,-1560.1994 1592.6762,-1536.2557 1592.6762,-1511.9151"/>
<polygon fill="#242424" stroke="#242424" points="1596.1763,-1511.8395 1592.6762,-1501.8395 1589.1763,-1511.8395 1596.1763,-1511.8395"/>
</g>
<!-- fn/string&#45;wrap.js -->
<g id="node25" class="node">
<title>fn/string&#45;wrap.js</title>
<ellipse fill="none" stroke="#242424" stroke-width="4" cx="1296.6762" cy="-439.0786" rx="88.2923" ry="88.2923"/>
<text text-anchor="middle" x="1296.6762" y="-436.6786" font-family="Fira Code" font-size="12.00" fill="#242424">fn/string&#45;wrap.js</text>
</g>
<!-- fn/index.js&#45;&gt;fn/string&#45;wrap.js -->
<g id="edge36" class="edge">
<title>fn/index.js&#45;&gt;fn/string&#45;wrap.js</title>
<path fill="none" stroke="#242424" d="M1652.129,-1627.5422C1712.9093,-1609.6569 1804.1134,-1572.2433 1845.6762,-1501.7901 1908.0211,-1396.1087 1872.2623,-1068.9652 1843.6762,-949.641 1804.4947,-786.0896 1795.7159,-727.8366 1674.6762,-611.0733 1595.3131,-534.5142 1475.8585,-488.0433 1392.5441,-463.0353"/>
<polygon fill="#242424" stroke="#242424" points="1393.4044,-459.64 1382.8226,-460.1652 1391.4223,-466.3535 1393.4044,-459.64"/>
</g>
<!-- fn/control&#45;split.js&#45;&gt;constants/regex&#45;control.js -->
<g id="edge19" class="edge">
<title>fn/control&#45;split.js&#45;&gt;constants/regex&#45;control.js</title>
<path fill="none" stroke="#242424" d="M1221.4905,-984.1243C1168.8637,-939.9499 1097.7718,-880.2761 1039.1709,-831.0871"/>
<polygon fill="#242424" stroke="#242424" points="1041.2657,-828.2759 1031.3561,-824.5274 1036.7652,-833.6374 1041.2657,-828.2759"/>
</g>
<!-- fn/control&#45;split.js&#45;&gt;fn/hex&#45;char&#45;code.js -->
<g id="edge20" class="edge">
<title>fn/control&#45;split.js&#45;&gt;fn/hex&#45;char&#45;code.js</title>
<path fill="none" stroke="#242424" d="M1361.5874,-973.8494C1402.0816,-928.069 1454.2452,-869.0958 1495.9597,-821.9357"/>
<polygon fill="#242424" stroke="#242424" points="1498.8217,-823.9829 1502.8255,-814.1737 1493.5785,-819.3451 1498.8217,-823.9829"/>
</g>
<!-- fn/control&#45;split.js&#45;&gt;fn/map&#45;wrap.js -->
<g id="edge21" class="edge">
<title>fn/control&#45;split.js&#45;&gt;fn/map&#45;wrap.js</title>
<path fill="none" stroke="#242424" d="M1296.6762,-949.4524C1296.6762,-909.7451 1296.6762,-864.2978 1296.6762,-825.9817"/>
<polygon fill="#242424" stroke="#242424" points="1300.1763,-825.8897 1296.6762,-815.8897 1293.1763,-825.8897 1300.1763,-825.8897"/>
</g>
<!-- fn/map&#45;wrap.js&#45;&gt;constants/empty.js -->
<g id="edge37" class="edge">
<title>fn/map&#45;wrap.js&#45;&gt;constants/empty.js</title>
<path fill="none" stroke="#242424" d="M1238.8408,-693.0394C1177.3867,-642.2298 1079.807,-561.5517 1011.1537,-504.7898"/>
<polygon fill="#242424" stroke="#242424" points="1013.2859,-502.0114 1003.3487,-498.3367 1008.8254,-507.4062 1013.2859,-502.0114"/>
</g>
<!-- fn/map&#45;wrap.js&#45;&gt;fn/string&#45;wrap.js -->
<g id="edge38" class="edge">
<title>fn/map&#45;wrap.js&#45;&gt;fn/string&#45;wrap.js</title>
<path fill="none" stroke="#242424" d="M1296.6762,-665.8725C1296.6762,-627.1689 1296.6762,-579.4559 1296.6762,-537.7945"/>
<polygon fill="#242424" stroke="#242424" points="1300.1763,-537.6211 1296.6762,-527.6212 1293.1763,-537.6212 1300.1763,-537.6211"/>
</g>
<!-- fn/convert&#45;to&#45;ascii.js&#45;&gt;Ⓜ f&#45;utility/f&#45;utility.js -->
<g id="edge22" class="edge">
<title>fn/convert&#45;to&#45;ascii.js&#45;&gt;Ⓜ f&#45;utility/f&#45;utility.js</title>
<path fill="none" stroke="#242424" d="M759.7787,-1265.1139C741.8765,-1228.426 723.7141,-1185.698 712.6762,-1144.8278 690.6282,-1063.1905 648.2867,-536.1521 628.44,-276.9928"/>
<polygon fill="#242424" stroke="#242424" points="631.9092,-276.455 627.6567,-266.7511 624.9296,-276.9889 631.9092,-276.455"/>
</g>
<!-- fn/convert&#45;to&#45;ascii.js&#45;&gt;constants/empty.js -->
<g id="edge23" class="edge">
<title>fn/convert&#45;to&#45;ascii.js&#45;&gt;constants/empty.js</title>
<path fill="none" stroke="#242424" d="M878.305,-1272.0502C941.5784,-1177.1695 1033.6932,-1021.364 1070.6762,-870.641 1098.1675,-758.6011 1109.132,-719.8385 1070.6762,-611.0733 1057.4595,-573.6925 1032.286,-538.4813 1006.9534,-509.7724"/>
<polygon fill="#242424" stroke="#242424" points="1009.459,-507.3244 1000.1667,-502.2348 1004.2569,-512.0083 1009.459,-507.3244"/>
</g>
<!-- fn/convert&#45;to&#45;ascii.js&#45;&gt;fn/control&#45;split.js -->
<g id="edge24" class="edge">
<title>fn/convert&#45;to&#45;ascii.js&#45;&gt;fn/control&#45;split.js</title>
<path fill="none" stroke="#242424" d="M881.1962,-1273.9206C897.44,-1255.9394 915.6428,-1238.1732 934.6762,-1223.8278 1000.8884,-1173.9238 1029.1164,-1181.0949 1103.6762,-1144.8278 1135.3292,-1129.4312 1169.681,-1112.2237 1200.5104,-1096.5963"/>
<polygon fill="#242424" stroke="#242424" points="1202.198,-1099.6649 1209.5311,-1092.0179 1199.0298,-1093.4228 1202.198,-1099.6649"/>
</g>
<!-- fn/string&#45;wrap.js&#45;&gt;Ⓜ f&#45;utility/f&#45;utility.js -->
<g id="edge39" class="edge">
<title>fn/string&#45;wrap.js&#45;&gt;Ⓜ f&#45;utility/f&#45;utility.js</title>
<path fill="none" stroke="#242424" d="M1215.7837,-402.6786C1100.3692,-350.7443 887.1476,-254.7987 748.9404,-192.6082"/>
<polygon fill="#242424" stroke="#242424" points="750.09,-189.2876 739.5345,-188.3758 747.2176,-195.6711 750.09,-189.2876"/>
</g>
<!-- index.js -->
<g id="node26" class="node">
<title>index.js</title>
<ellipse fill="none" stroke="#242424" stroke-width="4" cx="779.6762" cy="-2846.9521" rx="47.0167" ry="47.0167"/>
<text text-anchor="middle" x="779.6762" y="-2844.5521" font-family="Fira Code" font-size="12.00" fill="#242424">index.js</text>
</g>
<!-- index.js&#45;&gt;cli/index.js -->
<g id="edge40" class="edge">
<title>index.js&#45;&gt;cli/index.js</title>
<path fill="none" stroke="#242424" d="M736.5861,-2827.5452C662.9062,-2794.3613 512.1194,-2726.45 423.6499,-2686.6052"/>
<polygon fill="#242424" stroke="#242424" points="425.0528,-2683.3985 414.4976,-2682.4832 422.1782,-2689.7811 425.0528,-2683.3985"/>
</g>
<!-- index.js&#45;&gt;decode.js -->
<g id="edge42" class="edge">
<title>index.js&#45;&gt;decode.js</title>
<path fill="none" stroke="#242424" d="M770.885,-2800.7194C741.0746,-2643.9466 643.8213,-2132.4923 610.2197,-1955.7818"/>
<polygon fill="#242424" stroke="#242424" points="613.6422,-1955.0442 608.3357,-1945.8741 606.7654,-1956.3519 613.6422,-1955.0442"/>
</g>
<!-- index.js&#45;&gt;encode.js -->
<g id="edge43" class="edge">
<title>index.js&#45;&gt;encode.js</title>
<path fill="none" stroke="#242424" d="M776.7008,-2799.7484C766.7663,-2642.1425 734.7392,-2134.0436 723.5656,-1956.7796"/>
<polygon fill="#242424" stroke="#242424" points="727.0453,-1956.3453 722.9231,-1946.5853 720.0592,-1956.7857 727.0453,-1956.3453"/>
</g>
<!-- index.js&#45;&gt;constants/index.js -->
<g id="edge41" class="edge">
<title>index.js&#45;&gt;constants/index.js</title>
<path fill="none" stroke="#242424" d="M783.3445,-2799.9058C789.1183,-2721.6762 799.6762,-2559.8786 799.6762,-2422.7419 799.6762,-2422.7419 799.6762,-2422.7419 799.6762,-2171.5484 799.6762,-1997.9429 810.9292,-1952.3476 780.6762,-1781.3986 757.9963,-1653.2429 713.2315,-1630.4596 693.6762,-1501.7901 675.1138,-1379.6538 657.1257,-1341.8358 693.6762,-1223.8278 704.6315,-1188.457 725.3873,-1153.8696 746.6555,-1124.8135"/>
<polygon fill="#242424" stroke="#242424" points="749.4834,-1126.8762 752.6601,-1116.7689 743.8737,-1122.6891 749.4834,-1126.8762"/>
</g>
<!-- index.js&#45;&gt;fn/index.js -->
<g id="edge44" class="edge">
<title>index.js&#45;&gt;fn/index.js</title>
<path fill="none" stroke="#242424" d="M813.6325,-2814.1941C879.1651,-2747.2726 1016.6762,-2587.2478 1016.6762,-2422.7419 1016.6762,-2422.7419 1016.6762,-2422.7419 1016.6762,-2171.5484 1016.6762,-1897.6366 1373.7948,-1726.5104 1525.6422,-1666.1279"/>
<polygon fill="#242424" stroke="#242424" points="1527.3177,-1669.2298 1535.3413,-1662.3108 1524.7542,-1662.7161 1527.3177,-1669.2298"/>
</g>
<!-- test.js -->
<g id="node27" class="node">
<title>test.js</title>
<ellipse fill="none" stroke="#242424" stroke-width="4" cx="1592.6762" cy="-1895.0747" rx="42.3196" ry="42.3196"/>
<text text-anchor="middle" x="1592.6762" y="-1892.6747" font-family="Fira Code" font-size="12.00" fill="#242424">test.js</text>
</g>
<!-- index.js&#45;&gt;test.js -->
<g id="edge45" class="edge">
<title>index.js&#45;&gt;test.js</title>
<path fill="none" stroke="#242424" d="M824.5116,-2832.3344C878.0939,-2813.2031 968.3186,-2775.5556 1030.6762,-2720.9438 1303.9709,-2481.5967 1506.2973,-2080.9922 1570.8145,-1943.2807"/>
<polygon fill="#242424" stroke="#242424" points="1574.169,-1944.3682 1575.2206,-1933.8256 1567.8242,-1941.4113 1574.169,-1944.3682"/>
</g>
<!-- test.js&#45;&gt;Ⓜ f&#45;utility/f&#45;utility.js -->
<g id="edge46" class="edge">
<title>test.js&#45;&gt;Ⓜ f&#45;utility/f&#45;utility.js</title>
<path fill="none" stroke="#242424" d="M1635.0842,-1891.263C1783.7438,-1875.4517 2284.5497,-1801.0392 2512.6762,-1501.7901 2550.4726,-1452.2099 2531.6762,-1425.1529 2531.6762,-1362.8089 2531.6762,-1362.8089 2531.6762,-1362.8089 2531.6762,-740.8572 2531.6762,-369.3614 1205.1081,-195.4975 760.7564,-147.68"/>
<polygon fill="#242424" stroke="#242424" points="761.0612,-144.1927 750.7453,-146.608 760.3158,-151.1529 761.0612,-144.1927"/>
</g>
<!-- test.js&#45;&gt;fn/index.js -->
<g id="edge47" class="edge">
<title>test.js&#45;&gt;fn/index.js</title>
<path fill="none" stroke="#242424" d="M1592.6762,-1852.6478C1592.6762,-1814.5189 1592.6762,-1757.7576 1592.6762,-1712.7002"/>
<polygon fill="#242424" stroke="#242424" points="1596.1763,-1712.691 1592.6762,-1702.691 1589.1763,-1712.6911 1596.1763,-1712.691"/>
</g>
</g>
</svg>
