<?xml version="1.0" encoding="UTF-8" standalone="no"?>
<!DOCTYPE svg PUBLIC "-//W3C//DTD SVG 1.1//EN"
 "http://www.w3.org/Graphics/SVG/1.1/DTD/svg11.dtd">
<!-- Generated by graphviz version 2.40.1 (20161225.0304)
 -->
<!-- Title: G Pages: 1 -->
<svg width="3464pt" height="1558pt"
 viewBox="0.00 0.00 3464.07 1557.54" xmlns="http://www.w3.org/2000/svg" xmlns:xlink="http://www.w3.org/1999/xlink">
<g id="graph0" class="graph" transform="scale(1 1) rotate(0) translate(7.992 1549.5492)">
<title>G</title>
<polygon fill="#eeeeff" stroke="transparent" points="-7.992,7.992 -7.992,-1549.5492 3456.0779,-1549.5492 3456.0779,7.992 -7.992,7.992"/>
<!-- cli/cmd.js -->
<g id="node1" class="node">
<title>cli/cmd.js</title>
<ellipse fill="none" stroke="#242424" stroke-width="4" cx="167.6762" cy="-485.065" rx="56.412" ry="56.412"/>
<text text-anchor="middle" x="167.6762" y="-482.665" font-family="Fira Code" font-size="12.00" fill="#242424">cli/cmd.js</text>
</g>
<!-- Ⓜ commander/index.js -->
<g id="node2" class="node">
<title>Ⓜ commander/index.js</title>
<ellipse fill="none" stroke="#0c821d" stroke-width="4" cx="113.6762" cy="-133.5419" rx="113.8526" ry="113.8526"/>
<text text-anchor="middle" x="113.6762" y="-132.3419" font-family="Fira Code" font-size="12.00" fill="#0c821d">Ⓜ commander/index.js</text>
</g>
<!-- cli/cmd.js&#45;&gt;Ⓜ commander/index.js -->
<g id="edge1" class="edge">
<title>cli/cmd.js&#45;&gt;Ⓜ commander/index.js</title>
<path fill="none" stroke="#242424" d="M159.1197,-429.3651C151.9931,-382.9729 141.5826,-315.204 132.5234,-256.2315"/>
<polygon fill="#242424" stroke="#242424" points="135.9435,-255.4433 130.9656,-246.0907 129.0246,-256.5062 135.9435,-255.4433"/>
</g>
<!-- cli/executable.js -->
<g id="node3" class="node">
<title>cli/executable.js</title>
<ellipse fill="none" stroke="#242424" stroke-width="4" cx="558.6762" cy="-485.065" rx="88.2923" ry="88.2923"/>
<text text-anchor="middle" x="558.6762" y="-482.665" font-family="Fira Code" font-size="12.00" fill="#242424">cli/executable.js</text>
</g>
<!-- Ⓜ f&#45;utility/f&#45;utility.js -->
<g id="node4" class="node">
<title>Ⓜ f&#45;utility/f&#45;utility.js</title>
<ellipse fill="none" stroke="#0c821d" stroke-width="4" cx="848.6762" cy="-133.5419" rx="133.5838" ry="133.5838"/>
<text text-anchor="middle" x="848.6762" y="-132.3419" font-family="Fira Code" font-size="12.00" fill="#0c821d">Ⓜ f&#45;utility/f&#45;utility.js</text>
</g>
<!-- cli/executable.js&#45;&gt;Ⓜ f&#45;utility/f&#45;utility.js -->
<g id="edge2" class="edge">
<title>cli/executable.js&#45;&gt;Ⓜ f&#45;utility/f&#45;utility.js</title>
<path fill="none" stroke="#242424" d="M607.559,-411.294C622.4595,-389.8512 639.2548,-366.6716 655.6762,-346.0838 684.7155,-309.6768 718.2665,-271.5331 749.1676,-237.77"/>
<polygon fill="#242424" stroke="#242424" points="751.9447,-239.9204 756.1302,-230.1873 746.7886,-235.1859 751.9447,-239.9204"/>
</g>
<!-- cli/index.js -->
<g id="node5" class="node">
<title>cli/index.js</title>
<ellipse fill="none" stroke="#242424" stroke-width="4" cx="368.6762" cy="-768.449" rx="65.3059" ry="65.3059"/>
<text text-anchor="middle" x="368.6762" y="-766.049" font-family="Fira Code" font-size="12.00" fill="#242424">cli/index.js</text>
</g>
<!-- cli/index.js&#45;&gt;cli/cmd.js -->
<g id="edge3" class="edge">
<title>cli/index.js&#45;&gt;cli/cmd.js</title>
<path fill="none" stroke="#242424" d="M330.6333,-714.8135C294.948,-664.5018 241.8566,-589.6498 206.0607,-539.1822"/>
<polygon fill="#242424" stroke="#242424" points="208.8894,-537.1204 200.2492,-530.9887 203.1798,-541.1702 208.8894,-537.1204"/>
</g>
<!-- cli/index.js&#45;&gt;cli/executable.js -->
<g id="edge4" class="edge">
<title>cli/index.js&#45;&gt;cli/executable.js</title>
<path fill="none" stroke="#242424" d="M405.3101,-713.8097C433.2343,-672.1608 472.1432,-614.1284 503.7825,-566.9387"/>
<polygon fill="#242424" stroke="#242424" points="506.7371,-568.8168 509.3989,-558.5618 500.9229,-564.9186 506.7371,-568.8168"/>
</g>
<!-- cli/processor.js -->
<g id="node6" class="node">
<title>cli/processor.js</title>
<ellipse fill="none" stroke="#242424" stroke-width="4" cx="368.6762" cy="-485.065" rx="83.5954" ry="83.5954"/>
<text text-anchor="middle" x="368.6762" y="-482.665" font-family="Fira Code" font-size="12.00" fill="#242424">cli/processor.js</text>
</g>
<!-- cli/index.js&#45;&gt;cli/processor.js -->
<g id="edge5" class="edge">
<title>cli/index.js&#45;&gt;cli/processor.js</title>
<path fill="none" stroke="#242424" d="M368.6762,-702.7227C368.6762,-666.0197 368.6762,-619.6616 368.6762,-579.1698"/>
<polygon fill="#242424" stroke="#242424" points="372.1763,-579.011 368.6762,-569.0111 365.1763,-579.0111 372.1763,-579.011"/>
</g>
<!-- cli/processor.js&#45;&gt;Ⓜ f&#45;utility/f&#45;utility.js -->
<g id="edge7" class="edge">
<title>cli/processor.js&#45;&gt;Ⓜ f&#45;utility/f&#45;utility.js</title>
<path fill="none" stroke="#242424" d="M406.1801,-409.7334C420.7897,-386.6148 439.4295,-362.8732 461.6762,-346.0838 552.9978,-277.164 608.1551,-325.2489 706.6762,-267.0838 721.171,-258.5264 735.3937,-248.2531 748.9029,-237.2539"/>
<polygon fill="#242424" stroke="#242424" points="751.3266,-239.7902 756.7711,-230.7013 746.847,-234.4112 751.3266,-239.7902"/>
</g>
<!-- Ⓜ debug/src/index.js -->
<g id="node7" class="node">
<title>Ⓜ debug/src/index.js</title>
<ellipse fill="none" stroke="#0c821d" stroke-width="4" cx="358.6762" cy="-133.5419" rx="113.8526" ry="113.8526"/>
<text text-anchor="middle" x="358.6762" y="-132.3419" font-family="Fira Code" font-size="12.00" fill="#0c821d">Ⓜ debug/src/index.js</text>
</g>
<!-- cli/processor.js&#45;&gt;Ⓜ debug/src/index.js -->
<g id="edge6" class="edge">
<title>cli/processor.js&#45;&gt;Ⓜ debug/src/index.js</title>
<path fill="none" stroke="#242424" d="M366.2809,-400.8664C365.0591,-357.9159 363.5493,-304.8444 362.1979,-257.3383"/>
<polygon fill="#242424" stroke="#242424" points="365.6951,-257.1875 361.9121,-247.2911 358.6979,-257.3866 365.6951,-257.1875"/>
</g>
<!-- Ⓜ fluture/index.js -->
<g id="node8" class="node">
<title>Ⓜ fluture/index.js</title>
<ellipse fill="none" stroke="#0c821d" stroke-width="4" cx="593.6762" cy="-133.5419" rx="103.9872" ry="103.9872"/>
<text text-anchor="middle" x="593.6762" y="-132.3419" font-family="Fira Code" font-size="12.00" fill="#0c821d">Ⓜ fluture/index.js</text>
</g>
<!-- cli/processor.js&#45;&gt;Ⓜ fluture/index.js -->
<g id="edge8" class="edge">
<title>cli/processor.js&#45;&gt;Ⓜ fluture/index.js</title>
<path fill="none" stroke="#242424" d="M413.9376,-414.3519C447.9404,-361.2285 494.8874,-287.882 532.2742,-229.4717"/>
<polygon fill="#242424" stroke="#242424" points="535.2751,-231.2757 537.7182,-220.9664 529.3794,-227.502 535.2751,-231.2757"/>
</g>
<!-- constants/empty.js -->
<g id="node9" class="node">
<title>constants/empty.js</title>
<ellipse fill="none" stroke="#0c821d" stroke-width="4" cx="2352.6762" cy="-1146.7839" rx="92.9895" ry="92.9895"/>
<text text-anchor="middle" x="2352.6762" y="-1144.3839" font-family="Fira Code" font-size="12.00" fill="#0c821d">constants/empty.js</text>
</g>
<!-- constants/index.js -->
<g id="node10" class="node">
<title>constants/index.js</title>
<ellipse fill="none" stroke="#242424" stroke-width="4" cx="2472.6762" cy="-1448.5625" rx="92.9895" ry="92.9895"/>
<text text-anchor="middle" x="2472.6762" y="-1446.1625" font-family="Fira Code" font-size="12.00" fill="#242424">constants/index.js</text>
</g>
<!-- constants/index.js&#45;&gt;constants/empty.js -->
<g id="edge9" class="edge">
<title>constants/index.js&#45;&gt;constants/empty.js</title>
<path fill="none" stroke="#242424" d="M2438.289,-1362.0848C2423.4766,-1324.8342 2406.1003,-1281.1359 2390.8867,-1242.8766"/>
<polygon fill="#242424" stroke="#242424" points="2394.0158,-1241.2732 2387.0684,-1233.2741 2387.5111,-1243.8597 2394.0158,-1241.2732"/>
</g>
<!-- constants/regex&#45;control.js -->
<g id="node11" class="node">
<title>constants/regex&#45;control.js</title>
<ellipse fill="none" stroke="#0c821d" stroke-width="4" cx="2593.6762" cy="-1146.7839" rx="129.5681" ry="129.5681"/>
<text text-anchor="middle" x="2593.6762" y="-1144.3839" font-family="Fira Code" font-size="12.00" fill="#0c821d">constants/regex&#45;control.js</text>
</g>
<!-- constants/index.js&#45;&gt;constants/regex&#45;control.js -->
<g id="edge10" class="edge">
<title>constants/index.js&#45;&gt;constants/regex&#45;control.js</title>
<path fill="none" stroke="#242424" d="M2507.3499,-1362.0848C2518.0309,-1335.446 2530.034,-1305.5098 2541.6162,-1276.6234"/>
<polygon fill="#242424" stroke="#242424" points="2544.8866,-1277.8714 2545.3596,-1267.2871 2538.3894,-1275.2663 2544.8866,-1277.8714"/>
</g>
<!-- decode.js -->
<g id="node12" class="node">
<title>decode.js</title>
<ellipse fill="none" stroke="#242424" stroke-width="4" cx="716.6762" cy="-485.065" rx="51.7142" ry="51.7142"/>
<text text-anchor="middle" x="716.6762" y="-482.665" font-family="Fira Code" font-size="12.00" fill="#242424">decode.js</text>
</g>
<!-- decode.js&#45;&gt;Ⓜ f&#45;utility/f&#45;utility.js -->
<g id="edge11" class="edge">
<title>decode.js&#45;&gt;Ⓜ f&#45;utility/f&#45;utility.js</title>
<path fill="none" stroke="#242424" d="M734.8916,-436.5563C751.205,-393.1129 775.9132,-327.3136 798.1414,-268.1187"/>
<polygon fill="#242424" stroke="#242424" points="801.4471,-269.2715 801.686,-258.6794 794.8939,-266.8107 801.4471,-269.2715"/>
</g>
<!-- encode.js -->
<g id="node13" class="node">
<title>encode.js</title>
<ellipse fill="none" stroke="#242424" stroke-width="4" cx="837.6762" cy="-485.065" rx="51.7142" ry="51.7142"/>
<text text-anchor="middle" x="837.6762" y="-482.665" font-family="Fira Code" font-size="12.00" fill="#242424">encode.js</text>
</g>
<!-- encode.js&#45;&gt;Ⓜ f&#45;utility/f&#45;utility.js -->
<g id="edge12" class="edge">
<title>encode.js&#45;&gt;Ⓜ f&#45;utility/f&#45;utility.js</title>
<path fill="none" stroke="#242424" d="M839.2993,-433.1965C840.5848,-392.1145 842.4453,-332.6586 844.1708,-277.5198"/>
<polygon fill="#242424" stroke="#242424" points="847.6766,-277.3844 844.4912,-267.2798 840.68,-277.1654 847.6766,-277.3844"/>
</g>
<!-- fn/alter&#45;range.js -->
<g id="node14" class="node">
<title>fn/alter&#45;range.js</title>
<ellipse fill="none" stroke="#0c821d" stroke-width="4" cx="2163.6762" cy="-485.065" rx="88.2923" ry="88.2923"/>
<text text-anchor="middle" x="2163.6762" y="-482.665" font-family="Fira Code" font-size="12.00" fill="#0c821d">fn/alter&#45;range.js</text>
</g>
<!-- fn/char&#45;code&#45;at.js -->
<g id="node15" class="node">
<title>fn/char&#45;code&#45;at.js</title>
<ellipse fill="none" stroke="#0c821d" stroke-width="4" cx="2362.6762" cy="-485.065" rx="92.9895" ry="92.9895"/>
<text text-anchor="middle" x="2362.6762" y="-482.665" font-family="Fira Code" font-size="12.00" fill="#0c821d">fn/char&#45;code&#45;at.js</text>
</g>
<!-- fn/character&#45;edge.js -->
<g id="node16" class="node">
<title>fn/character&#45;edge.js</title>
<ellipse fill="none" stroke="#0c821d" stroke-width="4" cx="2575.6762" cy="-485.065" rx="102.3844" ry="102.3844"/>
<text text-anchor="middle" x="2575.6762" y="-482.665" font-family="Fira Code" font-size="12.00" fill="#0c821d">fn/character&#45;edge.js</text>
</g>
<!-- fn/control&#45;split.js -->
<g id="node17" class="node">
<title>fn/control&#45;split.js</title>
<ellipse fill="none" stroke="#0c821d" stroke-width="4" cx="2793.6762" cy="-485.065" rx="97.6868" ry="97.6868"/>
<text text-anchor="middle" x="2793.6762" y="-482.665" font-family="Fira Code" font-size="12.00" fill="#0c821d">fn/control&#45;split.js</text>
</g>
<!-- fn/convert&#45;to&#45;ascii.js -->
<g id="node18" class="node">
<title>fn/convert&#45;to&#45;ascii.js</title>
<ellipse fill="none" stroke="#242424" stroke-width="4" cx="3020.6762" cy="-485.065" rx="111.2787" ry="111.2787"/>
<text text-anchor="middle" x="3020.6762" y="-482.665" font-family="Fira Code" font-size="12.00" fill="#242424">fn/convert&#45;to&#45;ascii.js</text>
</g>
<!-- fn/convert&#45;to&#45;ascii.js&#45;&gt;Ⓜ f&#45;utility/f&#45;utility.js -->
<g id="edge13" class="edge">
<title>fn/convert&#45;to&#45;ascii.js&#45;&gt;Ⓜ f&#45;utility/f&#45;utility.js</title>
<path fill="none" stroke="#242424" d="M2958.3086,-392.5366C2941.7121,-374.3137 2922.2972,-357.3643 2900.6762,-346.0838 2567.5707,-172.2909 1402.1911,-140.6056 992.4657,-134.8294"/>
<polygon fill="#242424" stroke="#242424" points="992.3843,-131.3281 982.337,-134.6898 992.2877,-138.3274 992.3843,-131.3281"/>
</g>
<!-- fn/hex&#45;char&#45;code.js -->
<g id="node19" class="node">
<title>fn/hex&#45;char&#45;code.js</title>
<ellipse fill="none" stroke="#0c821d" stroke-width="4" cx="3247.6762" cy="-485.065" rx="97.6868" ry="97.6868"/>
<text text-anchor="middle" x="3247.6762" y="-482.665" font-family="Fira Code" font-size="12.00" fill="#0c821d">fn/hex&#45;char&#45;code.js</text>
</g>
<!-- fn/index.js -->
<g id="node20" class="node">
<title>fn/index.js</title>
<ellipse fill="none" stroke="#242424" stroke-width="4" cx="2065.6762" cy="-768.449" rx="60.6091" ry="60.6091"/>
<text text-anchor="middle" x="2065.6762" y="-766.049" font-family="Fira Code" font-size="12.00" fill="#242424">fn/index.js</text>
</g>
<!-- fn/index.js&#45;&gt;fn/alter&#45;range.js -->
<g id="edge14" class="edge">
<title>fn/index.js&#45;&gt;fn/alter&#45;range.js</title>
<path fill="none" stroke="#242424" d="M2085.6261,-710.7604C2098.7911,-672.6915 2116.3348,-621.9609 2131.4545,-578.2396"/>
<polygon fill="#242424" stroke="#242424" points="2134.7803,-579.3312 2134.7409,-568.7364 2128.1647,-577.0433 2134.7803,-579.3312"/>
</g>
<!-- fn/index.js&#45;&gt;fn/char&#45;code&#45;at.js -->
<g id="edge15" class="edge">
<title>fn/index.js&#45;&gt;fn/char&#45;code&#45;at.js</title>
<path fill="none" stroke="#242424" d="M2117.4419,-736.3469C2158.7779,-709.3071 2216.8337,-668.0769 2260.6762,-624.0461 2276.5171,-608.1371 2291.8323,-589.6187 2305.5697,-571.3859"/>
<polygon fill="#242424" stroke="#242424" points="2308.6157,-573.1546 2311.7667,-563.0392 2302.9954,-568.9818 2308.6157,-573.1546"/>
</g>
<!-- fn/index.js&#45;&gt;fn/character&#45;edge.js -->
<g id="edge16" class="edge">
<title>fn/index.js&#45;&gt;fn/character&#45;edge.js</title>
<path fill="none" stroke="#242424" d="M2125.5921,-757.4623C2208.1112,-740.0838 2358.5593,-700.134 2464.6762,-624.0461 2482.3037,-611.4068 2498.6146,-595.2402 2513.0043,-578.4334"/>
<polygon fill="#242424" stroke="#242424" points="2515.7576,-580.5968 2519.4784,-570.6768 2510.3836,-576.1113 2515.7576,-580.5968"/>
</g>
<!-- fn/index.js&#45;&gt;fn/control&#45;split.js -->
<g id="edge17" class="edge">
<title>fn/index.js&#45;&gt;fn/control&#45;split.js</title>
<path fill="none" stroke="#242424" d="M2125.8848,-759.7273C2262.8266,-739.0599 2592.9997,-684.2988 2686.6762,-624.0461 2705.6652,-611.8323 2722.6304,-595.0352 2737.1511,-577.3341"/>
<polygon fill="#242424" stroke="#242424" points="2740.1716,-579.1586 2743.6493,-569.1508 2734.6897,-574.8056 2740.1716,-579.1586"/>
</g>
<!-- fn/index.js&#45;&gt;fn/convert&#45;to&#45;ascii.js -->
<g id="edge18" class="edge">
<title>fn/index.js&#45;&gt;fn/convert&#45;to&#45;ascii.js</title>
<path fill="none" stroke="#242424" d="M2126.5497,-763.2625C2295.5658,-748.0345 2766.9522,-699.7086 2900.6762,-624.0461 2918.7971,-613.7931 2935.4825,-599.7255 2950.2854,-584.457"/>
<polygon fill="#242424" stroke="#242424" points="2953.1083,-586.5637 2957.3991,-576.8766 2948.0038,-581.7735 2953.1083,-586.5637"/>
</g>
<!-- fn/index.js&#45;&gt;fn/hex&#45;char&#45;code.js -->
<g id="edge19" class="edge">
<title>fn/index.js&#45;&gt;fn/hex&#45;char&#45;code.js</title>
<path fill="none" stroke="#242424" d="M2126.7793,-766.2911C2327.7863,-758.2713 2965.6209,-725.2333 3140.6762,-624.0461 3160.4521,-612.6151 3177.8255,-595.9504 3192.5064,-578.1005"/>
<polygon fill="#242424" stroke="#242424" points="3195.5926,-579.8414 3199.0612,-569.8304 3190.1068,-575.4933 3195.5926,-579.8414"/>
</g>
<!-- fn/magic&#45;range.js -->
<g id="node21" class="node">
<title>fn/magic&#45;range.js</title>
<ellipse fill="none" stroke="#0c821d" stroke-width="4" cx="995.6762" cy="-485.065" rx="88.2923" ry="88.2923"/>
<text text-anchor="middle" x="995.6762" y="-482.665" font-family="Fira Code" font-size="12.00" fill="#0c821d">fn/magic&#45;range.js</text>
</g>
<!-- fn/index.js&#45;&gt;fn/magic&#45;range.js -->
<g id="edge20" class="edge">
<title>fn/index.js&#45;&gt;fn/magic&#45;range.js</title>
<path fill="none" stroke="#242424" d="M2004.6378,-765.6486C1816.1988,-756.0484 1247.0367,-719.6214 1092.6762,-624.0461 1072.2091,-611.3735 1054.917,-592.6064 1040.8609,-572.9344"/>
<polygon fill="#242424" stroke="#242424" points="1043.5856,-570.7196 1035.0352,-564.4633 1037.8179,-574.6862 1043.5856,-570.7196"/>
</g>
<!-- fn/map&#45;wrap.js -->
<g id="node22" class="node">
<title>fn/map&#45;wrap.js</title>
<ellipse fill="none" stroke="#0c821d" stroke-width="4" cx="1176.6762" cy="-485.065" rx="74.7005" ry="74.7005"/>
<text text-anchor="middle" x="1176.6762" y="-482.665" font-family="Fira Code" font-size="12.00" fill="#0c821d">fn/map&#45;wrap.js</text>
</g>
<!-- fn/index.js&#45;&gt;fn/map&#45;wrap.js -->
<g id="edge21" class="edge">
<title>fn/index.js&#45;&gt;fn/map&#45;wrap.js</title>
<path fill="none" stroke="#242424" d="M2005.02,-764.0601C1839.0132,-751.0554 1381.5102,-708.2689 1259.6762,-624.0461 1238.0429,-609.0912 1221.1349,-586.499 1208.3882,-563.8512"/>
<polygon fill="#242424" stroke="#242424" points="1211.359,-561.9862 1203.5307,-554.847 1205.1983,-565.3098 1211.359,-561.9862"/>
</g>
<!-- fn/match.js -->
<g id="node23" class="node">
<title>fn/match.js</title>
<ellipse fill="none" stroke="#0c821d" stroke-width="4" cx="1329.6762" cy="-485.065" rx="60.6091" ry="60.6091"/>
<text text-anchor="middle" x="1329.6762" y="-482.665" font-family="Fira Code" font-size="12.00" fill="#0c821d">fn/match.js</text>
</g>
<!-- fn/index.js&#45;&gt;fn/match.js -->
<g id="edge22" class="edge">
<title>fn/index.js&#45;&gt;fn/match.js</title>
<path fill="none" stroke="#242424" d="M2005.1442,-762.0194C1859.5626,-745.5232 1494.8605,-697.7467 1399.6762,-624.0461 1376.751,-606.2953 1360.7451,-579.0022 1349.8859,-553.2871"/>
<polygon fill="#242424" stroke="#242424" points="1353.0919,-551.8782 1346.1148,-543.905 1346.5969,-554.4889 1353.0919,-551.8782"/>
</g>
<!-- fn/ninth&#45;bit.js -->
<g id="node24" class="node">
<title>fn/ninth&#45;bit.js</title>
<ellipse fill="none" stroke="#0c821d" stroke-width="4" cx="1487.6762" cy="-485.065" rx="79.3981" ry="79.3981"/>
<text text-anchor="middle" x="1487.6762" y="-482.665" font-family="Fira Code" font-size="12.00" fill="#0c821d">fn/ninth&#45;bit.js</text>
</g>
<!-- fn/index.js&#45;&gt;fn/ninth&#45;bit.js -->
<g id="edge23" class="edge">
<title>fn/index.js&#45;&gt;fn/ninth&#45;bit.js</title>
<path fill="none" stroke="#242424" d="M2004.9375,-764.2122C1905.8171,-754.5314 1707.1712,-723.2771 1575.6762,-624.0461 1555.5403,-608.8508 1538.8232,-587.5955 1525.5628,-566.271"/>
<polygon fill="#242424" stroke="#242424" points="1528.4265,-564.2411 1520.2788,-557.4687 1522.4248,-567.8439 1528.4265,-564.2411"/>
</g>
<!-- fn/parse&#45;binary&#45;char&#45;code.js -->
<g id="node25" class="node">
<title>fn/parse&#45;binary&#45;char&#45;code.js</title>
<ellipse fill="none" stroke="#0c821d" stroke-width="4" cx="1723.6762" cy="-485.065" rx="138.9623" ry="138.9623"/>
<text text-anchor="middle" x="1723.6762" y="-482.665" font-family="Fira Code" font-size="12.00" fill="#0c821d">fn/parse&#45;binary&#45;char&#45;code.js</text>
</g>
<!-- fn/index.js&#45;&gt;fn/parse&#45;binary&#45;char&#45;code.js -->
<g id="edge24" class="edge">
<title>fn/index.js&#45;&gt;fn/parse&#45;binary&#45;char&#45;code.js</title>
<path fill="none" stroke="#242424" d="M2015.4478,-733.4618C1975.5591,-705.1114 1918.8436,-663.5275 1871.6762,-624.0461 1858.3351,-612.8789 1844.6365,-600.8513 1831.2144,-588.7102"/>
<polygon fill="#242424" stroke="#242424" points="1833.5431,-586.0971 1823.7901,-581.9583 1828.8334,-591.2758 1833.5431,-586.0971"/>
</g>
<!-- fn/string&#45;wrap.js -->
<g id="node26" class="node">
<title>fn/string&#45;wrap.js</title>
<ellipse fill="none" stroke="#242424" stroke-width="4" cx="1968.6762" cy="-485.065" rx="88.2923" ry="88.2923"/>
<text text-anchor="middle" x="1968.6762" y="-482.665" font-family="Fira Code" font-size="12.00" fill="#242424">fn/string&#45;wrap.js</text>
</g>
<!-- fn/index.js&#45;&gt;fn/string&#45;wrap.js -->
<g id="edge25" class="edge">
<title>fn/index.js&#45;&gt;fn/string&#45;wrap.js</title>
<path fill="none" stroke="#242424" d="M2045.9299,-710.7604C2032.8992,-672.6915 2015.5345,-621.9609 2000.5691,-578.2396"/>
<polygon fill="#242424" stroke="#242424" points="2003.8661,-577.064 1997.3162,-568.7364 1997.2434,-579.331 2003.8661,-577.064"/>
</g>
<!-- fn/string&#45;wrap.js&#45;&gt;Ⓜ f&#45;utility/f&#45;utility.js -->
<g id="edge26" class="edge">
<title>fn/string&#45;wrap.js&#45;&gt;Ⓜ f&#45;utility/f&#45;utility.js</title>
<path fill="none" stroke="#242424" d="M1928.5606,-406.1096C1913.5655,-383.6145 1894.5182,-361.1524 1871.6762,-346.0838 1728.396,-251.5642 1237.878,-180.6379 991.8276,-150.0776"/>
<polygon fill="#242424" stroke="#242424" points="992.0923,-146.5837 981.7383,-148.8301 991.2332,-153.5308 992.0923,-146.5837"/>
</g>
<!-- index.js -->
<g id="node27" class="node">
<title>index.js</title>
<ellipse fill="none" stroke="#0c821d" stroke-width="4" cx="1741.6762" cy="-47.0083" rx="47.0167" ry="47.0167"/>
<text text-anchor="middle" x="1741.6762" y="-44.6083" font-family="Fira Code" font-size="12.00" fill="#0c821d">index.js</text>
</g>
<!-- test.js -->
<g id="node28" class="node">
<title>test.js</title>
<ellipse fill="none" stroke="#242424" stroke-width="4" cx="3405.6762" cy="-485.065" rx="42.3196" ry="42.3196"/>
<text text-anchor="middle" x="3405.6762" y="-482.665" font-family="Fira Code" font-size="12.00" fill="#242424">test.js</text>
</g>
<!-- test.js&#45;&gt;Ⓜ f&#45;utility/f&#45;utility.js -->
<g id="edge27" class="edge">
<title>test.js&#45;&gt;Ⓜ f&#45;utility/f&#45;utility.js</title>
<path fill="none" stroke="#242424" d="M3402.0427,-442.7452C3396.9001,-410.8519 3384.5069,-368.8487 3354.6762,-346.0838 3166.4202,-202.4194 1497.5457,-149.6111 992.7156,-136.8419"/>
<polygon fill="#242424" stroke="#242424" points="992.5426,-133.3365 982.4577,-136.5839 992.3665,-140.3343 992.5426,-133.3365"/>
</g>
</g>
</svg>
