<?xml version="1.0" encoding="UTF-8" standalone="no"?>
<!DOCTYPE svg PUBLIC "-//W3C//DTD SVG 1.1//EN"
 "http://www.w3.org/Graphics/SVG/1.1/DTD/svg11.dtd">
<!-- Generated by graphviz version 2.40.1 (20161225.0304)
 -->
<!-- Title: G Pages: 1 -->
<svg width="3424pt" height="1549pt"
 viewBox="0.00 0.00 3424.07 1548.54" xmlns="http://www.w3.org/2000/svg" xmlns:xlink="http://www.w3.org/1999/xlink">
<g id="graph0" class="graph" transform="scale(1 1) rotate(0) translate(7.992 1540.5492)">
<title>G</title>
<polygon fill="#eeeeff" stroke="transparent" points="-7.992,7.992 -7.992,-1540.5492 3416.0779,-1540.5492 3416.0779,7.992 -7.992,7.992"/>
<!-- cli/cmd.js -->
<g id="node1" class="node">
<title>cli/cmd.js</title>
<ellipse fill="none" stroke="#242424" stroke-width="4" cx="151.6762" cy="-485.065" rx="56.412" ry="56.412"/>
<text text-anchor="middle" x="151.6762" y="-482.665" font-family="Fira Code" font-size="12.00" fill="#242424">cli/cmd.js</text>
</g>
<!-- Ⓜ commander/index.js -->
<g id="node2" class="node">
<title>Ⓜ commander/index.js</title>
<ellipse fill="none" stroke="#0c821d" stroke-width="4" cx="113.6762" cy="-133.5419" rx="113.8526" ry="113.8526"/>
<text text-anchor="middle" x="113.6762" y="-132.3419" font-family="Fira Code" font-size="12.00" fill="#0c821d">Ⓜ commander/index.js</text>
</g>
<!-- cli/cmd.js&#45;&gt;Ⓜ commander/index.js -->
<g id="edge1" class="edge">
<title>cli/cmd.js&#45;&gt;Ⓜ commander/index.js</title>
<path fill="none" stroke="#242424" d="M145.6129,-428.9764C140.6114,-382.7092 133.3322,-315.3721 126.986,-256.6661"/>
<polygon fill="#242424" stroke="#242424" points="130.4492,-256.1357 125.8946,-246.5699 123.4897,-256.8881 130.4492,-256.1357"/>
</g>
<!-- cli/executable.js -->
<g id="node3" class="node">
<title>cli/executable.js</title>
<ellipse fill="none" stroke="#242424" stroke-width="4" cx="518.6762" cy="-485.065" rx="88.2923" ry="88.2923"/>
<text text-anchor="middle" x="518.6762" y="-482.665" font-family="Fira Code" font-size="12.00" fill="#242424">cli/executable.js</text>
</g>
<!-- Ⓜ f&#45;utility/f&#45;utility.js -->
<g id="node4" class="node">
<title>Ⓜ f&#45;utility/f&#45;utility.js</title>
<ellipse fill="none" stroke="#0c821d" stroke-width="4" cx="797.6762" cy="-133.5419" rx="133.5838" ry="133.5838"/>
<text text-anchor="middle" x="797.6762" y="-132.3419" font-family="Fira Code" font-size="12.00" fill="#0c821d">Ⓜ f&#45;utility/f&#45;utility.js</text>
</g>
<!-- cli/executable.js&#45;&gt;Ⓜ f&#45;utility/f&#45;utility.js -->
<g id="edge2" class="edge">
<title>cli/executable.js&#45;&gt;Ⓜ f&#45;utility/f&#45;utility.js</title>
<path fill="none" stroke="#242424" d="M567.9414,-411.5945C582.8515,-390.1592 599.5561,-366.9084 615.6762,-346.0838 642.6551,-311.2313 673.3705,-274.3871 701.7854,-241.3403"/>
<polygon fill="#242424" stroke="#242424" points="704.6931,-243.3278 708.5719,-233.4686 699.3914,-238.757 704.6931,-243.3278"/>
</g>
<!-- cli/index.js -->
<g id="node5" class="node">
<title>cli/index.js</title>
<ellipse fill="none" stroke="#242424" stroke-width="4" cx="328.6762" cy="-768.449" rx="65.3059" ry="65.3059"/>
<text text-anchor="middle" x="328.6762" y="-766.049" font-family="Fira Code" font-size="12.00" fill="#242424">cli/index.js</text>
</g>
<!-- cli/index.js&#45;&gt;cli/cmd.js -->
<g id="edge3" class="edge">
<title>cli/index.js&#45;&gt;cli/cmd.js</title>
<path fill="none" stroke="#242424" d="M292.7554,-713.4844C275.3392,-686.6301 254.2255,-653.7708 235.6762,-624.0461 218.9865,-597.3016 200.8509,-567.4054 185.7166,-542.2131"/>
<polygon fill="#242424" stroke="#242424" points="188.6419,-540.2857 180.4958,-533.5113 182.6393,-543.8871 188.6419,-540.2857"/>
</g>
<!-- cli/index.js&#45;&gt;cli/executable.js -->
<g id="edge4" class="edge">
<title>cli/index.js&#45;&gt;cli/executable.js</title>
<path fill="none" stroke="#242424" d="M365.3101,-713.8097C393.2343,-672.1608 432.1432,-614.1284 463.7825,-566.9387"/>
<polygon fill="#242424" stroke="#242424" points="466.7371,-568.8168 469.3989,-558.5618 460.9229,-564.9186 466.7371,-568.8168"/>
</g>
<!-- cli/processor.js -->
<g id="node6" class="node">
<title>cli/processor.js</title>
<ellipse fill="none" stroke="#242424" stroke-width="4" cx="328.6762" cy="-485.065" rx="83.5954" ry="83.5954"/>
<text text-anchor="middle" x="328.6762" y="-482.665" font-family="Fira Code" font-size="12.00" fill="#242424">cli/processor.js</text>
</g>
<!-- cli/index.js&#45;&gt;cli/processor.js -->
<g id="edge5" class="edge">
<title>cli/index.js&#45;&gt;cli/processor.js</title>
<path fill="none" stroke="#242424" d="M328.6762,-702.7227C328.6762,-666.0197 328.6762,-619.6616 328.6762,-579.1698"/>
<polygon fill="#242424" stroke="#242424" points="332.1763,-579.011 328.6762,-569.0111 325.1763,-579.0111 332.1763,-579.011"/>
</g>
<!-- cli/processor.js&#45;&gt;Ⓜ f&#45;utility/f&#45;utility.js -->
<g id="edge6" class="edge">
<title>cli/processor.js&#45;&gt;Ⓜ f&#45;utility/f&#45;utility.js</title>
<path fill="none" stroke="#242424" d="M368.997,-411.1919C383.6231,-388.5615 401.5604,-364.7404 421.6762,-346.0838 492.8665,-280.0575 588.2355,-226.4475 665.1105,-189.5855"/>
<polygon fill="#242424" stroke="#242424" points="666.8624,-192.6281 674.391,-185.1735 663.8569,-186.3062 666.8624,-192.6281"/>
</g>
<!-- Ⓜ fluture/index.js -->
<g id="node7" class="node">
<title>Ⓜ fluture/index.js</title>
<ellipse fill="none" stroke="#0c821d" stroke-width="4" cx="348.6762" cy="-133.5419" rx="103.9872" ry="103.9872"/>
<text text-anchor="middle" x="348.6762" y="-132.3419" font-family="Fira Code" font-size="12.00" fill="#0c821d">Ⓜ fluture/index.js</text>
</g>
<!-- cli/processor.js&#45;&gt;Ⓜ fluture/index.js -->
<g id="edge7" class="edge">
<title>cli/processor.js&#45;&gt;Ⓜ fluture/index.js</title>
<path fill="none" stroke="#242424" d="M333.4413,-401.313C336.0571,-355.3369 339.3385,-297.663 342.1853,-247.6266"/>
<polygon fill="#242424" stroke="#242424" points="345.6934,-247.5828 342.7671,-237.4001 338.7047,-247.1851 345.6934,-247.5828"/>
</g>
<!-- constants/empty.js -->
<g id="node8" class="node">
<title>constants/empty.js</title>
<ellipse fill="none" stroke="#0c821d" stroke-width="4" cx="2332.6762" cy="-1137.7839" rx="92.9895" ry="92.9895"/>
<text text-anchor="middle" x="2332.6762" y="-1135.3839" font-family="Fira Code" font-size="12.00" fill="#0c821d">constants/empty.js</text>
</g>
<!-- constants/index.js -->
<g id="node9" class="node">
<title>constants/index.js</title>
<ellipse fill="none" stroke="#242424" stroke-width="4" cx="2452.6762" cy="-1439.5625" rx="92.9895" ry="92.9895"/>
<text text-anchor="middle" x="2452.6762" y="-1437.1625" font-family="Fira Code" font-size="12.00" fill="#242424">constants/index.js</text>
</g>
<!-- constants/index.js&#45;&gt;constants/empty.js -->
<g id="edge8" class="edge">
<title>constants/index.js&#45;&gt;constants/empty.js</title>
<path fill="none" stroke="#242424" d="M2418.289,-1353.0848C2403.4766,-1315.8342 2386.1003,-1272.1359 2370.8867,-1233.8766"/>
<polygon fill="#242424" stroke="#242424" points="2374.0158,-1232.2732 2367.0684,-1224.2741 2367.5111,-1234.8597 2374.0158,-1232.2732"/>
</g>
<!-- constants/regex&#45;control.js -->
<g id="node10" class="node">
<title>constants/regex&#45;control.js</title>
<ellipse fill="none" stroke="#0c821d" stroke-width="4" cx="2573.6762" cy="-1137.7839" rx="129.5681" ry="129.5681"/>
<text text-anchor="middle" x="2573.6762" y="-1135.3839" font-family="Fira Code" font-size="12.00" fill="#0c821d">constants/regex&#45;control.js</text>
</g>
<!-- constants/index.js&#45;&gt;constants/regex&#45;control.js -->
<g id="edge9" class="edge">
<title>constants/index.js&#45;&gt;constants/regex&#45;control.js</title>
<path fill="none" stroke="#242424" d="M2487.3499,-1353.0848C2498.0309,-1326.446 2510.034,-1296.5098 2521.6162,-1267.6234"/>
<polygon fill="#242424" stroke="#242424" points="2524.8866,-1268.8714 2525.3596,-1258.2871 2518.3894,-1266.2663 2524.8866,-1268.8714"/>
</g>
<!-- decode.js -->
<g id="node11" class="node">
<title>decode.js</title>
<ellipse fill="none" stroke="#242424" stroke-width="4" cx="676.6762" cy="-485.065" rx="51.7142" ry="51.7142"/>
<text text-anchor="middle" x="676.6762" y="-482.665" font-family="Fira Code" font-size="12.00" fill="#242424">decode.js</text>
</g>
<!-- decode.js&#45;&gt;Ⓜ f&#45;utility/f&#45;utility.js -->
<g id="edge10" class="edge">
<title>decode.js&#45;&gt;Ⓜ f&#45;utility/f&#45;utility.js</title>
<path fill="none" stroke="#242424" d="M693.5007,-436.1872C708.3251,-393.12 730.6408,-328.2897 750.8201,-269.6659"/>
<polygon fill="#242424" stroke="#242424" points="754.2233,-270.5324 754.1687,-259.9377 747.6045,-268.254 754.2233,-270.5324"/>
</g>
<!-- encode.js -->
<g id="node12" class="node">
<title>encode.js</title>
<ellipse fill="none" stroke="#242424" stroke-width="4" cx="797.6762" cy="-485.065" rx="51.7142" ry="51.7142"/>
<text text-anchor="middle" x="797.6762" y="-482.665" font-family="Fira Code" font-size="12.00" fill="#242424">encode.js</text>
</g>
<!-- encode.js&#45;&gt;Ⓜ f&#45;utility/f&#45;utility.js -->
<g id="edge11" class="edge">
<title>encode.js&#45;&gt;Ⓜ f&#45;utility/f&#45;utility.js</title>
<path fill="none" stroke="#242424" d="M797.6762,-433.1965C797.6762,-392.1145 797.6762,-332.6586 797.6762,-277.5198"/>
<polygon fill="#242424" stroke="#242424" points="801.1763,-277.2798 797.6762,-267.2798 794.1763,-277.2798 801.1763,-277.2798"/>
</g>
<!-- fn/alter&#45;range.js -->
<g id="node13" class="node">
<title>fn/alter&#45;range.js</title>
<ellipse fill="none" stroke="#0c821d" stroke-width="4" cx="2123.6762" cy="-485.065" rx="88.2923" ry="88.2923"/>
<text text-anchor="middle" x="2123.6762" y="-482.665" font-family="Fira Code" font-size="12.00" fill="#0c821d">fn/alter&#45;range.js</text>
</g>
<!-- fn/char&#45;code&#45;at.js -->
<g id="node14" class="node">
<title>fn/char&#45;code&#45;at.js</title>
<ellipse fill="none" stroke="#0c821d" stroke-width="4" cx="2322.6762" cy="-485.065" rx="92.9895" ry="92.9895"/>
<text text-anchor="middle" x="2322.6762" y="-482.665" font-family="Fira Code" font-size="12.00" fill="#0c821d">fn/char&#45;code&#45;at.js</text>
</g>
<!-- fn/character&#45;edge.js -->
<g id="node15" class="node">
<title>fn/character&#45;edge.js</title>
<ellipse fill="none" stroke="#0c821d" stroke-width="4" cx="2535.6762" cy="-485.065" rx="102.3844" ry="102.3844"/>
<text text-anchor="middle" x="2535.6762" y="-482.665" font-family="Fira Code" font-size="12.00" fill="#0c821d">fn/character&#45;edge.js</text>
</g>
<!-- fn/control&#45;split.js -->
<g id="node16" class="node">
<title>fn/control&#45;split.js</title>
<ellipse fill="none" stroke="#0c821d" stroke-width="4" cx="2753.6762" cy="-485.065" rx="97.6868" ry="97.6868"/>
<text text-anchor="middle" x="2753.6762" y="-482.665" font-family="Fira Code" font-size="12.00" fill="#0c821d">fn/control&#45;split.js</text>
</g>
<!-- fn/convert&#45;to&#45;ascii.js -->
<g id="node17" class="node">
<title>fn/convert&#45;to&#45;ascii.js</title>
<ellipse fill="none" stroke="#242424" stroke-width="4" cx="2980.6762" cy="-485.065" rx="111.2787" ry="111.2787"/>
<text text-anchor="middle" x="2980.6762" y="-482.665" font-family="Fira Code" font-size="12.00" fill="#242424">fn/convert&#45;to&#45;ascii.js</text>
</g>
<!-- fn/convert&#45;to&#45;ascii.js&#45;&gt;Ⓜ f&#45;utility/f&#45;utility.js -->
<g id="edge12" class="edge">
<title>fn/convert&#45;to&#45;ascii.js&#45;&gt;Ⓜ f&#45;utility/f&#45;utility.js</title>
<path fill="none" stroke="#242424" d="M2918.3131,-392.5279C2901.7164,-374.3054 2882.3003,-357.3584 2860.6762,-346.0838 2691.055,-257.6454 1381.3925,-169.5711 941.3512,-142.2013"/>
<polygon fill="#242424" stroke="#242424" points="941.3169,-138.6925 931.1192,-141.5661 940.8831,-145.679 941.3169,-138.6925"/>
</g>
<!-- fn/hex&#45;char&#45;code.js -->
<g id="node18" class="node">
<title>fn/hex&#45;char&#45;code.js</title>
<ellipse fill="none" stroke="#0c821d" stroke-width="4" cx="3207.6762" cy="-485.065" rx="97.6868" ry="97.6868"/>
<text text-anchor="middle" x="3207.6762" y="-482.665" font-family="Fira Code" font-size="12.00" fill="#0c821d">fn/hex&#45;char&#45;code.js</text>
</g>
<!-- fn/index.js -->
<g id="node19" class="node">
<title>fn/index.js</title>
<ellipse fill="none" stroke="#242424" stroke-width="4" cx="2025.6762" cy="-768.449" rx="60.6091" ry="60.6091"/>
<text text-anchor="middle" x="2025.6762" y="-766.049" font-family="Fira Code" font-size="12.00" fill="#242424">fn/index.js</text>
</g>
<!-- fn/index.js&#45;&gt;fn/alter&#45;range.js -->
<g id="edge13" class="edge">
<title>fn/index.js&#45;&gt;fn/alter&#45;range.js</title>
<path fill="none" stroke="#242424" d="M2045.6261,-710.7604C2058.7911,-672.6915 2076.3348,-621.9609 2091.4545,-578.2396"/>
<polygon fill="#242424" stroke="#242424" points="2094.7803,-579.3312 2094.7409,-568.7364 2088.1647,-577.0433 2094.7803,-579.3312"/>
</g>
<!-- fn/index.js&#45;&gt;fn/char&#45;code&#45;at.js -->
<g id="edge14" class="edge">
<title>fn/index.js&#45;&gt;fn/char&#45;code&#45;at.js</title>
<path fill="none" stroke="#242424" d="M2077.4419,-736.3469C2118.7779,-709.3071 2176.8337,-668.0769 2220.6762,-624.0461 2236.5171,-608.1371 2251.8323,-589.6187 2265.5697,-571.3859"/>
<polygon fill="#242424" stroke="#242424" points="2268.6157,-573.1546 2271.7667,-563.0392 2262.9954,-568.9818 2268.6157,-573.1546"/>
</g>
<!-- fn/index.js&#45;&gt;fn/character&#45;edge.js -->
<g id="edge15" class="edge">
<title>fn/index.js&#45;&gt;fn/character&#45;edge.js</title>
<path fill="none" stroke="#242424" d="M2085.5921,-757.4623C2168.1112,-740.0838 2318.5593,-700.134 2424.6762,-624.0461 2442.3037,-611.4068 2458.6146,-595.2402 2473.0043,-578.4334"/>
<polygon fill="#242424" stroke="#242424" points="2475.7576,-580.5968 2479.4784,-570.6768 2470.3836,-576.1113 2475.7576,-580.5968"/>
</g>
<!-- fn/index.js&#45;&gt;fn/control&#45;split.js -->
<g id="edge16" class="edge">
<title>fn/index.js&#45;&gt;fn/control&#45;split.js</title>
<path fill="none" stroke="#242424" d="M2085.8848,-759.7273C2222.8266,-739.0599 2552.9997,-684.2988 2646.6762,-624.0461 2665.6652,-611.8323 2682.6304,-595.0352 2697.1511,-577.3341"/>
<polygon fill="#242424" stroke="#242424" points="2700.1716,-579.1586 2703.6493,-569.1508 2694.6897,-574.8056 2700.1716,-579.1586"/>
</g>
<!-- fn/index.js&#45;&gt;fn/convert&#45;to&#45;ascii.js -->
<g id="edge17" class="edge">
<title>fn/index.js&#45;&gt;fn/convert&#45;to&#45;ascii.js</title>
<path fill="none" stroke="#242424" d="M2086.5497,-763.2625C2255.5658,-748.0345 2726.9522,-699.7086 2860.6762,-624.0461 2878.7971,-613.7931 2895.4825,-599.7255 2910.2854,-584.457"/>
<polygon fill="#242424" stroke="#242424" points="2913.1083,-586.5637 2917.3991,-576.8766 2908.0038,-581.7735 2913.1083,-586.5637"/>
</g>
<!-- fn/index.js&#45;&gt;fn/hex&#45;char&#45;code.js -->
<g id="edge18" class="edge">
<title>fn/index.js&#45;&gt;fn/hex&#45;char&#45;code.js</title>
<path fill="none" stroke="#242424" d="M2086.7793,-766.2911C2287.7863,-758.2713 2925.6209,-725.2333 3100.6762,-624.0461 3120.4521,-612.6151 3137.8255,-595.9504 3152.5064,-578.1005"/>
<polygon fill="#242424" stroke="#242424" points="3155.5926,-579.8414 3159.0612,-569.8304 3150.1068,-575.4933 3155.5926,-579.8414"/>
</g>
<!-- fn/magic&#45;range.js -->
<g id="node20" class="node">
<title>fn/magic&#45;range.js</title>
<ellipse fill="none" stroke="#0c821d" stroke-width="4" cx="955.6762" cy="-485.065" rx="88.2923" ry="88.2923"/>
<text text-anchor="middle" x="955.6762" y="-482.665" font-family="Fira Code" font-size="12.00" fill="#0c821d">fn/magic&#45;range.js</text>
</g>
<!-- fn/index.js&#45;&gt;fn/magic&#45;range.js -->
<g id="edge19" class="edge">
<title>fn/index.js&#45;&gt;fn/magic&#45;range.js</title>
<path fill="none" stroke="#242424" d="M1964.6378,-765.6486C1776.1988,-756.0484 1207.0367,-719.6214 1052.6762,-624.0461 1032.2091,-611.3735 1014.917,-592.6064 1000.8609,-572.9344"/>
<polygon fill="#242424" stroke="#242424" points="1003.5856,-570.7196 995.0352,-564.4633 997.8179,-574.6862 1003.5856,-570.7196"/>
</g>
<!-- fn/map&#45;wrap.js -->
<g id="node21" class="node">
<title>fn/map&#45;wrap.js</title>
<ellipse fill="none" stroke="#0c821d" stroke-width="4" cx="1136.6762" cy="-485.065" rx="74.7005" ry="74.7005"/>
<text text-anchor="middle" x="1136.6762" y="-482.665" font-family="Fira Code" font-size="12.00" fill="#0c821d">fn/map&#45;wrap.js</text>
</g>
<!-- fn/index.js&#45;&gt;fn/map&#45;wrap.js -->
<g id="edge20" class="edge">
<title>fn/index.js&#45;&gt;fn/map&#45;wrap.js</title>
<path fill="none" stroke="#242424" d="M1965.02,-764.0601C1799.0132,-751.0554 1341.5102,-708.2689 1219.6762,-624.0461 1198.0429,-609.0912 1181.1349,-586.499 1168.3882,-563.8512"/>
<polygon fill="#242424" stroke="#242424" points="1171.359,-561.9862 1163.5307,-554.847 1165.1983,-565.3098 1171.359,-561.9862"/>
</g>
<!-- fn/match.js -->
<g id="node22" class="node">
<title>fn/match.js</title>
<ellipse fill="none" stroke="#0c821d" stroke-width="4" cx="1289.6762" cy="-485.065" rx="60.6091" ry="60.6091"/>
<text text-anchor="middle" x="1289.6762" y="-482.665" font-family="Fira Code" font-size="12.00" fill="#0c821d">fn/match.js</text>
</g>
<!-- fn/index.js&#45;&gt;fn/match.js -->
<g id="edge21" class="edge">
<title>fn/index.js&#45;&gt;fn/match.js</title>
<path fill="none" stroke="#242424" d="M1965.1442,-762.0194C1819.5626,-745.5232 1454.8605,-697.7467 1359.6762,-624.0461 1336.751,-606.2953 1320.7451,-579.0022 1309.8859,-553.2871"/>
<polygon fill="#242424" stroke="#242424" points="1313.0919,-551.8782 1306.1148,-543.905 1306.5969,-554.4889 1313.0919,-551.8782"/>
</g>
<!-- fn/ninth&#45;bit.js -->
<g id="node23" class="node">
<title>fn/ninth&#45;bit.js</title>
<ellipse fill="none" stroke="#0c821d" stroke-width="4" cx="1447.6762" cy="-485.065" rx="79.3981" ry="79.3981"/>
<text text-anchor="middle" x="1447.6762" y="-482.665" font-family="Fira Code" font-size="12.00" fill="#0c821d">fn/ninth&#45;bit.js</text>
</g>
<!-- fn/index.js&#45;&gt;fn/ninth&#45;bit.js -->
<g id="edge22" class="edge">
<title>fn/index.js&#45;&gt;fn/ninth&#45;bit.js</title>
<path fill="none" stroke="#242424" d="M1964.9375,-764.2122C1865.8171,-754.5314 1667.1712,-723.2771 1535.6762,-624.0461 1515.5403,-608.8508 1498.8232,-587.5955 1485.5628,-566.271"/>
<polygon fill="#242424" stroke="#242424" points="1488.4265,-564.2411 1480.2788,-557.4687 1482.4248,-567.8439 1488.4265,-564.2411"/>
</g>
<!-- fn/parse&#45;binary&#45;char&#45;code.js -->
<g id="node24" class="node">
<title>fn/parse&#45;binary&#45;char&#45;code.js</title>
<ellipse fill="none" stroke="#0c821d" stroke-width="4" cx="1683.6762" cy="-485.065" rx="138.9623" ry="138.9623"/>
<text text-anchor="middle" x="1683.6762" y="-482.665" font-family="Fira Code" font-size="12.00" fill="#0c821d">fn/parse&#45;binary&#45;char&#45;code.js</text>
</g>
<!-- fn/index.js&#45;&gt;fn/parse&#45;binary&#45;char&#45;code.js -->
<g id="edge23" class="edge">
<title>fn/index.js&#45;&gt;fn/parse&#45;binary&#45;char&#45;code.js</title>
<path fill="none" stroke="#242424" d="M1975.4478,-733.4618C1935.5591,-705.1114 1878.8436,-663.5275 1831.6762,-624.0461 1818.3351,-612.8789 1804.6365,-600.8513 1791.2144,-588.7102"/>
<polygon fill="#242424" stroke="#242424" points="1793.5431,-586.0971 1783.7901,-581.9583 1788.8334,-591.2758 1793.5431,-586.0971"/>
</g>
<!-- fn/string&#45;wrap.js -->
<g id="node25" class="node">
<title>fn/string&#45;wrap.js</title>
<ellipse fill="none" stroke="#242424" stroke-width="4" cx="1928.6762" cy="-485.065" rx="88.2923" ry="88.2923"/>
<text text-anchor="middle" x="1928.6762" y="-482.665" font-family="Fira Code" font-size="12.00" fill="#242424">fn/string&#45;wrap.js</text>
</g>
<!-- fn/index.js&#45;&gt;fn/string&#45;wrap.js -->
<g id="edge24" class="edge">
<title>fn/index.js&#45;&gt;fn/string&#45;wrap.js</title>
<path fill="none" stroke="#242424" d="M2005.9299,-710.7604C1992.8992,-672.6915 1975.5345,-621.9609 1960.5691,-578.2396"/>
<polygon fill="#242424" stroke="#242424" points="1963.8661,-577.064 1957.3162,-568.7364 1957.2434,-579.331 1963.8661,-577.064"/>
</g>
<!-- fn/string&#45;wrap.js&#45;&gt;Ⓜ f&#45;utility/f&#45;utility.js -->
<g id="edge25" class="edge">
<title>fn/string&#45;wrap.js&#45;&gt;Ⓜ f&#45;utility/f&#45;utility.js</title>
<path fill="none" stroke="#242424" d="M1888.58,-406.0801C1873.5858,-383.5836 1854.5342,-361.1281 1831.6762,-346.0838 1686.5346,-250.5569 1189.1041,-179.9341 940.904,-149.733"/>
<polygon fill="#242424" stroke="#242424" points="941.0764,-146.2283 930.728,-148.5004 940.2346,-153.1775 941.0764,-146.2283"/>
</g>
<!-- index.js -->
<g id="node26" class="node">
<title>index.js</title>
<ellipse fill="none" stroke="#0c821d" stroke-width="4" cx="1726.6762" cy="-47.0083" rx="47.0167" ry="47.0167"/>
<text text-anchor="middle" x="1726.6762" y="-44.6083" font-family="Fira Code" font-size="12.00" fill="#0c821d">index.js</text>
</g>
<!-- test.js -->
<g id="node27" class="node">
<title>test.js</title>
<ellipse fill="none" stroke="#242424" stroke-width="4" cx="3365.6762" cy="-485.065" rx="42.3196" ry="42.3196"/>
<text text-anchor="middle" x="3365.6762" y="-482.665" font-family="Fira Code" font-size="12.00" fill="#242424">test.js</text>
</g>
<!-- test.js&#45;&gt;Ⓜ f&#45;utility/f&#45;utility.js -->
<g id="edge26" class="edge">
<title>test.js&#45;&gt;Ⓜ f&#45;utility/f&#45;utility.js</title>
<path fill="none" stroke="#242424" d="M3362.045,-442.7422C3356.9036,-410.8471 3344.5111,-368.8432 3314.6762,-346.0838 3125.4649,-201.7455 1447.4687,-149.3707 941.4771,-136.7789"/>
<polygon fill="#242424" stroke="#242424" points="941.2799,-133.2731 931.1964,-136.5246 941.1067,-140.2709 941.2799,-133.2731"/>
</g>
</g>
</svg>
