<?xml version="1.0" encoding="UTF-8" standalone="no"?>
<!DOCTYPE svg PUBLIC "-//W3C//DTD SVG 1.1//EN"
 "http://www.w3.org/Graphics/SVG/1.1/DTD/svg11.dtd">
<!-- Generated by graphviz version 2.40.1 (20161225.0304)
 -->
<!-- Title: G Pages: 1 -->
<svg width="3322pt" height="1540pt"
 viewBox="0.00 0.00 3322.27 1539.54" xmlns="http://www.w3.org/2000/svg" xmlns:xlink="http://www.w3.org/1999/xlink">
<g id="graph0" class="graph" transform="scale(1 1) rotate(0) translate(7.992 1531.5492)">
<title>G</title>
<polygon fill="#eeeeff" stroke="transparent" points="-7.992,7.992 -7.992,-1531.5492 3314.2751,-1531.5492 3314.2751,7.992 -7.992,7.992"/>
<!-- cli/cmd.js -->
<g id="node1" class="node">
<title>cli/cmd.js</title>
<ellipse fill="none" stroke="#242424" stroke-width="4" cx="151.6762" cy="-485.065" rx="56.412" ry="56.412"/>
<text text-anchor="middle" x="151.6762" y="-482.665" font-family="Fira Code" font-size="12.00" fill="#242424">cli/cmd.js</text>
</g>
<!-- Ⓜ commander/index.js -->
<g id="node2" class="node">
<title>Ⓜ commander/index.js</title>
<ellipse fill="none" stroke="#0c821d" stroke-width="4" cx="113.6762" cy="-133.5419" rx="113.8526" ry="113.8526"/>
<text text-anchor="middle" x="113.6762" y="-132.3419" font-family="Fira Code" font-size="12.00" fill="#0c821d">Ⓜ commander/index.js</text>
</g>
<!-- cli/cmd.js&#45;&gt;Ⓜ commander/index.js -->
<g id="edge1" class="edge">
<title>cli/cmd.js&#45;&gt;Ⓜ commander/index.js</title>
<path fill="none" stroke="#242424" d="M145.6129,-428.9764C140.6114,-382.7092 133.3322,-315.3721 126.986,-256.6661"/>
<polygon fill="#242424" stroke="#242424" points="130.4492,-256.1357 125.8946,-246.5699 123.4897,-256.8881 130.4492,-256.1357"/>
</g>
<!-- cli/executable.js -->
<g id="node3" class="node">
<title>cli/executable.js</title>
<ellipse fill="none" stroke="#242424" stroke-width="4" cx="518.6762" cy="-485.065" rx="88.2923" ry="88.2923"/>
<text text-anchor="middle" x="518.6762" y="-482.665" font-family="Fira Code" font-size="12.00" fill="#242424">cli/executable.js</text>
</g>
<!-- Ⓜ f&#45;utility/f&#45;utility.js -->
<g id="node4" class="node">
<title>Ⓜ f&#45;utility/f&#45;utility.js</title>
<ellipse fill="none" stroke="#0c821d" stroke-width="4" cx="822.6762" cy="-133.5419" rx="133.5838" ry="133.5838"/>
<text text-anchor="middle" x="822.6762" y="-132.3419" font-family="Fira Code" font-size="12.00" fill="#0c821d">Ⓜ f&#45;utility/f&#45;utility.js</text>
</g>
<!-- cli/executable.js&#45;&gt;Ⓜ f&#45;utility/f&#45;utility.js -->
<g id="edge2" class="edge">
<title>cli/executable.js&#45;&gt;Ⓜ f&#45;utility/f&#45;utility.js</title>
<path fill="none" stroke="#242424" d="M567.4694,-411.3469C582.5765,-389.7954 599.7221,-366.5438 616.6762,-346.0838 648.3579,-307.8507 685.4715,-268.1993 719.4029,-233.6473"/>
<polygon fill="#242424" stroke="#242424" points="722.0646,-235.9328 726.592,-226.354 717.0793,-231.0187 722.0646,-235.9328"/>
</g>
<!-- cli/index.js -->
<g id="node5" class="node">
<title>cli/index.js</title>
<ellipse fill="none" stroke="#242424" stroke-width="4" cx="328.6762" cy="-768.449" rx="65.3059" ry="65.3059"/>
<text text-anchor="middle" x="328.6762" y="-766.049" font-family="Fira Code" font-size="12.00" fill="#242424">cli/index.js</text>
</g>
<!-- cli/index.js&#45;&gt;cli/cmd.js -->
<g id="edge3" class="edge">
<title>cli/index.js&#45;&gt;cli/cmd.js</title>
<path fill="none" stroke="#242424" d="M292.7554,-713.4844C275.3392,-686.6301 254.2255,-653.7708 235.6762,-624.0461 218.9865,-597.3016 200.8509,-567.4054 185.7166,-542.2131"/>
<polygon fill="#242424" stroke="#242424" points="188.6419,-540.2857 180.4958,-533.5113 182.6393,-543.8871 188.6419,-540.2857"/>
</g>
<!-- cli/index.js&#45;&gt;cli/executable.js -->
<g id="edge4" class="edge">
<title>cli/index.js&#45;&gt;cli/executable.js</title>
<path fill="none" stroke="#242424" d="M365.3101,-713.8097C393.2343,-672.1608 432.1432,-614.1284 463.7825,-566.9387"/>
<polygon fill="#242424" stroke="#242424" points="466.7371,-568.8168 469.3989,-558.5618 460.9229,-564.9186 466.7371,-568.8168"/>
</g>
<!-- cli/processor.js -->
<g id="node6" class="node">
<title>cli/processor.js</title>
<ellipse fill="none" stroke="#242424" stroke-width="4" cx="328.6762" cy="-485.065" rx="83.5954" ry="83.5954"/>
<text text-anchor="middle" x="328.6762" y="-482.665" font-family="Fira Code" font-size="12.00" fill="#242424">cli/processor.js</text>
</g>
<!-- cli/index.js&#45;&gt;cli/processor.js -->
<g id="edge5" class="edge">
<title>cli/index.js&#45;&gt;cli/processor.js</title>
<path fill="none" stroke="#242424" d="M328.6762,-702.7227C328.6762,-666.0197 328.6762,-619.6616 328.6762,-579.1698"/>
<polygon fill="#242424" stroke="#242424" points="332.1763,-579.011 328.6762,-569.0111 325.1763,-579.0111 332.1763,-579.011"/>
</g>
<!-- cli/processor.js&#45;&gt;Ⓜ f&#45;utility/f&#45;utility.js -->
<g id="edge6" class="edge">
<title>cli/processor.js&#45;&gt;Ⓜ f&#45;utility/f&#45;utility.js</title>
<path fill="none" stroke="#242424" d="M368.4657,-411.2237C383.1159,-388.4668 401.2016,-364.5633 421.6762,-346.0838 499.6188,-275.736 605.069,-221.0362 688.2716,-184.7547"/>
<polygon fill="#242424" stroke="#242424" points="689.7415,-187.9323 697.5323,-180.7522 686.9643,-181.5068 689.7415,-187.9323"/>
</g>
<!-- Ⓜ fluture/index.js -->
<g id="node7" class="node">
<title>Ⓜ fluture/index.js</title>
<ellipse fill="none" stroke="#0c821d" stroke-width="4" cx="348.6762" cy="-133.5419" rx="103.9872" ry="103.9872"/>
<text text-anchor="middle" x="348.6762" y="-132.3419" font-family="Fira Code" font-size="12.00" fill="#0c821d">Ⓜ fluture/index.js</text>
</g>
<!-- cli/processor.js&#45;&gt;Ⓜ fluture/index.js -->
<g id="edge7" class="edge">
<title>cli/processor.js&#45;&gt;Ⓜ fluture/index.js</title>
<path fill="none" stroke="#242424" d="M333.4413,-401.313C336.0571,-355.3369 339.3385,-297.663 342.1853,-247.6266"/>
<polygon fill="#242424" stroke="#242424" points="345.6934,-247.5828 342.7671,-237.4001 338.7047,-247.1851 345.6934,-247.5828"/>
</g>
<!-- constants/empty.js -->
<g id="node8" class="node">
<title>constants/empty.js</title>
<ellipse fill="none" stroke="#0c821d" stroke-width="4" cx="2312.6762" cy="-1128.7839" rx="92.9895" ry="92.9895"/>
<text text-anchor="middle" x="2312.6762" y="-1126.3839" font-family="Fira Code" font-size="12.00" fill="#0c821d">constants/empty.js</text>
</g>
<!-- constants/index.js -->
<g id="node9" class="node">
<title>constants/index.js</title>
<ellipse fill="none" stroke="#242424" stroke-width="4" cx="2432.6762" cy="-1430.5625" rx="92.9895" ry="92.9895"/>
<text text-anchor="middle" x="2432.6762" y="-1428.1625" font-family="Fira Code" font-size="12.00" fill="#242424">constants/index.js</text>
</g>
<!-- constants/index.js&#45;&gt;constants/empty.js -->
<g id="edge8" class="edge">
<title>constants/index.js&#45;&gt;constants/empty.js</title>
<path fill="none" stroke="#242424" d="M2398.289,-1344.0848C2383.4766,-1306.8342 2366.1003,-1263.1359 2350.8867,-1224.8766"/>
<polygon fill="#242424" stroke="#242424" points="2354.0158,-1223.2732 2347.0684,-1215.2741 2347.5111,-1225.8597 2354.0158,-1223.2732"/>
</g>
<!-- constants/regex&#45;control.js -->
<g id="node10" class="node">
<title>constants/regex&#45;control.js</title>
<ellipse fill="none" stroke="#0c821d" stroke-width="4" cx="2553.6762" cy="-1128.7839" rx="129.5681" ry="129.5681"/>
<text text-anchor="middle" x="2553.6762" y="-1126.3839" font-family="Fira Code" font-size="12.00" fill="#0c821d">constants/regex&#45;control.js</text>
</g>
<!-- constants/index.js&#45;&gt;constants/regex&#45;control.js -->
<g id="edge9" class="edge">
<title>constants/index.js&#45;&gt;constants/regex&#45;control.js</title>
<path fill="none" stroke="#242424" d="M2467.3499,-1344.0848C2478.0309,-1317.446 2490.034,-1287.5098 2501.6162,-1258.6234"/>
<polygon fill="#242424" stroke="#242424" points="2504.8866,-1259.8714 2505.3596,-1249.2871 2498.3894,-1257.2663 2504.8866,-1259.8714"/>
</g>
<!-- decode.js -->
<g id="node11" class="node">
<title>decode.js</title>
<ellipse fill="none" stroke="#242424" stroke-width="4" cx="2299.6762" cy="-485.065" rx="51.7142" ry="51.7142"/>
<text text-anchor="middle" x="2299.6762" y="-482.665" font-family="Fira Code" font-size="12.00" fill="#242424">decode.js</text>
</g>
<!-- decode.js&#45;&gt;Ⓜ f&#45;utility/f&#45;utility.js -->
<g id="edge10" class="edge">
<title>decode.js&#45;&gt;Ⓜ f&#45;utility/f&#45;utility.js</title>
<path fill="none" stroke="#242424" d="M2290.1442,-434.05C2281.7716,-403.7849 2266.4054,-367.2995 2238.6762,-346.0838 2040.9261,-194.785 1285.5958,-150.1275 966.4081,-137.8594"/>
<polygon fill="#242424" stroke="#242424" points="966.2911,-134.3525 956.1656,-137.4711 966.0258,-141.3475 966.2911,-134.3525"/>
</g>
<!-- encode.js -->
<g id="node12" class="node">
<title>encode.js</title>
<ellipse fill="none" stroke="#242424" stroke-width="4" cx="3254.6762" cy="-485.065" rx="51.7142" ry="51.7142"/>
<text text-anchor="middle" x="3254.6762" y="-482.665" font-family="Fira Code" font-size="12.00" fill="#242424">encode.js</text>
</g>
<!-- encode.js&#45;&gt;Ⓜ f&#45;utility/f&#45;utility.js -->
<g id="edge11" class="edge">
<title>encode.js&#45;&gt;Ⓜ f&#45;utility/f&#45;utility.js</title>
<path fill="none" stroke="#242424" d="M3246.0458,-433.8334C3238.0843,-403.2848 3222.9957,-366.5724 3194.6762,-346.0838 3013.9763,-215.3515 1452.7614,-154.0041 966.5857,-137.9525"/>
<polygon fill="#242424" stroke="#242424" points="966.4601,-134.4466 956.3505,-137.6161 966.23,-141.4428 966.4601,-134.4466"/>
</g>
<!-- fn/alter&#45;range.js -->
<g id="node13" class="node">
<title>fn/alter&#45;range.js</title>
<ellipse fill="none" stroke="#0c821d" stroke-width="4" cx="2457.6762" cy="-485.065" rx="88.2923" ry="88.2923"/>
<text text-anchor="middle" x="2457.6762" y="-482.665" font-family="Fira Code" font-size="12.00" fill="#0c821d">fn/alter&#45;range.js</text>
</g>
<!-- fn/char&#45;code&#45;at.js -->
<g id="node14" class="node">
<title>fn/char&#45;code&#45;at.js</title>
<ellipse fill="none" stroke="#0c821d" stroke-width="4" cx="2656.6762" cy="-485.065" rx="92.9895" ry="92.9895"/>
<text text-anchor="middle" x="2656.6762" y="-482.665" font-family="Fira Code" font-size="12.00" fill="#0c821d">fn/char&#45;code&#45;at.js</text>
</g>
<!-- fn/character&#45;edge.js -->
<g id="node15" class="node">
<title>fn/character&#45;edge.js</title>
<ellipse fill="none" stroke="#0c821d" stroke-width="4" cx="2869.6762" cy="-485.065" rx="102.3844" ry="102.3844"/>
<text text-anchor="middle" x="2869.6762" y="-482.665" font-family="Fira Code" font-size="12.00" fill="#0c821d">fn/character&#45;edge.js</text>
</g>
<!-- fn/control&#45;split.js -->
<g id="node16" class="node">
<title>fn/control&#45;split.js</title>
<ellipse fill="none" stroke="#0c821d" stroke-width="4" cx="3087.6762" cy="-485.065" rx="97.6868" ry="97.6868"/>
<text text-anchor="middle" x="3087.6762" y="-482.665" font-family="Fira Code" font-size="12.00" fill="#0c821d">fn/control&#45;split.js</text>
</g>
<!-- fn/convert&#45;to&#45;ascii.js -->
<g id="node17" class="node">
<title>fn/convert&#45;to&#45;ascii.js</title>
<ellipse fill="none" stroke="#242424" stroke-width="4" cx="931.6762" cy="-485.065" rx="111.2787" ry="111.2787"/>
<text text-anchor="middle" x="931.6762" y="-482.665" font-family="Fira Code" font-size="12.00" fill="#242424">fn/convert&#45;to&#45;ascii.js</text>
</g>
<!-- fn/convert&#45;to&#45;ascii.js&#45;&gt;Ⓜ f&#45;utility/f&#45;utility.js -->
<g id="edge12" class="edge">
<title>fn/convert&#45;to&#45;ascii.js&#45;&gt;Ⓜ f&#45;utility/f&#45;utility.js</title>
<path fill="none" stroke="#242424" d="M898.6768,-378.6425C888.1956,-344.8408 876.4508,-306.9642 865.3869,-271.2833"/>
<polygon fill="#242424" stroke="#242424" points="868.5907,-269.7977 862.286,-261.2829 861.9048,-271.8709 868.5907,-269.7977"/>
</g>
<!-- fn/hex&#45;char&#45;code.js -->
<g id="node18" class="node">
<title>fn/hex&#45;char&#45;code.js</title>
<ellipse fill="none" stroke="#0c821d" stroke-width="4" cx="1158.6762" cy="-485.065" rx="97.6868" ry="97.6868"/>
<text text-anchor="middle" x="1158.6762" y="-482.665" font-family="Fira Code" font-size="12.00" fill="#0c821d">fn/hex&#45;char&#45;code.js</text>
</g>
<!-- fn/index.js -->
<g id="node19" class="node">
<title>fn/index.js</title>
<ellipse fill="none" stroke="#242424" stroke-width="4" cx="1775.6762" cy="-768.449" rx="60.6091" ry="60.6091"/>
<text text-anchor="middle" x="1775.6762" y="-766.049" font-family="Fira Code" font-size="12.00" fill="#242424">fn/index.js</text>
</g>
<!-- fn/index.js&#45;&gt;fn/alter&#45;range.js -->
<g id="edge13" class="edge">
<title>fn/index.js&#45;&gt;fn/alter&#45;range.js</title>
<path fill="none" stroke="#242424" d="M1836.0138,-759.084C1967.4333,-737.816 2274.655,-683.1152 2360.6762,-624.0461 2380.3085,-610.565 2397.2228,-591.716 2411.1753,-572.2409"/>
<polygon fill="#242424" stroke="#242424" points="2414.1565,-574.0835 2416.9729,-563.8699 2408.4019,-570.098 2414.1565,-574.0835"/>
</g>
<!-- fn/index.js&#45;&gt;fn/char&#45;code&#45;at.js -->
<g id="edge14" class="edge">
<title>fn/index.js&#45;&gt;fn/char&#45;code&#45;at.js</title>
<path fill="none" stroke="#242424" d="M1836.239,-763.0046C1997.6111,-747.6035 2433.8778,-699.8614 2554.6762,-624.0461 2574.5286,-611.5863 2591.7802,-593.7438 2606.1643,-574.9778"/>
<polygon fill="#242424" stroke="#242424" points="2609.0139,-577.0109 2612.1526,-566.8917 2603.3885,-572.845 2609.0139,-577.0109"/>
</g>
<!-- fn/index.js&#45;&gt;fn/character&#45;edge.js -->
<g id="edge15" class="edge">
<title>fn/index.js&#45;&gt;fn/character&#45;edge.js</title>
<path fill="none" stroke="#242424" d="M1836.4104,-765.3209C2025.3295,-754.7035 2599.473,-715.488 2758.6762,-624.0461 2777.8333,-613.0428 2794.9521,-597.3351 2809.6757,-580.4117"/>
<polygon fill="#242424" stroke="#242424" points="2812.5171,-582.4707 2816.2707,-572.5631 2807.1579,-577.9675 2812.5171,-582.4707"/>
</g>
<!-- fn/index.js&#45;&gt;fn/control&#45;split.js -->
<g id="edge16" class="edge">
<title>fn/index.js&#45;&gt;fn/control&#45;split.js</title>
<path fill="none" stroke="#242424" d="M1836.8428,-767.2917C2053.4685,-762.2584 2781.8293,-737.1016 2980.6762,-624.0461 3000.5331,-612.7564 3017.94,-596.1502 3032.6279,-578.3124"/>
<polygon fill="#242424" stroke="#242424" points="3035.713,-580.0548 3039.184,-570.0447 3030.2282,-575.7054 3035.713,-580.0548"/>
</g>
<!-- fn/index.js&#45;&gt;fn/convert&#45;to&#45;ascii.js -->
<g id="edge17" class="edge">
<title>fn/index.js&#45;&gt;fn/convert&#45;to&#45;ascii.js</title>
<path fill="none" stroke="#242424" d="M1714.9961,-761.4831C1562.1315,-743.1319 1165.3169,-690.2816 1051.6762,-624.0461 1033.8065,-613.6308 1017.2865,-599.5673 1002.58,-584.374"/>
<polygon fill="#242424" stroke="#242424" points="1004.9026,-581.7342 995.5082,-576.8357 999.7975,-586.5235 1004.9026,-581.7342"/>
</g>
<!-- fn/index.js&#45;&gt;fn/hex&#45;char&#45;code.js -->
<g id="edge18" class="edge">
<title>fn/index.js&#45;&gt;fn/hex&#45;char&#45;code.js</title>
<path fill="none" stroke="#242424" d="M1714.7387,-763.5782C1613.5064,-752.9404 1407.7753,-720.2849 1265.6762,-624.0461 1247.0915,-611.4594 1230.3382,-594.5986 1215.9025,-576.9686"/>
<polygon fill="#242424" stroke="#242424" points="1218.3954,-574.4797 1209.4347,-568.8267 1212.9143,-578.8339 1218.3954,-574.4797"/>
</g>
<!-- fn/magic&#45;range.js -->
<g id="node20" class="node">
<title>fn/magic&#45;range.js</title>
<ellipse fill="none" stroke="#0c821d" stroke-width="4" cx="1362.6762" cy="-485.065" rx="88.2923" ry="88.2923"/>
<text text-anchor="middle" x="1362.6762" y="-482.665" font-family="Fira Code" font-size="12.00" fill="#0c821d">fn/magic&#45;range.js</text>
</g>
<!-- fn/index.js&#45;&gt;fn/magic&#45;range.js -->
<g id="edge19" class="edge">
<title>fn/index.js&#45;&gt;fn/magic&#45;range.js</title>
<path fill="none" stroke="#242424" d="M1716.9168,-751.9956C1649.272,-730.8515 1537.5031,-688.9425 1459.6762,-624.0461 1441.6821,-609.0416 1425.4975,-589.9256 1411.7376,-570.7072"/>
<polygon fill="#242424" stroke="#242424" points="1414.5853,-568.6718 1405.9908,-562.4762 1408.8458,-572.6791 1414.5853,-568.6718"/>
</g>
<!-- fn/map&#45;wrap.js -->
<g id="node21" class="node">
<title>fn/map&#45;wrap.js</title>
<ellipse fill="none" stroke="#0c821d" stroke-width="4" cx="1543.6762" cy="-485.065" rx="74.7005" ry="74.7005"/>
<text text-anchor="middle" x="1543.6762" y="-482.665" font-family="Fira Code" font-size="12.00" fill="#0c821d">fn/map&#45;wrap.js</text>
</g>
<!-- fn/index.js&#45;&gt;fn/map&#45;wrap.js -->
<g id="edge20" class="edge">
<title>fn/index.js&#45;&gt;fn/map&#45;wrap.js</title>
<path fill="none" stroke="#242424" d="M1728.8798,-728.9314C1697.8301,-701.3731 1657.3117,-662.7377 1626.6762,-624.0461 1611.1129,-604.3902 1596.3174,-581.5565 1583.6445,-560.1466"/>
<polygon fill="#242424" stroke="#242424" points="1586.5963,-558.2605 1578.5308,-551.3903 1580.5516,-561.7907 1586.5963,-558.2605"/>
</g>
<!-- fn/match.js -->
<g id="node22" class="node">
<title>fn/match.js</title>
<ellipse fill="none" stroke="#0c821d" stroke-width="4" cx="1696.6762" cy="-485.065" rx="60.6091" ry="60.6091"/>
<text text-anchor="middle" x="1696.6762" y="-482.665" font-family="Fira Code" font-size="12.00" fill="#0c821d">fn/match.js</text>
</g>
<!-- fn/index.js&#45;&gt;fn/match.js -->
<g id="edge21" class="edge">
<title>fn/index.js&#45;&gt;fn/match.js</title>
<path fill="none" stroke="#242424" d="M1759.3073,-709.7316C1746.6228,-664.2307 1729.0247,-601.1038 1715.7116,-553.3477"/>
<polygon fill="#242424" stroke="#242424" points="1719.0809,-552.3999 1713.0241,-543.7071 1712.338,-554.2797 1719.0809,-552.3999"/>
</g>
<!-- fn/ninth&#45;bit.js -->
<g id="node23" class="node">
<title>fn/ninth&#45;bit.js</title>
<ellipse fill="none" stroke="#0c821d" stroke-width="4" cx="1854.6762" cy="-485.065" rx="79.3981" ry="79.3981"/>
<text text-anchor="middle" x="1854.6762" y="-482.665" font-family="Fira Code" font-size="12.00" fill="#0c821d">fn/ninth&#45;bit.js</text>
</g>
<!-- fn/index.js&#45;&gt;fn/ninth&#45;bit.js -->
<g id="edge22" class="edge">
<title>fn/index.js&#45;&gt;fn/ninth&#45;bit.js</title>
<path fill="none" stroke="#242424" d="M1792.045,-709.7316C1803.2029,-669.7069 1818.1628,-616.0437 1830.6637,-571.2012"/>
<polygon fill="#242424" stroke="#242424" points="1834.0593,-572.0541 1833.3733,-561.4815 1827.3164,-570.1743 1834.0593,-572.0541"/>
</g>
<!-- fn/parse&#45;binary&#45;char&#45;code.js -->
<g id="node24" class="node">
<title>fn/parse&#45;binary&#45;char&#45;code.js</title>
<ellipse fill="none" stroke="#0c821d" stroke-width="4" cx="2090.6762" cy="-485.065" rx="138.9623" ry="138.9623"/>
<text text-anchor="middle" x="2090.6762" y="-482.665" font-family="Fira Code" font-size="12.00" fill="#0c821d">fn/parse&#45;binary&#45;char&#45;code.js</text>
</g>
<!-- fn/index.js&#45;&gt;fn/parse&#45;binary&#45;char&#45;code.js -->
<g id="edge23" class="edge">
<title>fn/index.js&#45;&gt;fn/parse&#45;binary&#45;char&#45;code.js</title>
<path fill="none" stroke="#242424" d="M1822.1947,-729.1121C1855.9458,-700.3573 1902.5296,-660.2257 1942.6762,-624.0461 1955.6004,-612.399 1969.0428,-600.0765 1982.323,-587.7721"/>
<polygon fill="#242424" stroke="#242424" points="1984.7323,-590.3112 1989.68,-580.9425 1979.9698,-585.1809 1984.7323,-590.3112"/>
</g>
<!-- fn/string&#45;wrap.js -->
<g id="node25" class="node">
<title>fn/string&#45;wrap.js</title>
<ellipse fill="none" stroke="#242424" stroke-width="4" cx="713.6762" cy="-485.065" rx="88.2923" ry="88.2923"/>
<text text-anchor="middle" x="713.6762" y="-482.665" font-family="Fira Code" font-size="12.00" fill="#242424">fn/string&#45;wrap.js</text>
</g>
<!-- fn/index.js&#45;&gt;fn/string&#45;wrap.js -->
<g id="edge24" class="edge">
<title>fn/index.js&#45;&gt;fn/string&#45;wrap.js</title>
<path fill="none" stroke="#242424" d="M1714.8895,-765.5338C1527.9097,-755.6217 964.7137,-718.4357 811.6762,-624.0461 790.9155,-611.2415 773.348,-592.2266 759.0749,-572.3435"/>
<polygon fill="#242424" stroke="#242424" points="761.9318,-570.3211 753.3632,-564.0897 756.1756,-574.3044 761.9318,-570.3211"/>
</g>
<!-- fn/string&#45;wrap.js&#45;&gt;Ⓜ f&#45;utility/f&#45;utility.js -->
<g id="edge25" class="edge">
<title>fn/string&#45;wrap.js&#45;&gt;Ⓜ f&#45;utility/f&#45;utility.js</title>
<path fill="none" stroke="#242424" d="M739.9231,-400.4191C751.9541,-361.6193 766.5241,-314.6313 780.0648,-270.9627"/>
<polygon fill="#242424" stroke="#242424" points="783.4087,-271.9962 783.0275,-261.4082 776.7228,-269.923 783.4087,-271.9962"/>
</g>
<!-- index.js -->
<g id="node26" class="node">
<title>index.js</title>
<ellipse fill="none" stroke="#0c821d" stroke-width="4" cx="1711.6762" cy="-47.0083" rx="47.0167" ry="47.0167"/>
<text text-anchor="middle" x="1711.6762" y="-44.6083" font-family="Fira Code" font-size="12.00" fill="#0c821d">index.js</text>
</g>
</g>
</svg>
