<?xml version="1.0" encoding="UTF-8" standalone="no"?>
<!DOCTYPE svg PUBLIC "-//W3C//DTD SVG 1.1//EN"
 "http://www.w3.org/Graphics/SVG/1.1/DTD/svg11.dtd">
<!-- Generated by graphviz version 2.40.1 (20161225.0304)
 -->
<!-- Title: G Pages: 1 -->
<svg width="2626pt" height="2910pt"
 viewBox="0.00 0.00 2626.17 2909.94" xmlns="http://www.w3.org/2000/svg" xmlns:xlink="http://www.w3.org/1999/xlink">
<g id="graph0" class="graph" transform="scale(1 1) rotate(0) translate(7.992 2901.9524)">
<title>G</title>
<polygon fill="#eeeeff" stroke="transparent" points="-7.992,7.992 -7.992,-2901.9524 2618.1776,-2901.9524 2618.1776,7.992 -7.992,7.992"/>
<!-- cli/cmd.js -->
<g id="node1" class="node">
<title>cli/cmd.js</title>
<ellipse fill="none" stroke="#242424" stroke-width="4" cx="2438.5095" cy="-2171.5484" rx="56.412" ry="56.412"/>
<text text-anchor="middle" x="2438.5095" y="-2169.1484" font-family="Fira Code" font-size="12.00" fill="#242424">cli/cmd.js</text>
</g>
<!-- Ⓜ commander/index.js -->
<g id="node2" class="node">
<title>Ⓜ commander/index.js</title>
<ellipse fill="none" stroke="#0c821d" stroke-width="4" cx="2496.5095" cy="-1895.0747" rx="113.8526" ry="113.8526"/>
<text text-anchor="middle" x="2496.5095" y="-1893.8747" font-family="Fira Code" font-size="12.00" fill="#0c821d">Ⓜ commander/index.js</text>
</g>
<!-- cli/cmd.js&#45;&gt;Ⓜ commander/index.js -->
<g id="edge1" class="edge">
<title>cli/cmd.js&#45;&gt;Ⓜ commander/index.js</title>
<path fill="none" stroke="#242424" d="M2450.1072,-2116.2643C2456.1098,-2087.6511 2463.6909,-2051.5137 2470.976,-2016.7875"/>
<polygon fill="#242424" stroke="#242424" points="2474.4951,-2017.0592 2473.1229,-2006.5537 2467.6442,-2015.622 2474.4951,-2017.0592"/>
</g>
<!-- cli/executable.js -->
<g id="node3" class="node">
<title>cli/executable.js</title>
<ellipse fill="none" stroke="#242424" stroke-width="4" cx="2270.5095" cy="-2422.7419" rx="88.2923" ry="88.2923"/>
<text text-anchor="middle" x="2270.5095" y="-2420.3419" font-family="Fira Code" font-size="12.00" fill="#242424">cli/executable.js</text>
</g>
<!-- cli/executable.js&#45;&gt;cli/cmd.js -->
<g id="edge3" class="edge">
<title>cli/executable.js&#45;&gt;cli/cmd.js</title>
<path fill="none" stroke="#242424" d="M2319.7799,-2349.0728C2345.9531,-2309.9386 2377.5862,-2262.6408 2401.6174,-2226.7093"/>
<polygon fill="#242424" stroke="#242424" points="2404.5938,-2228.5548 2407.2438,-2218.2968 2398.7751,-2224.6633 2404.5938,-2228.5548"/>
</g>
<!-- Ⓜ f&#45;utility/f&#45;utility.js -->
<g id="node4" class="node">
<title>Ⓜ f&#45;utility/f&#45;utility.js</title>
<ellipse fill="none" stroke="#0c821d" stroke-width="4" cx="2033.5095" cy="-133.5419" rx="133.5838" ry="133.5838"/>
<text text-anchor="middle" x="2033.5095" y="-132.3419" font-family="Fira Code" font-size="12.00" fill="#0c821d">Ⓜ f&#45;utility/f&#45;utility.js</text>
</g>
<!-- cli/executable.js&#45;&gt;Ⓜ f&#45;utility/f&#45;utility.js -->
<g id="edge2" class="edge">
<title>cli/executable.js&#45;&gt;Ⓜ f&#45;utility/f&#45;utility.js</title>
<path fill="none" stroke="#242424" d="M2292.6894,-2337.0351C2317.5761,-2233.1848 2354.5095,-2052.5389 2354.5095,-1895.0747 2354.5095,-1895.0747 2354.5095,-1895.0747 2354.5095,-740.8572 2354.5095,-546.8972 2224.9499,-354.2647 2130.4504,-239.5577"/>
<polygon fill="#242424" stroke="#242424" points="2133.0727,-237.2367 2123.994,-231.7751 2127.6852,-241.7062 2133.0727,-237.2367"/>
</g>
<!-- cli/processor.js -->
<g id="node5" class="node">
<title>cli/processor.js</title>
<ellipse fill="none" stroke="#242424" stroke-width="4" cx="2109.5095" cy="-2171.5484" rx="83.5954" ry="83.5954"/>
<text text-anchor="middle" x="2109.5095" y="-2169.1484" font-family="Fira Code" font-size="12.00" fill="#242424">cli/processor.js</text>
</g>
<!-- cli/executable.js&#45;&gt;cli/processor.js -->
<g id="edge4" class="edge">
<title>cli/executable.js&#45;&gt;cli/processor.js</title>
<path fill="none" stroke="#242424" d="M2222.6401,-2348.0557C2203.0682,-2317.5195 2180.3988,-2282.1504 2160.5152,-2251.1279"/>
<polygon fill="#242424" stroke="#242424" points="2163.3287,-2249.0313 2154.9858,-2242.5009 2157.4353,-2252.8087 2163.3287,-2249.0313"/>
</g>
<!-- cli/processor.js&#45;&gt;Ⓜ f&#45;utility/f&#45;utility.js -->
<g id="edge8" class="edge">
<title>cli/processor.js&#45;&gt;Ⓜ f&#45;utility/f&#45;utility.js</title>
<path fill="none" stroke="#242424" d="M2104.6412,-2087.5979C2099.0117,-1983.1314 2090.5095,-1799.2557 2090.5095,-1641.5943 2090.5095,-1641.5943 2090.5095,-1641.5943 2090.5095,-740.8572 2090.5095,-581.2004 2070.7408,-398.9634 2054.4875,-276.1136"/>
<polygon fill="#242424" stroke="#242424" points="2057.9162,-275.3453 2053.1256,-265.8954 2050.9775,-276.2702 2057.9162,-275.3453"/>
</g>
<!-- Ⓜ fluture/index.js -->
<g id="node7" class="node">
<title>Ⓜ fluture/index.js</title>
<ellipse fill="none" stroke="#0c821d" stroke-width="4" cx="2222.5095" cy="-1895.0747" rx="103.9872" ry="103.9872"/>
<text text-anchor="middle" x="2222.5095" y="-1893.8747" font-family="Fira Code" font-size="12.00" fill="#0c821d">Ⓜ fluture/index.js</text>
</g>
<!-- cli/processor.js&#45;&gt;Ⓜ fluture/index.js -->
<g id="edge9" class="edge">
<title>cli/processor.js&#45;&gt;Ⓜ fluture/index.js</title>
<path fill="none" stroke="#242424" d="M2141.287,-2093.7993C2153.0891,-2064.9233 2166.684,-2031.6611 2179.3339,-2000.711"/>
<polygon fill="#242424" stroke="#242424" points="2182.6828,-2001.7683 2183.2264,-1991.1875 2176.2031,-1999.1199 2182.6828,-2001.7683"/>
</g>
<!-- decode.js -->
<g id="node8" class="node">
<title>decode.js</title>
<ellipse fill="none" stroke="#242424" stroke-width="4" cx="1889.5095" cy="-1895.0747" rx="51.7142" ry="51.7142"/>
<text text-anchor="middle" x="1889.5095" y="-1892.6747" font-family="Fira Code" font-size="12.00" fill="#242424">decode.js</text>
</g>
<!-- cli/processor.js&#45;&gt;decode.js -->
<g id="edge10" class="edge">
<title>cli/processor.js&#45;&gt;decode.js</title>
<path fill="none" stroke="#242424" d="M2046.5601,-2115.7752C2015.0975,-2085.9493 1977.8055,-2047.4626 1949.5095,-2008.7509 1936.6082,-1991.1008 1924.7942,-1970.3116 1915.1248,-1951.3709"/>
<polygon fill="#242424" stroke="#242424" points="1918.1614,-1949.618 1910.5548,-1942.243 1911.902,-1952.7519 1918.1614,-1949.618"/>
</g>
<!-- encode.js -->
<g id="node9" class="node">
<title>encode.js</title>
<ellipse fill="none" stroke="#242424" stroke-width="4" cx="2010.5095" cy="-1895.0747" rx="51.7142" ry="51.7142"/>
<text text-anchor="middle" x="2010.5095" y="-1892.6747" font-family="Fira Code" font-size="12.00" fill="#242424">encode.js</text>
</g>
<!-- cli/processor.js&#45;&gt;encode.js -->
<g id="edge11" class="edge">
<title>cli/processor.js&#45;&gt;encode.js</title>
<path fill="none" stroke="#242424" d="M2081.14,-2092.3221C2065.271,-2048.0053 2045.8351,-1993.7274 2031.3715,-1953.3355"/>
<polygon fill="#242424" stroke="#242424" points="2034.6596,-1952.1357 2027.9932,-1943.901 2028.0694,-1954.4955 2034.6596,-1952.1357"/>
</g>
<!-- cli/index.js -->
<g id="node6" class="node">
<title>cli/index.js</title>
<ellipse fill="none" stroke="#242424" stroke-width="4" cx="2201.5095" cy="-2655.5409" rx="65.3059" ry="65.3059"/>
<text text-anchor="middle" x="2201.5095" y="-2653.1409" font-family="Fira Code" font-size="12.00" fill="#242424">cli/index.js</text>
</g>
<!-- cli/index.js&#45;&gt;cli/cmd.js -->
<g id="edge5" class="edge">
<title>cli/index.js&#45;&gt;cli/cmd.js</title>
<path fill="none" stroke="#242424" d="M2257.4029,-2621.0436C2294.3505,-2595.2939 2340.7427,-2556.7708 2367.5095,-2511.138 2417.6133,-2425.7196 2432.6453,-2309.9475 2436.988,-2238.0435"/>
<polygon fill="#242424" stroke="#242424" points="2440.499,-2237.9392 2437.5541,-2227.7619 2433.5096,-2237.5543 2440.499,-2237.9392"/>
</g>
<!-- cli/index.js&#45;&gt;cli/executable.js -->
<g id="edge6" class="edge">
<title>cli/index.js&#45;&gt;cli/executable.js</title>
<path fill="none" stroke="#242424" d="M2220.1819,-2592.5421C2227.0476,-2569.378 2234.981,-2542.6115 2242.4896,-2517.2782"/>
<polygon fill="#242424" stroke="#242424" points="2245.8573,-2518.232 2245.3434,-2507.6496 2239.1459,-2516.2427 2245.8573,-2518.232"/>
</g>
<!-- cli/index.js&#45;&gt;cli/processor.js -->
<g id="edge7" class="edge">
<title>cli/index.js&#45;&gt;cli/processor.js</title>
<path fill="none" stroke="#242424" d="M2188.9623,-2591.2187C2184.1062,-2566.2234 2178.5206,-2537.3493 2173.5095,-2511.138 2157.5372,-2427.5926 2139.6267,-2332.4281 2126.8237,-2264.1388"/>
<polygon fill="#242424" stroke="#242424" points="2130.2551,-2263.447 2124.9726,-2254.2629 2123.3749,-2264.7366 2130.2551,-2263.447"/>
</g>
<!-- decode.js&#45;&gt;Ⓜ f&#45;utility/f&#45;utility.js -->
<g id="edge14" class="edge">
<title>decode.js&#45;&gt;Ⓜ f&#45;utility/f&#45;utility.js</title>
<path fill="none" stroke="#242424" d="M1910.3175,-1847.647C1926.4406,-1809.1715 1948.2063,-1753.1785 1961.5095,-1702.3986 2000.2216,-1554.6294 2014.5095,-1515.5647 2014.5095,-1362.8089 2014.5095,-1362.8089 2014.5095,-1362.8089 2014.5095,-740.8572 2014.5095,-582.206 2021.0672,-400.356 2026.4774,-277.3225"/>
<polygon fill="#242424" stroke="#242424" points="2029.9848,-277.2325 2026.9308,-267.0874 2022.9916,-276.9227 2029.9848,-277.2325"/>
</g>
<!-- constants/empty.js -->
<g id="node10" class="node">
<title>constants/empty.js</title>
<ellipse fill="none" stroke="#0c821d" stroke-width="4" cx="697.5095" cy="-439.0786" rx="92.9895" ry="92.9895"/>
<text text-anchor="middle" x="697.5095" y="-436.6786" font-family="Fira Code" font-size="12.00" fill="#0c821d">constants/empty.js</text>
</g>
<!-- decode.js&#45;&gt;constants/empty.js -->
<g id="edge15" class="edge">
<title>decode.js&#45;&gt;constants/empty.js</title>
<path fill="none" stroke="#242424" d="M1903.1989,-1845.2504C1927.6993,-1751.5511 1976.5095,-1542.3512 1976.5095,-1362.8089 1976.5095,-1362.8089 1976.5095,-1362.8089 1976.5095,-1047.2344 1976.5095,-786.6496 1099.6519,-540.6523 798.0093,-463.7376"/>
<polygon fill="#242424" stroke="#242424" points="798.5099,-460.2536 787.9558,-461.1824 796.7856,-467.0379 798.5099,-460.2536"/>
</g>
<!-- fn/index.js -->
<g id="node13" class="node">
<title>fn/index.js</title>
<ellipse fill="none" stroke="#242424" stroke-width="4" cx="1122.5095" cy="-1641.5943" rx="60.6091" ry="60.6091"/>
<text text-anchor="middle" x="1122.5095" y="-1639.1943" font-family="Fira Code" font-size="12.00" fill="#242424">fn/index.js</text>
</g>
<!-- decode.js&#45;&gt;fn/index.js -->
<g id="edge16" class="edge">
<title>decode.js&#45;&gt;fn/index.js</title>
<path fill="none" stroke="#242424" d="M1840.3634,-1878.8328C1707.7156,-1834.995 1342.1901,-1714.195 1190.1869,-1663.9606"/>
<polygon fill="#242424" stroke="#242424" points="1191.0815,-1660.5701 1180.4883,-1660.7553 1188.8849,-1667.2165 1191.0815,-1660.5701"/>
</g>
<!-- encode.js&#45;&gt;Ⓜ f&#45;utility/f&#45;utility.js -->
<g id="edge17" class="edge">
<title>encode.js&#45;&gt;Ⓜ f&#45;utility/f&#45;utility.js</title>
<path fill="none" stroke="#242424" d="M2017.2575,-1843.7987C2029.1299,-1749.0042 2052.5095,-1539.8554 2052.5095,-1362.8089 2052.5095,-1362.8089 2052.5095,-1362.8089 2052.5095,-740.8572 2052.5095,-582.206 2045.9518,-400.356 2040.5415,-277.3225"/>
<polygon fill="#242424" stroke="#242424" points="2044.0273,-276.9227 2040.0881,-267.0874 2037.0342,-277.2325 2044.0273,-276.9227"/>
</g>
<!-- encode.js&#45;&gt;fn/index.js -->
<g id="edge18" class="edge">
<title>encode.js&#45;&gt;fn/index.js</title>
<path fill="none" stroke="#242424" d="M1995.7196,-1845.3337C1986.3824,-1822.4043 1971.9361,-1796.8969 1950.5095,-1781.3986 1829.4216,-1693.8132 1371.2232,-1656.8479 1193.5335,-1645.5987"/>
<polygon fill="#242424" stroke="#242424" points="1193.7056,-1642.1027 1183.5068,-1644.9724 1193.2692,-1649.0891 1193.7056,-1642.1027"/>
</g>
<!-- constants/index.js -->
<g id="node11" class="node">
<title>constants/index.js</title>
<ellipse fill="none" stroke="#242424" stroke-width="4" cx="108.5095" cy="-1047.2344" rx="92.9895" ry="92.9895"/>
<text text-anchor="middle" x="108.5095" y="-1044.8344" font-family="Fira Code" font-size="12.00" fill="#242424">constants/index.js</text>
</g>
<!-- constants/index.js&#45;&gt;constants/empty.js -->
<g id="edge12" class="edge">
<title>constants/index.js&#45;&gt;constants/empty.js</title>
<path fill="none" stroke="#242424" d="M71.1484,-961.7546C35.3058,-865.0167 -2.3797,-708.2968 79.5095,-611.0733 212.5791,-453.0855 343.3759,-602.641 537.5095,-532.0733 562.6781,-522.9245 588.419,-509.8748 611.6913,-496.4344"/>
<polygon fill="#242424" stroke="#242424" points="613.6326,-499.3533 620.4835,-491.2714 610.088,-493.3171 613.6326,-499.3533"/>
</g>
<!-- constants/regex&#45;control.js -->
<g id="node12" class="node">
<title>constants/regex&#45;control.js</title>
<ellipse fill="none" stroke="#0c821d" stroke-width="4" cx="218.5095" cy="-740.8572" rx="129.5681" ry="129.5681"/>
<text text-anchor="middle" x="218.5095" y="-738.4572" font-family="Fira Code" font-size="12.00" fill="#0c821d">constants/regex&#45;control.js</text>
</g>
<!-- constants/index.js&#45;&gt;constants/regex&#45;control.js -->
<g id="edge13" class="edge">
<title>constants/index.js&#45;&gt;constants/regex&#45;control.js</title>
<path fill="none" stroke="#242424" d="M140.0311,-959.439C149.741,-932.3942 160.653,-902.0019 171.1822,-872.6753"/>
<polygon fill="#242424" stroke="#242424" points="174.5003,-873.7912 174.5853,-863.1967 167.912,-871.4257 174.5003,-873.7912"/>
</g>
<!-- fn/alter&#45;range.js -->
<g id="node14" class="node">
<title>fn/alter&#45;range.js</title>
<ellipse fill="none" stroke="#0c821d" stroke-width="4" cx="682.5095" cy="-1362.8089" rx="88.2923" ry="88.2923"/>
<text text-anchor="middle" x="682.5095" y="-1360.4089" font-family="Fira Code" font-size="12.00" fill="#0c821d">fn/alter&#45;range.js</text>
</g>
<!-- fn/index.js&#45;&gt;fn/alter&#45;range.js -->
<g id="edge25" class="edge">
<title>fn/index.js&#45;&gt;fn/alter&#45;range.js</title>
<path fill="none" stroke="#242424" d="M1063.1366,-1628.2672C990.4523,-1609.6492 866.4499,-1570.2054 780.5095,-1501.7901 762.0163,-1487.068 745.5051,-1467.9608 731.545,-1448.6513"/>
<polygon fill="#242424" stroke="#242424" points="734.3379,-1446.5385 725.7199,-1440.3756 728.6137,-1450.5676 734.3379,-1446.5385"/>
</g>
<!-- fn/char&#45;code&#45;at.js -->
<g id="node15" class="node">
<title>fn/char&#45;code&#45;at.js</title>
<ellipse fill="none" stroke="#0c821d" stroke-width="4" cx="1122.5095" cy="-1362.8089" rx="92.9895" ry="92.9895"/>
<text text-anchor="middle" x="1122.5095" y="-1360.4089" font-family="Fira Code" font-size="12.00" fill="#0c821d">fn/char&#45;code&#45;at.js</text>
</g>
<!-- fn/index.js&#45;&gt;fn/char&#45;code&#45;at.js -->
<g id="edge26" class="edge">
<title>fn/index.js&#45;&gt;fn/char&#45;code&#45;at.js</title>
<path fill="none" stroke="#242424" d="M1122.5095,-1580.7582C1122.5095,-1547.2258 1122.5095,-1504.6883 1122.5095,-1466.1113"/>
<polygon fill="#242424" stroke="#242424" points="1126.0096,-1465.8735 1122.5095,-1455.8735 1119.0096,-1465.8736 1126.0096,-1465.8735"/>
</g>
<!-- fn/character&#45;edge.js -->
<g id="node16" class="node">
<title>fn/character&#45;edge.js</title>
<ellipse fill="none" stroke="#0c821d" stroke-width="4" cx="1335.5095" cy="-1362.8089" rx="102.3844" ry="102.3844"/>
<text text-anchor="middle" x="1335.5095" y="-1360.4089" font-family="Fira Code" font-size="12.00" fill="#0c821d">fn/character&#45;edge.js</text>
</g>
<!-- fn/index.js&#45;&gt;fn/character&#45;edge.js -->
<g id="edge27" class="edge">
<title>fn/index.js&#45;&gt;fn/character&#45;edge.js</title>
<path fill="none" stroke="#242424" d="M1159.6112,-1593.0336C1189.2442,-1554.2484 1231.5736,-1498.8456 1267.282,-1452.1086"/>
<polygon fill="#242424" stroke="#242424" points="1270.1191,-1454.1602 1273.4091,-1444.0891 1264.5568,-1449.9104 1270.1191,-1454.1602"/>
</g>
<!-- fn/control&#45;split.js -->
<g id="node17" class="node">
<title>fn/control&#45;split.js</title>
<ellipse fill="none" stroke="#242424" stroke-width="4" cx="440.5095" cy="-1047.2344" rx="97.6868" ry="97.6868"/>
<text text-anchor="middle" x="440.5095" y="-1044.8344" font-family="Fira Code" font-size="12.00" fill="#242424">fn/control&#45;split.js</text>
</g>
<!-- fn/index.js&#45;&gt;fn/control&#45;split.js -->
<g id="edge28" class="edge">
<title>fn/index.js&#45;&gt;fn/control&#45;split.js</title>
<path fill="none" stroke="#242424" d="M1062.0036,-1635.1773C929.7571,-1619.8746 621.2687,-1576.8107 552.5095,-1501.7901 468.0448,-1409.6338 542.007,-1344.5381 509.5095,-1223.8278 502.6048,-1198.1807 493.1976,-1171.1568 483.5514,-1146.1721"/>
<polygon fill="#242424" stroke="#242424" points="486.75,-1144.7411 479.8474,-1136.7034 480.231,-1147.2913 486.75,-1144.7411"/>
</g>
<!-- fn/hex&#45;char&#45;code.js -->
<g id="node18" class="node">
<title>fn/hex&#45;char&#45;code.js</title>
<ellipse fill="none" stroke="#0c821d" stroke-width="4" cx="630.5095" cy="-740.8572" rx="97.6868" ry="97.6868"/>
<text text-anchor="middle" x="630.5095" y="-738.4572" font-family="Fira Code" font-size="12.00" fill="#0c821d">fn/hex&#45;char&#45;code.js</text>
</g>
<!-- fn/index.js&#45;&gt;fn/hex&#45;char&#45;code.js -->
<g id="edge30" class="edge">
<title>fn/index.js&#45;&gt;fn/hex&#45;char&#45;code.js</title>
<path fill="none" stroke="#242424" d="M1061.7727,-1634.9952C933.9069,-1619.7206 643.9114,-1577.3433 585.5095,-1501.7901 508.5703,-1402.2557 570.735,-1030.8522 607.8214,-846.3059"/>
<polygon fill="#242424" stroke="#242424" points="611.2907,-846.8075 609.8419,-836.3122 604.4295,-845.4203 611.2907,-846.8075"/>
</g>
<!-- fn/map&#45;wrap.js -->
<g id="node19" class="node">
<title>fn/map&#45;wrap.js</title>
<ellipse fill="none" stroke="#242424" stroke-width="4" cx="440.5095" cy="-740.8572" rx="74.7005" ry="74.7005"/>
<text text-anchor="middle" x="440.5095" y="-738.4572" font-family="Fira Code" font-size="12.00" fill="#242424">fn/map&#45;wrap.js</text>
</g>
<!-- fn/index.js&#45;&gt;fn/map&#45;wrap.js -->
<g id="edge32" class="edge">
<title>fn/index.js&#45;&gt;fn/map&#45;wrap.js</title>
<path fill="none" stroke="#242424" d="M1061.6279,-1636.775C866.9621,-1620.7569 269.1321,-1566.6215 213.5095,-1501.7901 133.0674,-1408.0302 188.2073,-1344.7477 213.5095,-1223.8278 240.7537,-1093.627 276.4819,-1069.8173 333.5095,-949.641 354.6863,-905.0143 379.8125,-855.8133 400.3933,-816.3875"/>
<polygon fill="#242424" stroke="#242424" points="403.7171,-817.5845 405.2511,-807.1013 397.5145,-814.3397 403.7171,-817.5845"/>
</g>
<!-- fn/convert&#45;to&#45;ascii.js -->
<g id="node20" class="node">
<title>fn/convert&#45;to&#45;ascii.js</title>
<ellipse fill="none" stroke="#242424" stroke-width="4" cx="900.5095" cy="-1362.8089" rx="111.2787" ry="111.2787"/>
<text text-anchor="middle" x="900.5095" y="-1360.4089" font-family="Fira Code" font-size="12.00" fill="#242424">fn/convert&#45;to&#45;ascii.js</text>
</g>
<!-- fn/index.js&#45;&gt;fn/convert&#45;to&#45;ascii.js -->
<g id="edge29" class="edge">
<title>fn/index.js&#45;&gt;fn/convert&#45;to&#45;ascii.js</title>
<path fill="none" stroke="#242424" d="M1084.5986,-1593.9862C1054.9806,-1556.7922 1012.8648,-1503.9036 976.3896,-1458.0985"/>
<polygon fill="#242424" stroke="#242424" points="979.0867,-1455.8668 970.1194,-1450.2243 973.6108,-1460.2274 979.0867,-1455.8668"/>
</g>
<!-- fn/magic&#45;range.js -->
<g id="node21" class="node">
<title>fn/magic&#45;range.js</title>
<ellipse fill="none" stroke="#0c821d" stroke-width="4" cx="1544.5095" cy="-1362.8089" rx="88.2923" ry="88.2923"/>
<text text-anchor="middle" x="1544.5095" y="-1360.4089" font-family="Fira Code" font-size="12.00" fill="#0c821d">fn/magic&#45;range.js</text>
</g>
<!-- fn/index.js&#45;&gt;fn/magic&#45;range.js -->
<g id="edge31" class="edge">
<title>fn/index.js&#45;&gt;fn/magic&#45;range.js</title>
<path fill="none" stroke="#242424" d="M1181.4869,-1626.7416C1250.6779,-1607.0757 1366.1339,-1567.0526 1446.5095,-1501.7901 1464.8597,-1486.8902 1481.3174,-1467.7164 1495.2714,-1448.3994"/>
<polygon fill="#242424" stroke="#242424" points="1498.2026,-1450.3158 1501.0967,-1440.1239 1492.4785,-1446.2865 1498.2026,-1450.3158"/>
</g>
<!-- fn/match.js -->
<g id="node22" class="node">
<title>fn/match.js</title>
<ellipse fill="none" stroke="#0c821d" stroke-width="4" cx="1711.5095" cy="-1362.8089" rx="60.6091" ry="60.6091"/>
<text text-anchor="middle" x="1711.5095" y="-1360.4089" font-family="Fira Code" font-size="12.00" fill="#0c821d">fn/match.js</text>
</g>
<!-- fn/index.js&#45;&gt;fn/match.js -->
<g id="edge33" class="edge">
<title>fn/index.js&#45;&gt;fn/match.js</title>
<path fill="none" stroke="#242424" d="M1182.5282,-1631.754C1303.3679,-1610.9483 1570.522,-1559.6275 1641.5095,-1501.7901 1663.894,-1483.5521 1679.7887,-1456.3191 1690.7108,-1430.7803"/>
<polygon fill="#242424" stroke="#242424" points="1693.9733,-1432.0488 1694.5126,-1421.4677 1687.4925,-1429.4031 1693.9733,-1432.0488"/>
</g>
<!-- fn/ninth&#45;bit.js -->
<g id="node23" class="node">
<title>fn/ninth&#45;bit.js</title>
<ellipse fill="none" stroke="#0c821d" stroke-width="4" cx="1869.5095" cy="-1362.8089" rx="79.3981" ry="79.3981"/>
<text text-anchor="middle" x="1869.5095" y="-1360.4089" font-family="Fira Code" font-size="12.00" fill="#0c821d">fn/ninth&#45;bit.js</text>
</g>
<!-- fn/index.js&#45;&gt;fn/ninth&#45;bit.js -->
<g id="edge34" class="edge">
<title>fn/index.js&#45;&gt;fn/ninth&#45;bit.js</title>
<path fill="none" stroke="#242424" d="M1183.0203,-1634.8142C1326.7772,-1617.7642 1684.0521,-1569.5705 1781.5095,-1501.7901 1802.3222,-1487.315 1819.2822,-1466.1675 1832.5588,-1444.7155"/>
<polygon fill="#242424" stroke="#242424" points="1835.7297,-1446.2311 1837.8371,-1435.848 1829.7147,-1442.6507 1835.7297,-1446.2311"/>
</g>
<!-- fn/parse&#45;binary&#45;char&#45;code.js -->
<g id="node24" class="node">
<title>fn/parse&#45;binary&#45;char&#45;code.js</title>
<ellipse fill="none" stroke="#0c821d" stroke-width="4" cx="361.5095" cy="-1362.8089" rx="138.9623" ry="138.9623"/>
<text text-anchor="middle" x="361.5095" y="-1360.4089" font-family="Fira Code" font-size="12.00" fill="#0c821d">fn/parse&#45;binary&#45;char&#45;code.js</text>
</g>
<!-- fn/index.js&#45;&gt;fn/parse&#45;binary&#45;char&#45;code.js -->
<g id="edge35" class="edge">
<title>fn/index.js&#45;&gt;fn/parse&#45;binary&#45;char&#45;code.js</title>
<path fill="none" stroke="#242424" d="M1061.6202,-1637.7787C948.004,-1628.5236 698.5597,-1598.0107 514.5095,-1501.7901 497.7192,-1493.0122 481.3468,-1481.9435 465.9341,-1469.9024"/>
<polygon fill="#242424" stroke="#242424" points="467.9589,-1467.04 457.9645,-1463.5239 463.5849,-1472.5052 467.9589,-1467.04"/>
</g>
<!-- fn/string&#45;wrap.js -->
<g id="node25" class="node">
<title>fn/string&#45;wrap.js</title>
<ellipse fill="none" stroke="#242424" stroke-width="4" cx="440.5095" cy="-439.0786" rx="88.2923" ry="88.2923"/>
<text text-anchor="middle" x="440.5095" y="-436.6786" font-family="Fira Code" font-size="12.00" fill="#242424">fn/string&#45;wrap.js</text>
</g>
<!-- fn/index.js&#45;&gt;fn/string&#45;wrap.js -->
<g id="edge36" class="edge">
<title>fn/index.js&#45;&gt;fn/string&#45;wrap.js</title>
<path fill="none" stroke="#242424" d="M1061.4701,-1640.1428C873.8381,-1634.5542 309.649,-1609.0006 167.5095,-1501.7901 28.5621,-1396.9873 43.1054,-1314.9769 6.5095,-1144.8278 -14.7022,-1046.2064 24.0158,-615.9767 27.5095,-611.0733 100.0955,-509.1984 244.8069,-467.4326 342.1674,-450.4654"/>
<polygon fill="#242424" stroke="#242424" points="343.0409,-453.8677 352.3208,-448.7557 341.8784,-446.9649 343.0409,-453.8677"/>
</g>
<!-- fn/control&#45;split.js&#45;&gt;constants/regex&#45;control.js -->
<g id="edge19" class="edge">
<title>fn/control&#45;split.js&#45;&gt;constants/regex&#45;control.js</title>
<path fill="none" stroke="#242424" d="M383.0502,-967.9362C358.0278,-933.4033 328.232,-892.2828 300.9155,-854.5839"/>
<polygon fill="#242424" stroke="#242424" points="303.4651,-852.1375 294.7633,-846.0934 297.7967,-856.2448 303.4651,-852.1375"/>
</g>
<!-- fn/control&#45;split.js&#45;&gt;fn/hex&#45;char&#45;code.js -->
<g id="edge20" class="edge">
<title>fn/control&#45;split.js&#45;&gt;fn/hex&#45;char&#45;code.js</title>
<path fill="none" stroke="#242424" d="M492.1768,-963.9202C517.4156,-923.2224 547.8475,-874.1505 573.7347,-832.4072"/>
<polygon fill="#242424" stroke="#242424" points="576.7212,-834.2322 579.0171,-823.8891 570.7723,-830.543 576.7212,-834.2322"/>
</g>
<!-- fn/control&#45;split.js&#45;&gt;fn/map&#45;wrap.js -->
<g id="edge21" class="edge">
<title>fn/control&#45;split.js&#45;&gt;fn/map&#45;wrap.js</title>
<path fill="none" stroke="#242424" d="M440.5095,-949.4524C440.5095,-909.7451 440.5095,-864.2978 440.5095,-825.9817"/>
<polygon fill="#242424" stroke="#242424" points="444.0096,-825.8897 440.5095,-815.8897 437.0096,-825.8897 444.0096,-825.8897"/>
</g>
<!-- fn/map&#45;wrap.js&#45;&gt;constants/empty.js -->
<g id="edge37" class="edge">
<title>fn/map&#45;wrap.js&#45;&gt;constants/empty.js</title>
<path fill="none" stroke="#242424" d="M477.9104,-676.1959C491.3273,-654.763 507.1948,-631.2447 523.5095,-611.0733 552.6893,-574.9954 588.6502,-538.3888 620.2913,-508.2743"/>
<polygon fill="#242424" stroke="#242424" points="622.9524,-510.5749 627.8122,-501.1604 618.1422,-505.4895 622.9524,-510.5749"/>
</g>
<!-- fn/map&#45;wrap.js&#45;&gt;fn/string&#45;wrap.js -->
<g id="edge38" class="edge">
<title>fn/map&#45;wrap.js&#45;&gt;fn/string&#45;wrap.js</title>
<path fill="none" stroke="#242424" d="M440.5095,-665.8725C440.5095,-627.1689 440.5095,-579.4559 440.5095,-537.7945"/>
<polygon fill="#242424" stroke="#242424" points="444.0096,-537.6211 440.5095,-527.6212 437.0096,-537.6212 444.0096,-537.6211"/>
</g>
<!-- fn/convert&#45;to&#45;ascii.js&#45;&gt;Ⓜ f&#45;utility/f&#45;utility.js -->
<g id="edge22" class="edge">
<title>fn/convert&#45;to&#45;ascii.js&#45;&gt;Ⓜ f&#45;utility/f&#45;utility.js</title>
<path fill="none" stroke="#242424" d="M972.9989,-1277.8591C988.5535,-1259.9111 1004.9828,-1241.1618 1020.5095,-1223.8278 1349.6385,-856.3873 1751.2713,-430.6014 1934.2057,-237.8626"/>
<polygon fill="#242424" stroke="#242424" points="1936.807,-240.206 1941.1534,-230.5438 1931.7302,-235.3867 1936.807,-240.206"/>
</g>
<!-- fn/convert&#45;to&#45;ascii.js&#45;&gt;constants/empty.js -->
<g id="edge23" class="edge">
<title>fn/convert&#45;to&#45;ascii.js&#45;&gt;constants/empty.js</title>
<path fill="none" stroke="#242424" d="M877.401,-1253.7668C846.2633,-1107.4147 788.8142,-839.4137 737.5095,-611.0733 732.3052,-587.9107 726.5894,-563.0234 721.1477,-539.5743"/>
<polygon fill="#242424" stroke="#242424" points="724.5076,-538.5699 718.8346,-529.6219 717.6894,-540.1547 724.5076,-538.5699"/>
</g>
<!-- fn/convert&#45;to&#45;ascii.js&#45;&gt;fn/control&#45;split.js -->
<g id="edge24" class="edge">
<title>fn/convert&#45;to&#45;ascii.js&#45;&gt;fn/control&#45;split.js</title>
<path fill="none" stroke="#242424" d="M832.5181,-1274.5322C816.3024,-1256.5146 798.2302,-1238.5788 779.5095,-1223.8278 706.3041,-1166.1457 611.3911,-1118.6037 540.6215,-1087.4366"/>
<polygon fill="#242424" stroke="#242424" points="541.8044,-1084.134 531.2394,-1083.3382 539.0022,-1090.5487 541.8044,-1084.134"/>
</g>
<!-- fn/string&#45;wrap.js&#45;&gt;Ⓜ f&#45;utility/f&#45;utility.js -->
<g id="edge39" class="edge">
<title>fn/string&#45;wrap.js&#45;&gt;Ⓜ f&#45;utility/f&#45;utility.js</title>
<path fill="none" stroke="#242424" d="M512.8349,-387.6431C537.9548,-372.0089 566.9962,-356.2846 595.5095,-346.0838 832.9241,-261.1472 1575.8883,-179.3064 1890.4918,-147.4814"/>
<polygon fill="#242424" stroke="#242424" points="1890.9898,-150.949 1900.5877,-146.4624 1890.2868,-143.9844 1890.9898,-150.949"/>
</g>
<!-- index.js -->
<g id="node26" class="node">
<title>index.js</title>
<ellipse fill="none" stroke="#242424" stroke-width="4" cx="1889.5095" cy="-2846.9521" rx="47.0167" ry="47.0167"/>
<text text-anchor="middle" x="1889.5095" y="-2844.5521" font-family="Fira Code" font-size="12.00" fill="#242424">index.js</text>
</g>
<!-- index.js&#45;&gt;cli/index.js -->
<g id="edge40" class="edge">
<title>index.js&#45;&gt;cli/index.js</title>
<path fill="none" stroke="#242424" d="M1929.6593,-2822.3203C1982.1605,-2790.111 2074.7673,-2733.2969 2137.1252,-2695.0405"/>
<polygon fill="#242424" stroke="#242424" points="2139.0226,-2697.9827 2145.7161,-2689.77 2135.362,-2692.016 2139.0226,-2697.9827"/>
</g>
<!-- index.js&#45;&gt;decode.js -->
<g id="edge42" class="edge">
<title>index.js&#45;&gt;decode.js</title>
<path fill="none" stroke="#242424" d="M1889.5095,-2799.7484C1889.5095,-2642.2345 1889.5095,-2134.6364 1889.5095,-1957.0902"/>
<polygon fill="#242424" stroke="#242424" points="1893.0096,-1956.8781 1889.5095,-1946.8781 1886.0096,-1956.8782 1893.0096,-1956.8781"/>
</g>
<!-- index.js&#45;&gt;encode.js -->
<g id="edge43" class="edge">
<title>index.js&#45;&gt;encode.js</title>
<path fill="none" stroke="#242424" d="M1895.4686,-2800.073C1915.4746,-2642.6909 1980.2409,-2133.1903 2002.7304,-1956.2705"/>
<polygon fill="#242424" stroke="#242424" points="2006.2027,-1956.7097 2003.9917,-1946.3481 1999.2586,-1955.8269 2006.2027,-1956.7097"/>
</g>
<!-- index.js&#45;&gt;constants/index.js -->
<g id="edge41" class="edge">
<title>index.js&#45;&gt;constants/index.js</title>
<path fill="none" stroke="#242424" d="M1842.0935,-2845.8497C1563.3823,-2838.125 150.5095,-2781.2844 150.5095,-2422.7419 150.5095,-2422.7419 150.5095,-2422.7419 150.5095,-1641.5943 150.5095,-1468.7082 132.6087,-1268.2366 120.18,-1149.8835"/>
<polygon fill="#242424" stroke="#242424" points="123.6404,-1149.3234 119.1078,-1139.7471 116.6792,-1150.0598 123.6404,-1149.3234"/>
</g>
<!-- index.js&#45;&gt;fn/index.js -->
<g id="edge44" class="edge">
<title>index.js&#45;&gt;fn/index.js</title>
<path fill="none" stroke="#242424" d="M1845.8343,-2828.5377C1737.7585,-2779.7179 1466.5095,-2635.9521 1466.5095,-2422.7419 1466.5095,-2422.7419 1466.5095,-2422.7419 1466.5095,-2171.5484 1466.5095,-1962.2253 1275.3565,-1770.4934 1178.0358,-1686.4425"/>
<polygon fill="#242424" stroke="#242424" points="1180.2131,-1683.6991 1170.3412,-1679.8526 1175.6598,-1689.0158 1180.2131,-1683.6991"/>
</g>
</g>
</svg>
